<svg class="voyager-component-icon icon" xmlns="http://www.w3.org/2000/svg" width="109" height="109" viewBox="8.730019575774037 6.936195887326847 91.40109371326443 91.40109371326443"><g style="fill:none;stroke:#000000;stroke-width:7.127608225346309;stroke-linecap:square;stroke-linejoin:miter;"><g><g></g><g><g><path d="M27.5,33.7c2.12,0.68,5.54,0.04,8.37-0.26c9.61-1.04,30.55-3.41,42.77-4.41c3.06-0.25,5.85-0.38,8.86,0.26"/></g></g><g><path d="M56,10.5c2.35,2.61,2.42,4.92,2.84,8.38C62.62,50.38,68,73,91.45,92.7c5.73,4.81,5.5,0.78,4.69-7.24"/><g><path d="M82.98,45.14c0.27,1.36,0.21,2.71-0.16,4.2C80.5,58.62,71,77.5,55.06,89.47"/></g><g><g><path d="M75.25,11.75c2.94,1.6,7.63,5.26,9,8"/></g></g></g></g></g></svg>