<svg class="voyager-component-icon icon" xmlns="http://www.w3.org/2000/svg" width="109" height="109" viewBox="12.775348258706515 12.765348258706467 82.95930348258706 82.95930348258706"><g style="fill:none;stroke:#000000;stroke-width:6.469303482587065;stroke-linecap:square;stroke-linejoin:miter;"><g><g></g><g><path d="M53.95,16c0.43,0.86,0.6,1.9,0.35,2.81C52,26.88,44.88,40,36.25,48.41"/><path d="M47.36,39.52c1.15,0.29,2.56,0.4,4.31,0.25C54.88,39.5,73.99,34.7,79,33.5c6.25-1.5,6,2.5-3.5,11.4"/><path d="M56.77,49.2c0.73,1.3,0.8,2.71,0.58,4.26c-1.85,13.41-9.73,30.41-25.6,39.03"/><path d="M57.42,56.97c5.33,6.16,17.33,19.53,27.25,28.88c2.29,2.16,4.33,3.78,7.83,5.28"/></g></g></g></svg>