<svg class="voyager-component-icon icon" xmlns="http://www.w3.org/2000/svg" width="109" height="109" viewBox="8.229374450085908 12.733208955223882 83.7835820895523 83.7835820895523"><g style="fill:none;stroke:#000000;stroke-width:6.533582089552244;stroke-linecap:square;stroke-linejoin:miter;"><g><g><g><path d="M69.62,16c0.25,1-0.17,1.88-0.52,2.59C66.12,24.62,62,31.75,55.19,40.46"/></g><g><path d="M46.44,42.16c1.07,1.07,1.37,2.17,1.37,3.88c0,1.46-0.09,27.72-0.05,41.46c0.01,2.3,0.01,4.28,0.01,5.75"/><path d="M48.47,44.43c4.52-0.61,27.92-2.99,35.22-3.72c3.14-0.31,4.94,0.3,4.93,3.91C88.62,48.58,88.8,69.3,88.73,85c-0.01,2.57-0.02,5-0.02,7.21"/><path d="M48.92,66.15c11.2-1.27,32.33-2.9,39.5-3.26"/><path d="M48.94,90.47c10.68-0.97,28.24-2.33,38.54-2.64"/></g></g></g></g></svg>