<svg class="voyager-component-icon icon" xmlns="http://www.w3.org/2000/svg" width="109" height="109" viewBox="20.177838279133905 12.712394393186823 81.23976732767917 81.23976732767917"><g style="fill:none;stroke:#000000;stroke-width:6.3352112136263585;stroke-linecap:square;stroke-linejoin:miter;"><g><g><g><path d="M55.25,15.88c5.64,3.21,9.5,6.62,12.56,11.66"/></g><g><path d="M43,41.32c1.75,0.31,3.75,0.22,5.87,0.03c11-0.97,23.69-2.1,36.3-2.56c1.72-0.06,3.28,0.09,4.7,0.46"/><path d="M64.25,42.59c1,1.07,1.5,2.41,1.5,3.96c0,5.98,0.5,35.17,0.25,41.15"/><path d="M45.25,63.69c1.03,0.53,4.42,0.34,5.47,0.23c12.58-1.32,17.02-1.73,31.14-2.61c1.28-0.08,4.1-0.22,6.02,0.25"/><path d="M35.5,90.36c2.36,0.52,5.24,0.51,7.94,0.25c13.02-1.23,35.55-2.61,47.17-2.65c2.83-0.01,6.23,0.45,7.64,0.88"/></g></g></g></g></svg>