<svg class="voyager-component-icon icon" xmlns="http://www.w3.org/2000/svg" width="109" height="109" viewBox="5.030323383084456 8.31032338308457 94.62935323383091 94.62935323383091"><g style="fill:none;stroke:#000000;stroke-width:7.379353233830851;stroke-linecap:square;stroke-linejoin:miter;"><g><g><g><path d="M60.75,12c0.37,1.5,0.19,3.75-0.37,5.27C57.25,25.75,52.29,38.23,44.31,47"/></g><path d="M56.86,32.42c2.21,0.08,4.42,0.04,5.97-0.13c8.04-0.91,15.67-2.29,25.6-4.09c2.81-0.51,5.28-0.45,7.4-0.08"/><path d="M68.35,34.21c1.1,1.1,1.62,2.73,1.62,4.09c0,6.33-0.17,37.69-0.22,53.95c-0.01,2.99-0.02,5.41-0.02,7"/><path d="M72.75,52.78c5.12-0.59,10.5-1.4,15.75-2.29c1.61-0.27,3.4-0.12,4.22,0.02"/><path d="M73.04,72.51c6.55-0.75,11.75-1.42,18.9-2.27c1.87-0.22,3.07-0.12,4.03,0.02"/></g></g></g></svg>