<svg class="voyager-component-icon icon" xmlns="http://www.w3.org/2000/svg" width="109" height="109" viewBox="19.92511639235628 18.90658798940101 78.31859010246457 78.31859010246457"><g style="fill:none;stroke:#000000;stroke-width:6.107412989641732;stroke-linecap:square;stroke-linejoin:miter;"><g><g><g></g></g><g><g><path d="M56.27,25.41c1.48,0.34,2.73,0.34,4.07,0.11c4.34-0.76,7.33-1.66,8.63-1.94c2.16-0.45,3.71,0.55,3.71,2.86c0,2.56-0.04,51.1-0.04,63.31c0,9.3-6.65,1.16-7.39,0.4"/><path d="M57.39,39.38c2.5,1.33,6.45,5.49,7.07,7.56"/><path d="M57.66,67.62c1.59,0.63,2.59,0,3.46-1.05c0.51-0.62,3.12-3.61,5.29-6.58"/></g><g><path d="M78.22,23.09c1.65,0.54,3.35,0.57,4.82,0.36c3.09-0.44,7.12-1.32,8.44-1.46c2.15-0.23,3.71,0.89,3.71,2.86c0,0.94-0.06,51.27-0.06,63.48c0,10.93-6.39,1.59-7.13,0.83"/><path d="M80.75,39.38c2.5,1.24,6.45,5.11,7.07,7.04"/><path d="M80.26,65.19c1.24,0.56,2.36,0.61,3.5-0.36c0.68-0.57,4.98-4.21,7.99-7.12"/></g></g></g></g></svg>