<svg class="voyager-component-icon icon" xmlns="http://www.w3.org/2000/svg" width="109" height="109" viewBox="10.68420398009945 11.824203980099508 87.86159203980102 87.86159203980102"><g style="fill:none;stroke:#000000;stroke-width:6.851592039800997;stroke-linecap:square;stroke-linejoin:miter;"><g><g><g><path d="M78.25,15.25c-0.25,1.38-0.85,2.48-2.43,3.36c-6.57,3.64-15.33,7.53-33.29,11.38"/><path d="M36.63,48.9c1.91,0.39,5.51,0.31,7.4,0.14c12.84-1.16,30.34-3.29,44.4-3.78c3.18-0.11,5.1,0.18,6.69,0.38"/><path d="M63.54,27.31c0.62,0.43,2.07,1.69,2.07,4.09c0,1.34,0.2,24.94,0.11,34.61"/></g><g><path d="M46.53,66.86c1.2,1.02,1.32,1.28,1.61,2.91c0.95,5.39,1.69,14.7,2.37,22.46c0.12,1.38,0.23,2.73,0.31,4.03"/><path d="M48.75,68.3c12.12-0.92,29.02-2.18,35.67-2.75c2.64-0.22,3.83,1.2,3.27,3.34c-1.25,4.75-3.75,14.54-4.98,21.36"/><path d="M51.81,93.3c7.69-0.3,16.69-1.05,27.2-1.78c1.9-0.13,3.73-0.15,5.46-0.18"/></g></g></g></g></svg>