<svg class="voyager-component-icon icon" xmlns="http://www.w3.org/2000/svg" width="109" height="109" viewBox="17.046641791044767 12.296641791044781 82.15671641791049 82.15671641791049"><g style="fill:none;stroke:#000000;stroke-width:6.406716417910451;stroke-linecap:square;stroke-linejoin:miter;"><g><g><g><path d="M66.39,15.5c0.99,0.99,1.38,1.88,1.38,3.62c0,4.25-0.02,7.62-0.08,10.41"/><path d="M48.12,31.71c2.3,0.29,3.9,0.44,6.09,0.2c10.28-1.16,20.32-2.66,32.45-3.53c2.35-0.17,4.03-0.01,5.33,0.32"/></g><g><path d="M59.24,38.93c0.2,0.53,0.06,2.27-0.4,3.14C57,45.5,53.75,49.5,50,52.5"/><path d="M79.27,38.5c4.34,3.07,8.73,8.68,10.9,12.41"/><path d="M79.15,49.18c0.35,1.32,0.17,2.62-0.54,4.18C72.25,67.25,58.75,83.25,44,91.25"/><path d="M55.95,55.88c6.3,3.37,21.64,22.12,31.45,30.33c2.64,2.21,5.07,4.15,8.6,4.44"/></g></g></g></g></svg>