<svg class="voyager-component-icon icon" xmlns="http://www.w3.org/2000/svg" width="109" height="109" viewBox="14.494258266535741 10.865184702938212 86.81055703052604 86.81055703052604"><g style="fill:none;stroke:#000000;stroke-width:6.769630594123591;stroke-linecap:square;stroke-linejoin:miter;"><g><g><g><g><path d="M55.1,14.25c0.05,0.65,0.16,1.69-0.09,2.6c-1.55,5.6-8.51,16.02-17.36,24.43"/></g><path d="M53.88,27.02c0.94,0.18,3.7,0.29,4.62,0.18c4.47-0.52,18.49-2.45,26.44-3.62c2.43-0.36,4.03-0.45,6.45-0.17"/></g><g><path d="M52.82,39.44c1.03,0.85,1.4,3.75,0.72,5.89c-3.37,10.67-6.4,19.7-11.35,30.04c-1.45,3.03-0.49,4.25,1.47,4.33c10.84,0.43,18.96,1.05,29.44,3.78c5.98,1.55,12.27,4.02,17.89,7.93"/><path d="M54.69,42.07c6.68-0.95,22.21-3.14,26.69-3.43c3.45-0.22,4.43,1.81,4.14,4.54c-1.33,12.48-5.94,37.8-10.23,47.46c-2.3,5.17-4.97,4.12-7.54,1.33"/><path d="M68.32,43.35c0.45,0.88,0.63,2.39,0.13,4.22c-2.32,8.56-7.53,25.28-10.01,32.34"/><path d="M32.07,61.64c3.43,0.61,5.94,0.44,8.42,0.17c12.25-1.31,31.7-3.07,49-3.92c2.76-0.14,5.75-0.41,8.43,0.38"/></g></g></g></g></svg>