<svg class="voyager-component-icon icon" xmlns="http://www.w3.org/2000/svg" width="109" height="109" viewBox="6.721283874693659 7.395746268656714 92.43850746268653 92.43850746268653"><g style="fill:none;stroke:#000000;stroke-width:7.208507462686565;stroke-linecap:square;stroke-linejoin:miter;"><g><g><g><g><path d="M39.45,31.88c1.37,0.41,3.91,0.39,5.25,0.16c7.14-1.24,23.17-4.66,33.42-5.54c2.17-0.19,3.75-0.12,5.1,0.11"/></g><g><path d="M42.99,45.42c1.36,0.48,3.89,0.49,5.22,0.19c8.53-1.87,19.29-4.24,27.51-5.56c2.59-0.41,4.74-0.42,6-0.1"/></g><g><g><g><g><path d="M37.55,60.38c2.13,0.62,6.08,0.5,8.16,0.1c9.79-1.85,30.21-6.09,43.13-7.48c2.49-0.27,4.46-0.12,5.66,0"/></g></g><path d="M50.88,11c1.62,1.25,2.67,3.62,2.96,6.49C57.25,52,66.12,77.19,89.31,93.61c7.17,5.08,6.67,0.81,5.68-7.58"/></g><g><path d="M84.75,60.25c0.12,0.84-0.11,1.97-0.74,3.1C79,72.25,65,87.12,40.78,96.23"/></g><g><g><path d="M68.55,11.08c3.47,1.44,9.01,4.72,10.62,7.18"/></g></g></g></g></g></g></g></svg>