<svg class="voyager-component-icon icon" xmlns="http://www.w3.org/2000/svg" width="109" height="109" viewBox="16.41398009950247 14.933980099502495 81.7120398009951 81.7120398009951"><g style="fill:none;stroke:#000000;stroke-width:6.372039800995031;stroke-linecap:square;stroke-linejoin:miter;"><g><g><g><path d="M52.49,20.23c0.08,0.98,0.01,1.61-0.41,2.5c-2.06,4.33-5.67,9.7-12.45,15.89"/><path d="M75.38,18.12c5.6,3.78,12.41,11,14.33,14.87"/></g><g><path d="M63.45,35.38c0.17,1.12,0.09,2.03-0.4,3.03C58,48.75,50,58.75,36.98,67.71"/><path d="M64.28,40.1c7.48,6.69,15.41,13.36,21.79,17.74c2.75,1.88,5.18,3.03,8.87,4.47"/><g><path d="M46.99,69.23c0.78,0.79,1.15,1.76,1.38,2.86c0.8,3.8,2.39,12.21,3.32,17.3c0.39,2.15,0.67,3.71,0.71,4.07"/><path d="M48.99,69.96c10.88-1.08,21.01-2.11,27.54-2.92c4.03-0.5,5.65,1.15,4.67,5.1c-1.25,5.02-2.07,9.12-3.33,15.45"/><path d="M53.4,90.6c7.08-0.49,13.74-0.97,21.62-1.67c1.28-0.11,2.98-0.1,4.39-0.1"/></g></g></g></g></g></svg>