<svg class="voyager-component-icon icon" xmlns="http://www.w3.org/2000/svg" width="109" height="109" viewBox="9.404202142472574 9.275516554706517 89.11028130282094 89.11028130282094"><g style="fill:none;stroke:#000000;stroke-width:6.948966890586954;stroke-linecap:square;stroke-linejoin:miter;"><g><g><g><path d="M62.56,12.75c0.08,0.92,0.05,2.44-0.42,3.7c-2.9,7.84-9.02,23.8-22.68,35.13"/><path d="M63.29,16.24c5.21,6.14,16.77,18.36,24.08,25.52c1.73,1.69,4.63,4.25,7.67,5.8"/></g><g><path d="M52.75,46.93c1.17,0.48,3.24,0.45,4.5,0.35c5.51-0.43,13.63-1.47,18.62-1.98c1.37-0.14,2.26-0.3,3.88-0.17"/><path d="M45.99,63.16c2.14,0.72,4.27,0.63,6.02,0.51c9.12-0.67,22.7-2.39,30.65-2.74c1.69-0.07,2.96-0.08,3.81,0.11"/><g><path d="M65.04,49.05c1.08,1.08,1.46,2.32,1.46,4.05c0,18.93,0,31.76,0,36.52c0,10.8-5.96,1.92-7.4,0.72"/><path d="M50.97,73.25c0.1,0.95-0.01,1.98-0.51,2.8c-2.24,3.71-6.97,8.41-14.58,13.71"/><path d="M77.38,73.62c4.71,2.75,12.16,11.3,13.34,15.58"/></g></g></g></g></g></svg>