<svg class="voyager-component-icon icon" xmlns="http://www.w3.org/2000/svg" width="109" height="109" viewBox="9.58589983559066 11.45589983559082 86.91290613766687 86.91290613766687"><g style="fill:none;stroke:#000000;stroke-width:6.7776119465153055;stroke-linecap:square;stroke-linejoin:miter;"><g><g><g><g></g></g></g><g><g><path d="M53.5,19.99c1.25,0.64,3,0.52,4.08,0.32c5.17-0.94,20.79-4.69,23.39-5.37c2.22-0.58,3.55,1.62,2.37,3.02c-2.47,2.91-9.97,11.16-13.76,14.86"/><path d="M61.75,30.12c2.04,1.02,7.76,5.37,8.72,8.03"/></g><g><path d="M51.94,45.32c1.67,0.33,3.3,0.29,4.98,0c9.58-1.69,17.45-3.69,28.43-6.3c6.58-1.56,0.9,4.73-1.17,6.77"/><g><path d="M67.68,45.91c0.77,0.77,1.29,1.84,1.29,2.9c0,3.69-0.06,24.69-0.06,29.76"/><path d="M70.09,60.4c5.16-0.77,8.66-1.52,12.55-2.26c1.2-0.23,2.74-0.25,3.95,0.03"/></g><g><path d="M56.12,58.86c0.25,0.77,0.33,2.06,0.17,3.07C55.31,67.88,50.75,83,40.95,89.57"/><path d="M55.07,69.97C60.62,73.5,76.5,85,85.26,90.87c2.43,1.63,5.18,2.91,7.85,4.11"/></g></g></g></g></g></svg>