<svg class="voyager-component-icon icon" xmlns="http://www.w3.org/2000/svg" width="109" height="109" viewBox="12.637910447761271 10.377910447761195 86.48417910447758 86.48417910447758"><g style="fill:none;stroke:#000000;stroke-width:6.744179104477609;stroke-linecap:square;stroke-linejoin:miter;"><g><g><g><g><path d="M61.75,13.75c0.94,0.94,1.75,2.25,1.75,4s0,6.25,0,11"/><path d="M43.75,30.45c1.51,0.33,3.28,0.49,4.78,0.33c9.72-1.03,23.35-3.03,33.06-3.77c2.51-0.19,4.02,0.16,5.28,0.32"/></g><g><path d="M51.25,37.38c4.04,4.8,5.88,9.71,6.25,12.88"/><path d="M78.36,33.25c0.39,0.88,0.39,1.62,0.16,2.46c-0.95,3.46-4.69,12.32-6.02,15.04"/><path d="M38.25,56.8c2,0.39,4.35,0.39,6.32,0.14c16.3-2.07,28.68-3.69,44.19-4.25c3.32-0.12,5.32,0.19,6.99,0.38"/></g></g><g><path d="M49.5,69.14c0.68,0.68,0.88,1.36,1.04,2.46c0.75,5.06,1.63,12.11,2.51,18.64c0.15,1.13,0.3,2.22,0.45,3.25"/><path d="M51.63,70.53c7.59-1.1,18.75-2.53,28-3.26c4.66-0.37,5.62,1.73,4.87,4.38c-1.28,4.47-2.5,10.63-3.83,15.9"/><path d="M54.2,90.83c5.05-0.5,17.23-1.46,25.93-2.02c1.3-0.08,2.5-0.15,3.58-0.2"/></g></g></g></g></svg>