<svg class="voyager-component-icon icon" xmlns="http://www.w3.org/2000/svg" width="109" height="109" viewBox="26.511751707626846 7.662080457708463 59.96076002583002 59.96076002583002"><g style="fill:none;stroke:#000000;stroke-width:4.675839084583075;stroke-linecap:square;stroke-linejoin:miter;"><g><g><path d="M53.85,10c0.89,0.89,1.43,2.12,1.43,3.27c0,0.7-0.08,9.63-0.19,13.93"/><path d="M28.91,18.23c0.87,0.87,1.34,2.16,1.16,3.25c-0.57,3.52-0.57,4.15-1.19,8.2c-0.24,1.57,0.98,2.72,2.4,2.38C44.12,29,63.12,27,80.77,26.04"/><path d="M83.16,12.92c1.02,1.02,1.06,2.58,0.91,3.27c-0.73,3.41-1.64,6.64-2.55,10.47c-0.27,1.15-0.54,2.35-0.81,3.63"/></g><g><g></g></g></g></g></svg>