<svg class="voyager-component-icon icon" xmlns="http://www.w3.org/2000/svg" width="109" height="109" viewBox="13.294850746268656 6.834850746268657 80.9202985074627 80.9202985074627"><g style="fill:none;stroke:#000000;stroke-width:6.310298507462687;stroke-linecap:square;stroke-linejoin:miter;"><g><g><g><path d="M53.25,9.99c1.25,1.25,1.28,2.51,1.28,4.04c0,3.93-0.03,5.09-0.03,8.87"/><g><path d="M16.45,26.6c3.8,0.78,7.11,0.62,10.8,0.26c12.84-1.25,39.27-3.76,53.51-4.51c3.36-0.18,7.12,0.02,10.3,0.67"/></g></g><g><path d="M32.88,29.67c0.85,0.85,1.24,2.08,1.24,3.73c0,1.1,0,2.6,0,4.93c0,6.67,2.39,8.07,22.64,8.07c7.6,0,22.46-0.93,24.47-1.38"/></g></g></g></g></svg>