<svg class="voyager-component-icon icon" xmlns="http://www.w3.org/2000/svg" width="109" height="109" viewBox="14.934079601990046 6.414079601990046 78.63184079601997 78.63184079601997"><g style="fill:none;stroke:#000000;stroke-width:6.131840796019907;stroke-linecap:square;stroke-linejoin:miter;"><g><g><g><path d="M54.12,9.48c0.95,0.95,1.32,2.15,1.32,3.52c0,0.95,0.05,15.12,0.05,21.38"/><path d="M57.96,21.27C61,21,67.75,19.75,72.33,19.48c1.62-0.1,2.02-0.23,3.04,0"/></g><path d="M30.91,19.93c1.02,1.02,1.32,2.45,1.32,3.77c0,2.67-0.1,7.38-0.1,13.67"/><path d="M18,38.94c4.25,0.68,7.67,0.27,11.24-0.26c15.76-2.31,34.88-4.31,50.65-5.41c3.65-0.25,7.01-0.06,10.61,0.66"/></g></g></g></svg>