<svg class="voyager-component-icon icon" xmlns="http://www.w3.org/2000/svg" width="109" height="109" viewBox="19.004800995024876 8.374800995024877 73.74039800995021 73.74039800995021"><g style="fill:none;stroke:#000000;stroke-width:5.750398009950246;stroke-linecap:square;stroke-linejoin:miter;"><g><g><path d="M30.13,26.32c1.93,0.43,4.47,0.81,6.7,0.65c12.45-0.92,25.68-2.77,36.8-3.67c2.31-0.19,4.81-0.45,7.12-0.16"/><path d="M53,11.25c1.25,1.25,1.5,2.75,1.5,4.25c0,2.75-0.25,23.5-0.25,34.5"/><path d="M28.88,39.32c1.86,0.3,4.64,0.58,6.28,0.48c12.79-0.8,24.19-2.68,39.48-4.14c2.71-0.26,4.37,0.11,5.74,0.22"/><path d="M21.88,53.82c2.67,0.55,5.71,0.47,7.7,0.23c15.92-1.93,35.67-4.55,53.26-5.39c3.34-0.16,5.2-0.04,7.03,0.47"/></g></g></g></svg>