<svg class="voyager-component-icon icon" xmlns="http://www.w3.org/2000/svg" width="109" height="109" viewBox="21.322512437810943 8.172512437810944 66.10497512437811 66.10497512437811"><g style="fill:none;stroke:#000000;stroke-width:5.154975124378111;stroke-linecap:square;stroke-linejoin:miter;"><g><g><g><g><path d="M23.9,25.16c2.41,0.89,5.83,0.55,8.36,0.31c10.45-1,31.66-3.55,44.61-4.06c2.67-0.11,5.35-0.27,7.98,0.31"/><g><path d="M38.97,13.86c0.96,0.96,1.25,2.02,1.25,3.57c0,0.81-0.1,38.19-0.1,43.94"/></g></g><path d="M66.59,10.75c0.83,0.83,1,2,1,3.32c0,0.81-0.09,38.72-0.09,44.8"/></g><path d="M41.23,36.62c3.26-0.4,22.98-2.38,25.28-2.38"/><g><path d="M41.23,49.05c6.27-0.8,20.23-1.89,24.84-2.08"/></g></g><g><g><g></g></g></g></g></g></svg>