<svg class="voyager-component-icon icon" xmlns="http://www.w3.org/2000/svg" width="109" height="109" viewBox="15.099502487562184 5.099502487562194 80.80099502487549 80.80099502487549"><g style="fill:none;stroke:#000000;stroke-width:6.300995024875612;stroke-linecap:square;stroke-linejoin:miter;"><g><g><g><path d="M65.04,8.25c0,1-0.88,1.88-1.61,2.44c-4.86,3.75-14.4,7.94-30.18,9.82"/></g><g><path d="M21.75,31.87c2.46,0.82,6.23,0.13,8.76-0.15c11.52-1.31,34.14-3.24,46-4.25c2.28-0.19,4.74-0.27,6.99,0.18"/><path d="M52.97,19.66c0.87,0.87,1.1,1.84,1.1,3.1c0,0.69-0.06,12.62-0.06,21.24c0,2.58,0.04,4.86-0.01,6.13"/><path d="M46.25,30.78c0,0.97-0.67,2.18-1.59,3.51C38.73,42.83,30.8,50.74,18.25,57.1"/><path d="M58.25,30.31c3.61,2.6,16.46,12.23,24.58,18.01c3.37,2.4,6.29,3.93,9.92,5.49"/></g></g><g></g></g></g></svg>