<svg class="voyager-component-icon icon" xmlns="http://www.w3.org/2000/svg" width="109" height="109" viewBox="9.781915422885572 9.031915422885572 88.94616915422887 88.94616915422887"><g style="fill:none;stroke:#000000;stroke-width:6.936169154228858;stroke-linecap:square;stroke-linejoin:miter;"><g><g><g><path d="M52.81,12.5c1.28,1.28,1.87,3.25,1.87,5.35c0,3.05,0,3.65,0,7.65"/><path d="M29.25,28.45c2.19,0.62,5.12,0.5,7.4,0.27c8.67-0.91,26.08-3.46,36.1-4.24c2.68-0.21,5.33-0.35,8,0.1"/></g><g><path d="M38.25,33.25c2.91,4.85,4.24,9.81,4.5,13"/><path d="M68.26,28c0.37,1,0.12,1.75-0.24,2.77c-1.04,2.96-4.74,10.12-6.27,12.48"/><path d="M13.25,50.3c3.28,0.88,6.65,0.76,10,0.32c17-2.25,44.14-4.57,61.63-5.64c3.5-0.21,6.9-0.21,10.38,0.35"/></g></g></g></g></svg>