<svg class="voyager-component-icon icon" xmlns="http://www.w3.org/2000/svg" width="109" height="109" viewBox="9.032338308457717 6.03233830845771 88.9353233830846 88.9353233830846"><g style="fill:none;stroke:#000000;stroke-width:6.9353233830845795;stroke-linecap:square;stroke-linejoin:miter;"><g><g><g><g><path d="M31.81,22.93c2.56,0.45,5.15,0.37,7.59,0.12c10.55-1.08,20.28-1.83,29.98-2.33c2.46-0.13,4.91-0.38,7.33,0.18"/></g><g><g><path d="M29.25,36.67c2.5,0.46,4.82,0.32,6.89,0.16c8.57-0.66,22.85-2.2,34.24-2.83c2.38-0.13,4.95-0.31,7.28,0.3"/></g><g><g><path d="M15.88,51.73c3.37,0.77,6.58,0.49,9.63,0.24c14.6-1.19,39.41-4.1,56.62-4.6c3.33-0.1,6.73-0.29,10,0.46"/></g></g></g></g><g><g><g><path d="M54.5,9.5c0.5,1.5,0.59,2.55,0.04,4.9C50.5,31.62,36,62.88,12.5,78.5"/></g><path d="M58.25,40.75c5.36,4.43,19.27,19,27.52,26.49c3.16,2.87,5.35,4.38,8.73,6.26"/></g></g></g><g></g></g></g></svg>