<svg class="voyager-component-icon icon" xmlns="http://www.w3.org/2000/svg" width="109" height="109" viewBox="14.435889363957056 12.058912901892604 74.73836690086611 74.73836690086611"><g style="fill:none;stroke:#000000;stroke-width:5.828221272085889;stroke-linecap:square;stroke-linejoin:miter;"><g><g><path d="M18,20.7c2,0.55,3.77,0.75,6.32,0.27c5.65-1.07,12.79-2.92,15.59-3.44c3.82-0.71,5.61,1.23,5.61,4.1c0,4.36-0.67,18.84-0.67,28.08c0,9.42-5.96,2.8-7.61,1.3"/><path d="M20.75,28.75c3.46,0.84,7.75,3,9.81,4.74"/><path d="M17.35,50.73c1.15,0.4,2.32,0.46,3.46-0.32c0.9-0.62,7.88-5.84,11.68-8.8"/><path d="M56.5,17.95c2.12,0.67,4,0.89,6.57,0.52c4.41-0.65,13.35-2.54,17.05-3.25c4.12-0.8,6.16,0.26,6.14,4.41c-0.03,4.99-0.17,21.87-0.17,31.83c0,9.67-5.46,3.17-6.86,1.55"/><path d="M60,27.25c3.9,1.13,8.62,3,10.81,5.25"/><path d="M59.13,48.49c1.12,0.6,2.16,0.7,3.35-0.06c0.93-0.59,7.11-4.24,10.27-6.94"/></g><g></g></g></g></svg>