<svg class="voyager-component-icon icon" xmlns="http://www.w3.org/2000/svg" width="109" height="109" viewBox="11.055497512437812 13.275497512437813 82.69900497512435 82.69900497512435"><g style="fill:none;stroke:#000000;stroke-width:6.449004975124375;stroke-linecap:square;stroke-linejoin:miter;"><g><g><path d="M14.28,40.72c2.22,0.53,3.97,0.41,6.13,0.18c6.57-0.71,20.49-3.39,26.63-4.03c0.93-0.1,2.34-0.24,3.23,0"/><path d="M33.86,16.5c1.19,1.19,1.54,3,1.54,4.67c0,0.81-0.04,47.07-0.05,65.2c0,3.01,0,5.25,0,6.38"/><path d="M34.44,39.78c0,1.09-0.52,2.45-0.91,3.39C28.68,54.92,23.4,63.77,14.36,73.34"/><path d="M39.25,50.25c3.23,1.74,8.53,7.38,11.25,10.75"/></g></g></g></svg>