<svg class="voyager-component-icon icon" xmlns="http://www.w3.org/2000/svg" width="109" height="109" viewBox="8.854402985074623 13.604402985074538 90.42119402985081 90.42119402985081"><g style="fill:none;stroke:#000000;stroke-width:7.051194029850752;stroke-linecap:square;stroke-linejoin:miter;"><g><g><g></g></g><g><path d="M47.21,53.62c0.5,1.5,0.4,3.46-0.25,5.25c-2.08,5.76-4.71,12.33-9.21,19.63c-1,1.62-0.28,2.76,0.75,2.75C51,81.12,63,85.89,73.88,93.17c2.62,1.75,5.09,3.7,7.37,5.83"/><path d="M69.12,60.18c0.13,0.97-0.02,2.59-0.52,4C64.6,75.58,53,93,24,100.5"/><path d="M12.38,66.68c3.65,0.98,7.24,0.96,11,0.66c18.71-1.54,42.18-3.53,60.37-3.98c3.73-0.09,8.4-0.31,12,0.89"/></g></g></g></svg>