<svg class="voyager-component-icon icon" xmlns="http://www.w3.org/2000/svg" width="109" height="109" viewBox="11.743781094527394 18.493781094527307 83.5124378109453 83.5124378109453"><g style="fill:none;stroke:#000000;stroke-width:6.512437810945276;stroke-linecap:square;stroke-linejoin:miter;"><g><g><path d="M17.75,66.5c3.12,0.62,5.4,0.44,7.88,0.28c11.53-0.77,38.84-2.42,53.99-3.28c2.96-0.17,5.98-0.08,8.88,0.5"/><path d="M53,50.5c0.88,0.88,1.5,2.62,1.5,4c0,4.31,0,23,0,37c0,3.71,0.06,5.87,0,7.25"/><path d="M50.5,65.95c-0.5,2.3-1.79,3.76-3.64,5.9c-7.92,9.16-21.1,19.24-31.86,23.9"/><path d="M57,66c4.16,3.05,20.81,15.83,28.07,21.03c2.25,1.61,4.18,2.59,6.93,3.79"/></g></g></g></svg>