<svg class="voyager-component-icon icon" xmlns="http://www.w3.org/2000/svg" width="109" height="109" viewBox="26.991293532338247 47.491293532338304 51.51741293532345 51.51741293532345"><g style="fill:none;stroke:#000000;stroke-width:4.017412935323389;stroke-linecap:square;stroke-linejoin:miter;"><g><g></g><g><g><path d="M52.72,49.5c0.28,0.88,0.16,1.88-0.59,3.09C49.7,56.54,48.88,58,45.5,62"/></g><g><path d="M34.51,63.47c1.01,1.01,1.22,2.26,1.28,3.9c0.17,4.5,0.74,17.84,1.14,25.36c0.1,1.82,0.17,3.32,0.22,4.27"/><path d="M36.11,64.73c5.52-0.48,33.1-2.81,36.26-2.98C75,61.61,76.5,63,76.5,65.54c0,1.5-2,15.47-3.65,25.69c-0.28,1.72-0.53,3.32-0.72,4.71"/><path d="M37.22,78.82c7.41-0.45,31.48-1.91,36.79-1.91"/><path d="M38.16,95.19c8.59-0.44,22.46-1.56,33.12-1.88"/></g></g></g></g></svg>