<svg class="voyager-component-icon icon" xmlns="http://www.w3.org/2000/svg" width="109" height="109" viewBox="9.33176616915425 10.271766169154228 89.20646766169155 89.20646766169155"><g style="fill:none;stroke:#000000;stroke-width:6.956467661691543;stroke-linecap:square;stroke-linejoin:miter;"><g><g><path d="M24.27,24.64c0.03,0.65,0.07,1.68-0.06,2.61c-0.78,5.5-5.26,17.57-11.4,24.96"/><path d="M24.25,38.75c1,0.12,2.08-0.01,3.24-0.19c6.4-1,11.5-2.03,15.64-2.93c1.75-0.38,3.57-0.44,5.12-0.13"/><path d="M35.37,13.75c1.19,1.19,1.46,2.88,1.46,4c0,0.88-0.16,52.04-0.21,71.5c-0.01,3.29-0.01,5.67-0.01,6.75"/><path d="M14.83,70.21c1.28,0.62,2.49,0.68,3.86-0.21C19.84,69.27,39.15,56.56,44,53"/></g><g></g></g></g></svg>