<svg class="voyager-component-icon icon" xmlns="http://www.w3.org/2000/svg" width="109" height="109" viewBox="21.45407960199011 47.724079601990134 52.471840796019805 52.471840796019805"><g style="fill:none;stroke:#000000;stroke-width:4.091840796019893;stroke-linecap:square;stroke-linejoin:miter;"><g><g><g><g><g></g></g></g></g><g><path d="M39.88,68.27c1.35,0.39,3.35,0.41,4.74,0.24c7.26-0.88,15.19-1.76,22.01-2.35c1.77-0.15,3.49-0.39,5.25-0.08"/><path d="M49.17,68.93c0.08,0.61-0.02,1.6-0.4,2.44c-2.65,5.76-9.65,15.76-25.27,22.38"/><g><path d="M43.38,82.38c0.69,0.69,1.01,1.68,1.12,2.61c0.29,2.49,0.62,6.17,0.98,10.02c0.1,1.04,0.2,2.1,0.31,3.14"/><path d="M45.61,83.58c6.54-0.92,15.73-2.39,20.89-2.85c3.18-0.29,5.38,0.53,4.3,4.04c-0.83,2.69-1.55,5.61-2.25,9.2"/><path d="M46.86,96.36c3.93-0.24,12.77-0.93,19.4-1.25c1.71-0.08,3.27-0.14,4.57-0.16"/></g></g></g></g></svg>