<svg class="voyager-component-icon icon" xmlns="http://www.w3.org/2000/svg" width="109" height="109" viewBox="13.72017412935326 18.50570614128376 81.80965174129351 81.80965174129351"><g style="fill:none;stroke:#000000;stroke-width:6.3796517412935305;stroke-linecap:square;stroke-linejoin:miter;"><g><g></g><g><g><path d="M34.87,40.44c1.74,0.71,4.56,0.37,6.4,0.17c6.92-0.73,20.29-2.52,26.86-3.03c1.84-0.14,3.69-0.31,5.5,0.13"/><path d="M21.81,58.7c2.94,0.55,5.43,0.46,7.95,0.15c12.24-1.48,34.49-3.92,48.86-4.51c2.98-0.12,6.04-0.07,8.99,0.56"/></g><g><path d="M53.58,59.2c1.05,1.05,1.58,2.68,1.58,4.26c0,12.55,0.03,24.52,0.03,28.79c0,9.08-3.89,3.26-7.51,0.22"/><path d="M33.11,71.79c0.09,1.32-0.22,2.69-0.97,3.84c-3.27,4.99-7.89,11.24-15.23,17.94"/><path d="M73.38,70.62c7.25,4.62,15.12,12.25,18.96,20.29"/></g></g></g></g></svg>