<svg class="voyager-component-icon icon" xmlns="http://www.w3.org/2000/svg" width="109" height="109" viewBox="13.493781094527366 14.627184455130065 83.5124378109453 83.5124378109453"><g style="fill:none;stroke:#000000;stroke-width:6.512437810945276;stroke-linecap:square;stroke-linejoin:miter;"><g><g></g><g><g><path d="M52.25,51.75c1,0.75,1.5,2.25,1.5,4s0,3.5,0,8.25"/><path d="M28.5,66.96c2.2,0.62,5.14,0.42,7.39,0.18c8.66-0.92,25.94-3.26,35.62-4.07c2.67-0.22,5.33-0.19,7.99,0.26"/></g><g><path d="M38.5,74.5c3.25,3.63,5.38,7.5,6.5,11.75"/><path d="M68.75,67c0.62,1.38,0.5,2.75,0,4.25c-2.85,8.55-4.75,13-7.25,19.5"/><path d="M16.75,94.3c2.89,0.77,6.67,0.66,9.62,0.34c17.03-1.83,38.84-3.78,56.5-4.31c3.63-0.11,7.28,0.17,10.88,0.75"/></g></g></g></g></svg>