<svg class="voyager-component-icon icon" xmlns="http://www.w3.org/2000/svg" width="109" height="109" viewBox="16.560199004975157 25.053196123741085 76.67960199004972 76.67960199004972"><g style="fill:none;stroke:#000000;stroke-width:5.979601990049749;stroke-linecap:square;stroke-linejoin:miter;"><g><g><g></g></g><g><g><path d="M53,48.45c1.15,1.15,1.5,2.67,1.5,3.68c0,1.88,0,3.22,0,5.75"/><path d="M22.75,61.64c3.38,0.61,6.64,0.31,10.13-0.17c13.24-1.84,31.03-3.83,43.98-4.48c2.78-0.14,6.18-0.7,8.89,0.2"/></g><g><path d="M49.14,60.42c0,1.53-0.8,2.6-1.67,3.76c-4.8,6.44-14.59,17.57-27.92,24.39"/><path d="M40.62,77.2c0.84,0.84,0.95,1.88,0.94,2.66c-0.03,9.84-0.06,15.29-0.06,16.95s1.12,2.61,2.53,1.36c1.42-1.25,13.05-9.36,14.94-10.61"/><path d="M73.86,63.96c0.03,0.24-0.15,1.17-0.34,1.48c-1.18,1.99-4.87,4.84-10.89,8.81"/><path d="M48.51,67.91c2.86,0.72,21.75,15.27,31.81,21.86c3.15,2.06,6.93,4.23,9.93,5.15"/></g></g></g></g></svg>