<svg class="voyager-component-icon icon" xmlns="http://www.w3.org/2000/svg" width="109" height="109" viewBox="17.66885572139303 20.388061338553598 74.66228855721401 74.66228855721401"><g style="fill:none;stroke:#000000;stroke-width:5.822288557213936;stroke-linecap:square;stroke-linejoin:miter;"><g><g></g><g><g><path d="M37.25,44.94c2.02,0.19,3.52,0.17,4.63,0.07c7.49-0.64,15.49-2.26,22.44-2.6c1.85-0.09,2.97,0.15,3.9,0.31"/></g><g><g><path d="M34.49,54.93c0.73,0.73,1.11,1.45,1.23,2.06c0.67,3.41,1.85,8.26,2.82,13.36c0.17,0.9,0.33,1.81,0.49,2.72"/><path d="M36.16,56.24c10.21-1.11,25.93-3.1,31.12-3.2c2.15-0.04,3.59,1.86,3.11,3.77c-0.87,3.43-1.64,6.2-3.1,10.67"/><path d="M39.93,70.89c6.62-0.54,18.9-1.88,26.32-2.43c1.35-0.1,2.54-0.17,3.5-0.21"/></g><path d="M37,78.25c2.29,1.96,5.86,6.96,6.43,10.01"/><path d="M67.5,74.47c0.25,0.78,0.22,1.73-0.03,2.44c-0.85,2.76-3.57,6.82-7.48,10.77"/><path d="M20.58,91.44c3,0.83,8.5,0.77,11.49,0.58c15.12-0.98,30.46-2.24,46.86-2.48c4.99-0.07,7.99,0.4,10.49,0.82"/></g></g></g></g></svg>