<svg class="voyager-component-icon icon" xmlns="http://www.w3.org/2000/svg" width="109" height="109" viewBox="19.908034825870665 33.15803482587061 69.55393034825873 69.55393034825873"><g style="fill:none;stroke:#000000;stroke-width:5.4239303482587085;stroke-linecap:square;stroke-linejoin:miter;"><g><g><g><path d="M32.89,41.39c0.67,0.91,1.16,2.09,1.16,3.3c0,0.99-0.15,24.66-0.08,34.05c0.02,2.14,0.04,3.54,0.08,3.76"/><path d="M34.75,42.49c9.25-0.77,34.46-3.1,37.37-3.25c2.9-0.15,4.63,1.26,4.45,3.97c-0.21,3.08-0.64,24.88-0.79,33.54c-0.04,1.97-0.06,3.73-0.06,3.9"/><path d="M35.11,54.59c9.26-0.71,31.26-2.34,40.03-2.72"/><path d="M35.42,66.76c10.7-0.76,28.7-2.13,39.27-2.57"/><path d="M35.16,79.89c9.34-0.64,30.46-2.27,39.27-2.57"/></g><g><path d="M41.62,85c0.23,1.71-0.49,2.79-1.44,3.6C37.3,91.03,28.4,97,22.62,99.88"/><path d="M67.5,84.75c7.62,3.98,17.17,11.76,19.25,15.25"/></g></g></g></g></svg>