<svg class="voyager-component-icon icon" xmlns="http://www.w3.org/2000/svg" width="109" height="109" viewBox="12.209054726368159 20.969054726368064 81.58189054726373 81.58189054726373"><g style="fill:none;stroke:#000000;stroke-width:6.361890547263686;stroke-linecap:square;stroke-linejoin:miter;"><g><g></g><g><path d="M36.16,48.14c1.49,0.55,3.75,0.37,5.33,0.24c9.39-0.75,21.27-2.13,29.53-3c1.72-0.18,3.37-0.27,5.08,0.1"/><path d="M32.2,58.24c0.78,0.78,1.18,1.39,1.4,2.29c0.71,2.92,1.91,7.97,3.01,13.5c0.26,1.32,0.52,2.66,0.77,3.98"/><path d="M33.78,59.1c11.35-1.35,32.76-3.75,39.72-3.75c2.57,0,3.58,1.68,3.21,4.01c-0.5,3.1-1.39,7.45-2.71,11.96c-0.42,1.43-0.89,2.88-1.4,4.3"/><path d="M36.44,67.12c8.81-1,24-3.32,38.49-3.32"/><path d="M38.19,75.63c8.94-0.75,22.53-2.5,34.17-2.5"/><path d="M15.39,86.57c2.88,1.2,6.94,0.73,9.98,0.45c16.6-1.54,38.7-3.37,54.63-4.01c3.47-0.14,7.23-0.18,10.61,0.67"/><path d="M53.45,36.88c1.02,1.02,1.18,2.24,1.18,3.42c0,4.42-0.05,47.32-0.05,51.94c0,3.52-0.04,6.09-0.07,7.13"/></g></g></g></svg>