<svg class="voyager-component-icon icon" xmlns="http://www.w3.org/2000/svg" width="109" height="109" viewBox="7.739253731343252 9.764253731343286 86.32149253731343 86.32149253731343"><g style="fill:none;stroke:#000000;stroke-width:6.731492537313433;stroke-linecap:square;stroke-linejoin:miter;"><g><g><path d="M57.55,13.13c1.03,1.03,1.21,2.37,1.21,3.65c0,0.78-0.01,5.21-0.01,7.21"/><path d="M27.74,26.98c2.51,0.77,5.17,0.69,7.64,0.38c16.61-2.1,34-3.8,46.62-4.65c2.7-0.18,5.22-0.22,7.88,0.37"/><path d="M30.26,27.75c0.87,0.87,1.17,2.25,1.16,3.88c-0.04,19.99,0.46,43.87-15.76,61.09"/><path d="M15.88,37.25c2.5,1.59,6.47,6.53,7.1,9"/><path d="M11.92,64.72c1.2,0.9,2.96,0.76,4.34-0.14c4.73-3.08,5.61-3.95,11.1-7.83"/></g><g><g></g></g></g></g></svg>