<svg class="voyager-component-icon icon" xmlns="http://www.w3.org/2000/svg" width="109" height="109" viewBox="6.006119402985095 9.671119402985077 91.7877611940298 91.7877611940298"><g style="fill:none;stroke:#000000;stroke-width:7.157761194029847;stroke-linecap:square;stroke-linejoin:miter;"><g><g><g><path d="M14.02,25.82c0.68,0.23,1.93,0.23,2.62,0.23c8.86-0.05,24.76-2.8,31-3.14c1.14-0.06,1.82,0.11,2.39,0.22"/><path d="M31.08,13.25c0.72,0.5,1.15,2.25,1.3,3.25c0.14,1-0.14,20-0.14,31"/><path d="M16.02,36.9c1.5,0.22,3,0.25,4.5,0.09c6.57-0.42,16.99-2.1,22.76-2.69c1.42-0.24,2.84-0.24,4.25,0"/><path d="M11.55,49.82c1.56,0.26,3.13,0.33,4.7,0.21c8.65-0.3,22.86-2.5,31.26-3.4c1.46-0.3,2.91-0.3,4.35,0"/></g><g><path d="M29.18,52.75c0.04,0.57,0.09,1.46-0.09,2.27c-1.04,4.79-6.98,15.29-15.12,21.73"/><path d="M29.2,63c1.05,0.25,2.06,0.28,2.83,0.07c2.73-0.75,9.61-2.2,11.74-2.93c1.75-0.6,2.64,0.58,1.86,2.97c-3,9.2-19.98,29.86-31.71,34.77"/><path d="M20.54,69.75C31.33,73.69,67.88,90.27,81.2,94.5c3.97,1.26,7.18,1.88,11.05,2.25"/></g></g></g></g></svg>