<svg class="voyager-component-icon icon" xmlns="http://www.w3.org/2000/svg" width="109" height="109" viewBox="9.681199598228778 8.188687648603604 91.3371873652252 91.3371873652252"><g style="fill:none;stroke:#000000;stroke-width:7.122624702792791;stroke-linecap:square;stroke-linejoin:miter;"><g><g><g><g><path d="M23.38,27.38c1.83,0.49,3.91,0.28,5.77,0.12c6.7-0.57,15.46-2.16,21.3-2.68c1.62-0.14,2.62-0.12,3.43,0.01"/><path d="M39.82,12.37c0.91,0.91,1.47,2.76,1.47,4.26c0,3.75-0.04,15.87-0.04,23.25"/></g><g><g><path d="M15.88,42.73c3.35,1.2,8.18,0.73,11.62,0.24C48.21,40,69.7,37.18,85,36.24c3.11-0.19,6.07-0.33,9.13,0.33"/></g></g></g></g><g><g><g><path d="M60.25,11.75c1.43,1.81,1.89,3.57,2.28,7.47c3.09,31.03,9.09,57.03,27.81,74.72c4.97,4.7,4.83,0.78,4.11-7.26"/></g><g><path d="M82.98,47.89c0.08,1,0.01,2.34-0.4,3.75c-2.63,9.07-11.26,27.99-26.02,39.32"/></g><g><g><path d="M74.5,13.25c3.42,2.25,8.9,7.39,10.5,11.25"/></g></g></g></g></g></g></svg>