<svg class="voyager-component-icon icon" xmlns="http://www.w3.org/2000/svg" width="109" height="109" viewBox="11.442789667421259 21.524639449971126 68.6625708826077 68.6625708826077"><g style="fill:none;stroke:#000000;stroke-width:5.35442066515748;stroke-linecap:square;stroke-linejoin:miter;"><g><g><path d="M14.12,25.37c0.88,0.88,1.06,2.27,1.06,3.76c0,1.2,0.11,37.19,0.05,52.12c-0.01,3.73-0.02,6.11-0.02,6.26"/><path d="M15.72,26.95c1.66-0.05,12.54-2.1,16.39-2.68c2.77-0.41,3.51,1.06,3.51,3.6c0,6,0.01,32.5,0.01,49.62c0,2.77-0.02,4.88-0.01,7"/><path d="M16.44,45.23c5.93-0.73,12.44-1.73,17.7-2.21"/><path d="M16.59,63c6.78-1,9.78-1.38,17.73-2.19"/><path d="M16.33,84.17c4.73-0.67,11.3-1.67,18.18-1.94"/></g><g></g></g></g></svg>