<svg class="voyager-component-icon icon" xmlns="http://www.w3.org/2000/svg" width="109" height="109" viewBox="7.211517377826155 9.185255361628643 92.73696524434769 92.73696524434769"><g style="fill:none;stroke:#000000;stroke-width:7.231781693366563;stroke-linecap:square;stroke-linejoin:miter;"><g><g><g><path d="M17.14,18.79c1.1,1.1,1.18,2.59,1.18,4.15c0,0.7-0.06,43.44-0.07,66.31c0,2.63,0,4.99,0,7"/><path d="M18.91,20.12c3.84-0.75,13.24-2.6,17.65-3.56c2.56-0.56,3.96,0.16,4.01,2.93c0.07,3.59,0.06,13.15,0.06,21.14c0,1.04-0.12,3.24-0.12,3.93"/><path d="M19.27,33.18c7.23-1.55,13.86-2.8,20.46-3.64"/><path d="M19.41,45.75c6.69-1.31,13.87-2.56,19.78-3.16"/></g><g><path d="M63.37,14.51c1,1,1.13,2.11,1.13,3.24c0,0.63,0.11,13.12,0.11,20.25c0,2.45-0.06,4.38-0.06,4.49"/><path d="M65.8,16.11c3.42-0.64,15.26-2.67,19.84-3.22c3.02-0.36,4.36,0.3,4.36,3.35c0,20.42,0.02,61.68,0.02,76.26c0,11.99-6.36,1.9-7.75,0.62"/><path d="M65.74,27.72c6.01-0.97,19.34-2.99,23.15-2.99"/><path d="M65.8,39.51c7.7-1.01,14.95-2.01,23.05-2.56"/></g></g><g><g></g></g></g></g></svg>