<svg class="voyager-component-icon icon" xmlns="http://www.w3.org/2000/svg" width="109" height="109" viewBox="9.178289932683356 8.428289932683356 91.6038581970622 91.6038581970622"><g style="fill:none;stroke:#000000;stroke-width:7.14342013463329;stroke-linecap:square;stroke-linejoin:miter;"><g><g><path d="M35.45,12c0.3,1.25,0.13,1.87-0.5,3.4c-0.96,2.35-1.83,4.73-5.71,10.09"/><path d="M21.65,25.81c1.02,1.02,1.18,2.43,1.25,4.1C24.5,68.75,20.5,85,14,95.72"/><path d="M23.75,28.73c5.25-1.23,13.23-2.64,18.01-3.41c3.62-0.58,5.21,0.58,5.19,4.92c-0.05,8.81-0.4,58.1-0.4,61.21c0,10.04-5.4,2-6.2,1.34"/><path d="M31.4,36.6c1.63,1.83,5.44,6.7,5.84,8.83"/><path d="M33.05,57.65c1,1.67,1.2,2.67,1.2,4.01c0,4.42,0.16,10.09,0.12,14.83c-0.01,1.51-0.02,2.92-0.02,4.18"/><path d="M12.75,59.96c1.02,1.02,1.86,1.15,3.25,0.83c1.39-0.32,31-12.05,35.25-13.73"/></g><g><g></g></g></g></g></svg>