<svg class="voyager-component-icon icon" xmlns="http://www.w3.org/2000/svg" width="109" height="109" viewBox="7.8324987426377985 13.642498742637798 79.69826754175998 79.69826754175998"><g style="fill:none;stroke:#000000;stroke-width:6.215002514724402;stroke-linecap:square;stroke-linejoin:miter;"><g><g><g><g><path d="M10.94,37.3c0.82,0.82,1.06,1.7,1.2,2.96c0.53,4.69,1.17,11.83,1.79,18.01c0.2,2.02,0.4,3.94,0.59,5.63"/><path d="M13.25,39.45c6.6-0.92,18.66-2.65,25.13-3.25c3.2-0.29,5.36,0.72,4.71,4.19c-0.93,4.96-1.52,8.97-2.87,17.22"/><path d="M15.29,61.04c6.86-0.77,14.88-1.44,21.09-1.93c2.25-0.18,4.26-0.33,5.9-0.45"/></g><g><path d="M25.17,16.75c1.35,1.35,1.51,2.62,1.51,4.97c0,4.78,0.05,47.78,0.05,61.16"/></g></g><path d="M11.57,89.1c1.31,1.4,2.56,1.4,4.27,0.56c5.06-2.47,20.44-10.21,23.66-12.04"/><path d="M36.25,69.75c2.93,2.5,7.57,10.26,8.31,14.14"/></g></g></g></svg>