<svg class="voyager-component-icon icon" xmlns="http://www.w3.org/2000/svg" width="109" height="109" viewBox="13.731766169154229 11.33176616915423 84.84646766169149 84.84646766169149"><g style="fill:none;stroke:#000000;stroke-width:6.61646766169154;stroke-linecap:square;stroke-linejoin:miter;"><g><g><g><path d="M34.51,14.64c0.04,0.35-0.29,1.21-0.58,1.65C30.75,21,26,24.5,18.89,29.44"/></g><path d="M17.04,30.59c1,1,1.16,2.28,1.16,3.95c0,0.78-0.03,36.97-0.05,52.08c-0.01,3.81-0.01,6.02-0.02,6.25"/><path d="M19.38,36c6.24-0.88,14.15-2.39,18.73-3.18c3.12-0.54,4.52,0.1,3.9,3.56c-0.64,3.63-1.42,7.69-2.74,12.77"/><path d="M19.42,52.66c7.37-1,12.71-1.74,17.32-2.26c1.73-0.2,3.25-0.36,4.55-0.5"/><path d="M19.11,69.61c8.02-1.73,16.72-3.35,20.06-3.89c2.84-0.46,4.15,1.33,3.78,3.08c-0.94,4.46-1.05,5.98-2.6,12.75"/><path d="M19.5,85.5c4.39-0.43,12.23-1.47,18.72-2.18c1.59-0.17,3.1-0.33,4.45-0.45"/></g><g></g></g></g></svg>