<svg class="voyager-component-icon icon" xmlns="http://www.w3.org/2000/svg" width="109" height="109" viewBox="11.242412978649604 17.670992248214976 70.72399654757487 70.72399654757487"><g style="fill:none;stroke:#000000;stroke-width:5.515174042700792;stroke-linecap:square;stroke-linejoin:miter;"><g><g><g><path d="M15.13,22.97c1.2,0.24,3.41,0.36,4.61,0.24C26.5,22.5,34,21,41.54,20.47c2-0.14,3.21,0.11,4.21,0.23"/></g><g><g><path d="M15.75,35.34c0.8,0.43,1.34,1.3,1.53,2.15c0.96,4.16,1.84,8.43,2.68,12.77c0.22,1.16,0.44,2.32,0.66,3.49"/><path d="M18.3,36.44c8.95-1.56,20.18-3.2,25.07-3.7c2.02-0.2,3.38,0.81,2.94,3.03c-0.78,3.99-1.65,7.07-2.68,11.89"/><path d="M20.85,51.31c5.59-0.43,12.99-1.87,20.63-2.75c1.24-0.14,2.49-0.27,3.73-0.38"/></g><path d="M22.12,61.38c1.9,2.18,4.9,8.98,5.38,12.38"/><path d="M42.24,55c0.45,1.22,0.5,1.99,0.27,2.95c-1.4,5.81-2.76,9.21-5.25,15.05"/><path d="M14,84.87c1.75,0.88,3.25,1.13,5.46,0.07c8.18-3.91,18.88-9.38,26.79-13.94"/></g></g><g><g></g></g></g></g></svg>