<svg class="voyager-component-icon icon" xmlns="http://www.w3.org/2000/svg" width="109" height="109" viewBox="6.204900497512437 11.704900497512433 88.10019900497522 88.10019900497522"><g style="fill:none;stroke:#000000;stroke-width:6.870199004975134;stroke-linecap:square;stroke-linejoin:miter;"><g><g><g><path d="M40.5,15.14c0,0.73-0.27,1.43-1.01,2.07c-4.98,4.29-13.72,8.12-25.51,10.55"/></g><g><path d="M15.42,34.44c2.1,1.93,5.27,7.37,5.79,10.37"/><path d="M45.7,30.05c0.1,0.66,0.01,1.29-0.29,1.88c-0.97,2.61-2.43,5.59-4.99,8.95"/><path d="M11.5,50.85c2,0.65,4.47,0.5,6.23,0.27c6.26-0.81,17.57-2.47,24.52-2.98c1.86-0.14,4.19-0.55,6,0.09"/><path d="M31.16,25.29c0.77,0.77,1,1.71,1,3.17c0,8.03,0,42.33-0.03,60.53c-0.01,3.44-0.01,6.04-0.01,7.38"/><path d="M31.16,50.65c0,1.23-0.23,2.3-1.12,4C24.12,65.88,17.88,75.5,9.64,81.99"/><path d="M34.38,57c2.71,1.27,8.75,7.91,9.8,10.61"/></g></g><g><g></g></g></g></g></svg>