<svg class="voyager-component-icon icon" xmlns="http://www.w3.org/2000/svg" width="109" height="109" viewBox="7.837164179104478 16.707164179104478 74.70567164179104 74.70567164179104"><g style="fill:none;stroke:#000000;stroke-width:5.825671641791044;stroke-linecap:square;stroke-linejoin:miter;"><g><g><path d="M26.62,19.62c0.38,1.13,0.82,2.99,0.63,4.63c-0.97,8.06-2.62,28.25-6.52,40.18c-0.66,2.02,0.38,2.74,0.88,2.87c5.2,1.37,10.33,3.88,14.91,7.68c1.94,1.61,3.78,3.44,5.48,5.52"/><path d="M40.26,38.25c0.07,1.19,0.11,3.09-0.14,4.82C38.12,57.04,31.84,78.1,17.5,88.5"/><path d="M10.75,54.17c0.38,0.88,1.91,1.39,3.65,0.77c7.47-2.69,16.47-5.69,30.6-10.96"/></g></g></g></svg>