<svg class="voyager-component-icon icon" xmlns="http://www.w3.org/2000/svg" width="109" height="109" viewBox="7.568676347055609 7.628676347055592 90.82453604022129 90.82453604022129"><g style="fill:none;stroke:#000000;stroke-width:7.082647305888815;stroke-linecap:square;stroke-linejoin:miter;"><g><g><g><path d="M31,11.17c1.1,1.1,1.75,2.58,1.76,4.5c0.03,4.36-0.26,7.73-0.1,11.42"/><path d="M11.55,29.96c1.95,0.29,3.94,0.2,5.96-0.03c7.74-0.89,18.93-2.6,29.49-3.21c1.69-0.1,3.3-0.08,4.96,0.24"/></g><g><g><path d="M18.56,42.22c0.67,0.67,1.31,1.65,1.52,2.54c0.61,2.55,1.68,6.57,2.51,11.17c0.24,1.31,0.46,2.66,0.67,4.05"/><path d="M20.44,43.02c7.31-1.27,19.47-3.14,23.73-3.67c1.77-0.22,3.65,1.3,2.94,3.83c-0.79,2.81-1.99,6.77-3.1,10.67"/><path d="M24.05,57.02c7.41-1.08,11.31-1.36,17.97-2.16c1.16-0.14,2.37-0.04,3.66-0.2"/></g><g><path d="M32.02,59.04c1.03,1.03,1.43,2.71,1.43,4.44c0,4.83-0.08,23.37-0.08,27.53c0,8.73-5.44,0.26-6.54-0.97"/><path d="M20.58,69.08c0.06,0.95-0.01,1.68-0.31,2.59c-1.4,4.17-4.34,10.59-9.16,16.39"/><path d="M42.07,65.58c2.32,2.29,5.52,8.69,6.1,12.26"/></g></g></g><g><g><g></g></g></g></g></g></svg>