<svg class="voyager-component-icon icon" xmlns="http://www.w3.org/2000/svg" width="109" height="109" viewBox="9.961268656716417 10.651268656716418 78.44746268656722 78.44746268656722"><g style="fill:none;stroke:#000000;stroke-width:6.117462686567167;stroke-linecap:square;stroke-linejoin:miter;"><g><g><g><g><path d="M32.43,13.71c0.87,0.87,1.07,1.92,1.07,3.42c0,3.05-0.16,5.82-0.07,8.4"/><path d="M16.4,28.52c1.93,0.22,3.5,0.2,5.47-0.15c6.45-1.15,15.89-2.49,22.51-3.06c1.72-0.15,3.33-0.1,5.03-0.06"/></g><g><path d="M23.62,34.5c1.67,1.99,3.22,7.81,3.6,10.05"/><path d="M42.43,28.32c0.32,0.8,0.33,2.1,0.2,2.52c-1.23,4.32-3.14,9.41-5.1,12.84"/><path d="M13.02,49.27c2.04,0.15,4.08,0.24,6.12-0.1c8.86-1.48,18.77-3.34,26.73-3.98c1.7-0.14,4.14-0.31,5.64,0.04"/></g></g><g><path d="M19.11,57.16c0.62,0.62,0.99,1.43,1.16,2.35c0.56,3.02,1.93,16.1,2.57,22.71c0.21,2.14,0.34,3.6,0.34,3.82"/><path d="M21.19,58.63c2.16-0.22,15.36-2.32,20.56-3.22c2.92-0.51,4.06-0.09,3.96,3.09c-0.11,3.65-0.45,15.14-0.88,21.28c-0.15,2.14-0.28,3.63-0.37,3.9"/><path d="M22.86,70.34c7.02-1.34,17.82-2.92,21.36-3.11"/><path d="M24.2,83.55c5.3-0.55,12.42-1.67,19.25-2.39"/></g></g><g><g></g></g></g></g></svg>