<svg class="voyager-component-icon icon" xmlns="http://www.w3.org/2000/svg" width="109" height="109" viewBox="5.594973495473014 11.618335066236458 85.27715035139808 85.27715035139808"><g style="fill:none;stroke:#000000;stroke-width:6.650053009053979;stroke-linecap:square;stroke-linejoin:miter;"><g><g><path d="M16.24,17.12c0.76,0.63,1.5,1.69,1.49,2.88c-0.04,7.8-0.57,24.25-0.67,34.5c-0.02,2.35,0.09,3.32-0.31,5.75"/><path d="M18.23,18.15c4.39-0.65,17.37-2.21,22.41-2.87c1.63-0.21,3.26-0.51,4.9-0.21"/><path d="M30.31,17.82c0.49,0.49,0.95,1.46,0.95,2.49c0,6.17-0.25,26.44-0.25,35.66"/><path d="M18.41,32.09c5.46-0.51,16.44-2.11,21.13-2.77c1.19-0.17,3.34-0.57,4.56-0.25"/><path d="M18.51,44.88c5.61-0.52,16.7-1.95,21.02-2.57c1.15-0.17,3.05-0.71,4.17-0.2"/><path d="M17.74,59.65c6.17-1.41,20.29-4.04,23.68-4.63c4.33-0.76,4.19,2.81,3.95,6.45C44.7,71.81,42.59,83.13,39.75,90c-3,7.25-5.62,1.62-7.21-0.86"/><g><path d="M9.79,73.5c0.28,6.41-0.57,12.04-0.87,13.32"/><path d="M17.5,71.5c1.08,2.1,2,4.75,2.25,8.5"/><path d="M25.44,68.22C26,69.25,28,72.64,28.25,76"/><path d="M32.75,65.25c1.25,2.01,3.3,4.09,3.75,6.75"/></g></g><g><g></g></g></g></g></svg>