<svg class="voyager-component-icon icon" xmlns="http://www.w3.org/2000/svg" width="109" height="109" viewBox="9.182114427860693 8.182114427860693 91.50577114427867 91.50577114427867"><g style="fill:none;stroke:#000000;stroke-width:7.135771144278613;stroke-linecap:square;stroke-linejoin:miter;"><g><g><g><path d="M32,11.75c0.05,0.58,0.05,1.56-0.35,2.31C28.5,20,23.88,26.62,15.25,34.5"/><path d="M28.75,25.25c0.65,0.05,1.91-0.07,3.5-0.29c4.84-0.68,11.19-2.31,14.5-3.11c1.77-0.43,3.44-0.71,5.25-0.35"/></g><path d="M12.75,40.64c2.62,0.61,4.97,0.19,7.37-0.17c9-1.35,20.98-3.03,30-4.1c2.3-0.27,4.12-0.67,6.37-0.12"/><g><g><path d="M35.32,27.25c0.43,1.5,0.28,2.56-0.26,4.34c-3.31,10.91-9.81,23.16-21.34,35.48"/><path d="M23.92,55.78c0.65,0.65,0.67,1.43,0.67,2.71c0,6.29-0.05,22.16-0.07,31.51c-0.01,2.73-0.01,4.91-0.01,6.12"/></g><path d="M42.98,42.5c0.05,0.58-0.01,1.34-0.16,1.84c-0.95,3.17-1.16,3.63-3.35,7.49"/><path d="M24.15,55.55c4.77-0.62,18.89-2.45,25.35-3.29c1.72-0.22,2.98-0.4,3.53-0.49"/><path d="M39.08,55.2c0.67,0.67,1.02,1.8,1.02,3.02c0,5.46-0.1,21.98-0.1,31.15"/><path d="M25.72,66.9c4.44-0.51,16.83-2.03,22.82-2.74c1.71-0.2,2.98-0.36,3.52-0.44"/><path d="M25.53,77.97c4.5-0.41,16.04-1.49,22.27-2.38c2.1-0.3,3.67-0.52,4.32-0.6"/><path d="M25.51,92.12c4.64-0.61,15.65-1.64,22.04-2.28c1.94-0.19,3.38-0.35,3.98-0.45"/></g></g></g></g></svg>