<svg class="voyager-component-icon icon" xmlns="http://www.w3.org/2000/svg" width="109" height="109" viewBox="15.996206921862292 13.986206921862344 85.20604721257288 85.20604721257288"><g style="fill:none;stroke:#000000;stroke-width:6.6445082688703625;stroke-linecap:square;stroke-linejoin:miter;"><g><g><path d="M45.17,20.87c2.58,0.76,5.48,0.28,7.58,0.01c7.04-0.91,20.1-2.54,28.51-3.41c2.37-0.24,5.49-0.22,7.11,0.11"/><g><path d="M38.38,46.53c2.66,0.94,6.27,0.57,9,0.29c11.84-1.24,30-3.25,42.74-3.86c2.62-0.13,5.17-0.23,7.76,0.32"/><path d="M65.56,22.88c1.03,1.03,1.79,2.62,1.79,4.58c0,3.47-0.06,43.64-0.08,60.91c0,3.88-0.01,6.61-0.01,7.5"/></g></g></g></g></svg>