<svg class="voyager-component-icon icon" xmlns="http://www.w3.org/2000/svg" width="109" height="109" viewBox="0 0 109 109"><g style="fill:none;stroke:#000000;stroke-width:8.5;stroke-linecap:square;stroke-linejoin:miter;"><g><g></g><g><g><path d="M46.35,35.08c2.65,0.54,4.32,0.46,6.65-0.03c7.49-1.56,20.68-3.82,27.89-4.77c2.23-0.3,4.73-0.28,6.45,0.12"/><path d="M63.59,13.34c1.29,1.29,1.74,2.91,1.74,4.36c0,0.93,0.03,26.18,0.03,32.49"/></g><g><path d="M49.48,53.7c1.58,0.39,3.52,0.48,6.67-0.11c3.15-0.59,20.2-4.77,22.32-5.5c2.78-0.97,4.03,1.41,2.8,3.93C73.12,68.71,60.75,86.5,40.09,95.07"/><path d="M47.44,59.93c5.31,0.32,22.68,17.94,37.29,28.53c2.6,1.88,5.26,3.28,8.26,4.28"/></g></g></g></g></svg>