<svg class="voyager-component-icon icon" xmlns="http://www.w3.org/2000/svg" width="109" height="109" viewBox="0 0 109 109"><g style="fill:none;stroke:#000000;stroke-width:8.5;stroke-linecap:square;stroke-linejoin:miter;"><g><g></g><g><g><path d="M64.68,14.25c1.22,1.22,1.51,2.76,1.51,3.89c0,4.16-0.06,5.48-0.06,9.23"/><path d="M41.96,30.55c3.04,0.58,5.45,0.4,8.45,0.03c8.73-1.09,22.23-3.36,32.6-4.14c2.52-0.19,5-0.31,7.56,0.37"/></g><g><g><path d="M54.52,42.92c0.91,0.91,0.98,2.19,0.99,4.02c0.24,30.31-6.13,39.93-18.11,48.81"/></g><path d="M57.25,45.69c5.12-1.32,9.5-2.57,14.36-3.9c1.92-0.53,3.71,0.58,3.71,2.66c0,2.4-0.02,32.29-0.02,37.33c0,9.22,1.95,10.45,9.62,10.45c9.21,0,10.33-1.23,10.33-8.27"/></g></g></g></g></svg>