<svg class="voyager-component-icon icon" xmlns="http://www.w3.org/2000/svg" width="109" height="109" viewBox="0 0 109 109"><g style="fill:none;stroke:#000000;stroke-width:8.5;stroke-linecap:square;stroke-linejoin:miter;"><g><g><path d="M13.38,34.71c0.89,0.89,1.19,1.92,1.19,3.45c0,4.84-0.04,15.93-0.06,25.22c0,2.18-0.01,4.25-0.01,6.13"/><path d="M15.64,36.77c3.63-1.01,18.32-3.97,22.98-4.91c2.38-0.48,4.11,1.02,4.11,3.64c0,7.95,0.18,17.43-0.9,25.12c-0.83,5.88-4.96,1.31-5.91-0.72"/><path d="M25.87,14.63c1.25,1.25,1.54,2.62,1.54,4.63c0,6.29,0.01,48.88,0.02,67.49c0,4.3,0,7.26,0,8.13"/></g><g><g><g></g></g><g></g></g></g></g></svg>