<svg class="voyager-component-icon icon" xmlns="http://www.w3.org/2000/svg" width="109" height="109" viewBox="0 0 109 109"><g style="fill:none;stroke:#000000;stroke-width:8.5;stroke-linecap:square;stroke-linejoin:miter;"><g><g></g><g><g><path d="M49.13,21.86c2.62,0.77,5.48,0.69,7.89,0.48c9.43-0.81,19.87-2.15,29.61-3.27c2.44-0.28,5.37-0.56,7.43-0.13"/></g><g><g><path d="M82.05,31.29c0.36,1.1,0.29,2.47-0.32,4.39c-4.48,14.2-10.1,28.45-22.12,40.34"/></g><path d="M60.04,41.8c9.75,4.84,22.03,21.62,26.91,31.86"/></g><g><path d="M50.38,22.77c1.05,1.05,1.25,2.23,1.25,3.98c0,13.6,0,50.33,0,59.25c0,3.44,0.02,4.86,3.74,4.11c15.38-3.11,27.01-3.73,35.5-3.56c2.31,0.05,5.27,0.73,6.69,1.2"/></g></g></g></g></svg>