<svg class="voyager-component-icon icon" xmlns="http://www.w3.org/2000/svg" width="109" height="109" viewBox="0 0 109 109"><g style="fill:none;stroke:#000000;stroke-width:8.5;stroke-linecap:square;stroke-linejoin:miter;"><g><g></g><g><path d="M54.01,28.14c0.04,0.7,0.22,1.85-0.08,2.83C51.75,38.12,47.5,49.12,40.75,58"/><path d="M53.63,42.17c1.37,0.21,2.66,0.21,3.6,0.13c6-0.49,21.82-2.31,29.4-3.13c1.84-0.2,3.65-0.42,5.5-0.28"/><path d="M67.56,13.63c1.22,1.22,2.26,3.37,2.26,5.48c0,1.06,0,60.26,0,70.27"/><path d="M50.88,63.53c2,0.22,3.83,0.3,5.87,0.1c7.62-0.75,20.74-1.54,27.35-2.05c1.99-0.15,4.02-0.2,5.77,0.29"/><path d="M38.88,90.72c2.93,0.51,5.06,0.6,8.01,0.41c11.74-0.76,35.24-1.76,45.08-1.81c2.54-0.02,5.29,0.18,7.29,0.63"/></g></g></g></svg>