<svg class="voyager-component-icon icon" xmlns="http://www.w3.org/2000/svg" width="109" height="109" viewBox="0 0 109 109"><g style="fill:none;stroke:#000000;stroke-width:8.5;stroke-linecap:square;stroke-linejoin:miter;"><g><g></g><g><g><g><path d="M54.14,22.15c0.25,0.87,0.24,2.15-0.1,3.18c-2.29,7.04-6.92,17.92-14.76,25.92"/></g><g><path d="M66.5,16.25C71.2,16.69,80.3,35.06,86.96,43.2c2.22,2.72,4.29,4.67,6.51,6.6"/></g></g><g><path d="M45.75,60.85c0.76,0.76,1.1,1.77,1.26,2.7c1.12,6.82,1.92,13.75,2.78,22.19c0.19,1.9,0.38,3.67,0.56,5.21"/><path d="M47.8,62.46c11.95-1.58,25.08-2.58,33.7-3.2c3.53-0.25,5,1.49,4.35,4.12c-1.68,6.75-2.85,13.13-4.54,21.4"/><path d="M51.24,88.13c6.83-0.32,16.38-1.13,26.77-1.77c1.62-0.1,3.44-0.25,4.93-0.36"/></g></g></g></g></svg>