<svg class="voyager-component-icon icon" xmlns="http://www.w3.org/2000/svg" width="109" height="109" viewBox="0 0 109 109"><g style="fill:none;stroke:#000000;stroke-width:8.5;stroke-linecap:square;stroke-linejoin:miter;"><g><g><g></g><g></g></g><g><g><path d="M61.04,12.25c0.08,0.98,0.12,2.59-0.4,3.93C56.5,26.88,48,41.5,34.5,54.35"/><path d="M60.85,16.24c5.4,5.39,20.25,21.5,27.55,28.74c2.1,2.08,4.13,4.02,6.85,5.24"/></g><g><g><path d="M57.56,41.08c3.57,2.18,9.79,8.98,10.69,12.38"/></g><g><path d="M40.71,62.54c1.54,0.71,4.08,0.96,5.48,0.76c5.68-0.8,32.59-4.94,35.52-5.35c2.93-0.41,3.8,1.62,1.81,3.91C76.12,70.38,70,77.5,63.8,84.58"/><path d="M53.12,77.4c5.38,3.22,14.38,11.22,17.63,18.1"/></g></g></g></g></g></svg>