<svg class="voyager-component-icon icon" xmlns="http://www.w3.org/2000/svg" width="109" height="109" viewBox="0 0 109 109"><g style="fill:none;stroke:#000000;stroke-width:8.5;stroke-linecap:square;stroke-linejoin:miter;"><g><g><path d="M30.91,20.87c0.38,1.49,0.58,2.56-0.19,4.21C27.38,32.25,24,39,19.35,45.37c-0.64,0.88-0.33,2.42,0.32,2.89C23.75,51.25,26,53,31.17,57.05"/><path d="M44.87,32.6c0.38,1.28,0.38,3.03-0.32,4.37c-5.58,10.74-18.1,30.55-27.24,42.69c-1.23,1.63-0.06,3.13,1.44,2.59c12-4.25,19-6.75,29.16-10.48"/><path d="M42.34,60.66c3.62,3.51,9.36,14.45,10.26,19.92"/></g><g></g></g></g></svg>