<svg class="voyager-component-icon icon" xmlns="http://www.w3.org/2000/svg" width="109" height="109" viewBox="0 0 109 109"><g style="fill:none;stroke:#000000;stroke-width:8.5;stroke-linecap:square;stroke-linejoin:miter;"><g><g></g><g><g><path d="M46,18.5c1.12,1.12,1.78,2.13,2,3.2c1.33,6.47,2.58,18.93,3.5,29.28c0.12,1.32,0.23,2.62,0.34,3.88"/><path d="M48.79,20.78c12.46-2.03,30.96-4.78,39.73-5.5c3.15-0.26,4.73,1.65,4.57,3.26c-0.48,4.81-2.23,18.91-3.61,28.04c-0.31,2.05-0.6,3.86-0.86,5.25"/></g><path d="M67.75,20.75c0.88,0.88,1.41,1.99,1.44,3.01c0.3,12.89,0.12,59.3,0.12,63.99"/><path d="M52.15,69.29c1.38,0.39,3.91,0.49,5.3,0.39c9.02-0.67,15.56-1.92,24.52-3.17c2.27-0.32,3.66-0.26,6.03-0.26"/><path d="M40.13,91c1.57,0.54,4.47,0.73,6.04,0.54c16.83-2.05,35.08-4.3,47.45-4.27c2.62,0.01,4.2,0.26,5.51,0.53"/></g></g></g></svg>