<svg class="voyager-component-icon icon" xmlns="http://www.w3.org/2000/svg" width="109" height="109" viewBox="0 0 109 109"><g style="fill:none;stroke:#000000;stroke-width:8.5;stroke-linecap:square;stroke-linejoin:miter;"><g><g><g></g><g><g></g><g></g></g></g><g><g><path d="M54.86,26.59c2.39,0.79,4.13,0.91,6.26,0.62c7.64-1.08,13.72-1.87,22.05-2.94c2.74-0.35,3.52,1.4,3.2,3.55c-0.83,5.61-1.6,8.65-2.71,18.27"/><path d="M51.67,38.62c2.83,0.5,4.6,0.23,7.09-0.08c12.57-1.59,22.55-3,31.89-4.37c2.3-0.34,4.65-0.31,6.93,0.08"/><path d="M55.58,50.43c2.06,0.25,3.89,0.23,5.93-0.12C69,49,73.84,48.48,79.9,47.71c1.99-0.25,3.76-0.39,5.76-0.22"/></g><g><path d="M68.73,11.33c1.16,1.16,1.33,2.67,1.33,4.56c0,12.69,0.02,70.65,0.02,74.97c0,9.77-5.08,2.39-6.52,0.72"/><path d="M53.75,62.25c2.23,1.18,5.76,4.85,6.32,6.68"/><path d="M50.15,84.35c0.99,0.9,2.06,0.78,3.04,0.01c0.58-0.45,7.86-7.46,10.32-9.64"/><path d="M88.17,55.39c0.05,0.33-0.29,1.17-0.59,1.59c-1.7,2.4-3.33,3.9-7.28,6.77"/><path d="M76.4,67.48c1.62,0.38,8.48,9.02,14.61,15.28c1.4,1.42,2.75,2.23,4.49,3.19"/></g></g></g></g></svg>