<svg class="voyager-component-icon icon" xmlns="http://www.w3.org/2000/svg" width="109" height="109" viewBox="0 0 109 109"><g style="fill:none;stroke:#000000;stroke-width:8.5;stroke-linecap:square;stroke-linejoin:miter;"><g><g></g><g><g><path d="M57.56,12.4c0.08,0.81-0.12,2.17-0.65,3.25c-4.54,9.23-10.66,19.98-25.68,31.51"/><path d="M57.49,16.57c6.14,4.3,19.45,13.76,27.56,19.42c2.95,2.05,5.79,4.04,9.22,5.18"/></g><g><g><path d="M45.25,41.96c1.67,0.57,3.57,0.31,5.26,0.11c5.27-0.62,13.38-1.92,19.12-2.4c1.79-0.15,3.5-0.21,5.27,0.16"/></g><g><g><path d="M37.58,57.1c0.91,0.91,1.15,1.86,1.15,3c0,4.77-0.1,19.02-0.1,28.15c0,2.51,0.04,4.62,0.04,5.94"/><path d="M39.6,58.89c9.4-1.14,42.67-4.48,44.14-4.6c2.26-0.17,4.29,1.2,4.29,3.87c0,6.45-0.26,18.18-0.26,30.09c0,7.86-2.47,5.29-6.43,2.54"/></g><g><g><path d="M40.18,73.74c11.32-1.24,35.44-3.61,46.44-4.11"/></g><g><path d="M53.39,59.2c0.96,0.96,1.29,2.05,1.29,4.05c0,5.43-0.01,15.1-0.01,21.5c0,3.35-0.01,5.81-0.01,6.3"/></g><g><path d="M68.86,58.11c1.08,1.08,1.29,2.14,1.29,4.05c0,7.72-0.01,16.9-0.01,22.84c0,2.79,0,5.03,0,6.39"/></g></g></g></g></g></g></g></svg>