<svg class="voyager-component-icon icon" xmlns="http://www.w3.org/2000/svg" width="109" height="109" viewBox="0 0 109 109"><g style="fill:none;stroke:#000000;stroke-width:8.5;stroke-linecap:square;stroke-linejoin:miter;"><g><g></g><g><g><path d="M47.24,19.5c9.13-1.38,28.74-4.16,39.17-4.63c7.92-0.36,1.59,5.87-0.24,7.3"/></g><g><path d="M48.82,34.5c1.93,0.38,4,0.25,5.58,0.03c7.06-0.98,17.86-2.97,25.49-3.69c1.68-0.16,3.37-0.34,4.93-0.07"/><path d="M47.55,44.07c0.58,0.46,1.32,2.31,1.43,2.92c0.69,3.86,1.5,11.63,2.44,18.99c0.13,1.05,0.27,2.09,0.41,3.13"/><path d="M49.79,45.74c8.69-0.87,26.73-4.02,33.04-4.16c2.95-0.07,3.52,1.76,3.18,4.08c-0.75,5.14-1.38,9.99-2.86,16.13c-0.3,1.25-0.61,2.49-0.92,3.7"/><path d="M40.93,78.15c2.82,0.73,5.12,0.59,7.45,0.38c16.92-1.52,24.95-2.98,42-3.71c2.16-0.09,4.12-0.14,6.2,0.54"/><path d="M65.09,21.31c0.99,0.99,1.6,2.69,1.6,4.38C66.69,29.38,66.8,83,66.8,94c0,2.58-0.03,4.46-0.05,5.38"/></g></g></g></g></svg>