<svg class="voyager-component-icon icon" xmlns="http://www.w3.org/2000/svg" width="109" height="109" viewBox="0 0 109 109"><g style="fill:none;stroke:#000000;stroke-width:8.5;stroke-linecap:square;stroke-linejoin:miter;"><g><g></g><g><g><path d="M50.38,17.88c2.64,2,6.82,8.23,7.49,11.35"/><path d="M81.04,13.81c0.02,0.35,0.08,0.91-0.04,1.41c-0.88,3.41-3.25,8.28-7.61,13.47"/><g><path d="M42.41,33.3c0.84,0.57,1.22,1.2,1.53,2.27c1,3.51,2.44,11.57,3.37,18.92c0.27,2.16,0.52,4.25,0.72,6.14"/><path d="M44.99,34.92c10.81-0.9,30.09-3.42,41.53-4.3c4.61-0.36,6.55,0.5,5.86,5.15c-0.54,3.65-1.4,9.39-2.37,15.3c-0.33,2.02-0.68,4.06-1.03,6.04"/><path d="M66.3,33.53c0.9,0.9,1.23,1.6,1.23,2.98c0,5.16,0.04,12.3,0.04,19.7"/></g></g><g><path d="M52.87,66.24c0.82,0.82,1.02,1.76,1.02,3.36c0,7.5,0.02,13,0.02,19.9c0,1.97,0,4.03,0,6.25"/><path d="M54.8,67.43c5.07-0.68,17.7-1.81,24.45-2.44c2.89-0.27,4.17,0.47,4.11,3c-0.09,3.91,0.08,11.52-0.03,20.75c-0.02,2-0.04,4.09-0.04,6.28"/><path d="M55.25,79.6C61,79,77.78,77.62,82.18,77.62"/></g></g></g></g></svg>