<svg class="voyager-component-icon icon" xmlns="http://www.w3.org/2000/svg" width="109" height="109" viewBox="0 0 109 109"><g style="fill:none;stroke:#000000;stroke-width:8.5;stroke-linecap:square;stroke-linejoin:miter;"><g><g><g><path d="M35,24.52c1.5,0.27,4.25,0.38,5.76,0.27c9.12-0.64,17.37-2.13,24.11-2.52c2.49-0.14,4.01,0.13,5.26,0.26"/><path d="M52.17,10.87c0.98,0.98,1.77,2.38,1.77,3.89c0,6.96,0.13,18.42,0.08,23.5"/><path d="M13.25,42.28c2.79,0.69,7.32,0.7,10.11,0.44c22.93-2.1,39.09-4.6,63.81-5.43c4.63-0.16,7.14,0.08,9.46,0.43"/></g><path d="M81.59,14.23c0.19,1.38-0.08,3.39-1.47,5.03C63,39.62,46.88,55.25,14.62,72.75"/></g><g><g></g></g></g></g></svg>