<svg class="voyager-component-icon icon" xmlns="http://www.w3.org/2000/svg" width="109" height="109" viewBox="0 0 109 109"><g style="fill:none;stroke:#000000;stroke-width:8.5;stroke-linecap:square;stroke-linejoin:miter;"><g><g><g><path d="M27.5,19.97c1.62,0.66,3.12,0.76,5.5,0.21c4-0.92,6.25-1.55,10.99-3.18c3.82-1.31,4.79,0.53,3.51,3.87c-3,7.84-15.75,28.26-34,36.13"/><path d="M21.91,31.4c3.76,1.32,9.71,5.43,10.65,7.49"/></g><g><path d="M67.9,13.14c0.07,0.61-0.04,1.42-0.31,1.96c-1.47,2.9-3.22,4.9-7.84,8.52"/><path d="M49.25,20.26C57.5,26.25,81,48.75,89.96,53.82c2.4,1.36,4.09,2.38,6.29,2.86"/><path d="M79.41,24.65c0.03,0.25,0.06,0.65-0.06,1.01c-0.68,2.12-2.61,4.71-7.97,8.38"/></g></g><g><g><g></g><g></g></g><g><g></g><g></g></g></g></g></g></svg>