<svg class="voyager-component-icon icon" xmlns="http://www.w3.org/2000/svg" width="109" height="109" viewBox="0 0 109 109"><g style="fill:none;stroke:#000000;stroke-width:8.5;stroke-linecap:square;stroke-linejoin:miter;"><g><g><g><path d="M52.29,11c1.17,1.17,1.7,2.5,1.7,4.2c0,3.09-0.08,4.02-0.08,6.83"/><g><path d="M28.15,26.3c17.1-2.42,40.97-5.17,52.45-5.31c9.9-0.12,3.15,5.39-0.32,7.6"/></g></g><g><path d="M41.51,31.76c0.13,1.22-0.12,2.31-0.75,3.26c-3.02,5.18-6.8,9.44-15.01,15.24"/><path d="M59.76,29.23c0.94,0.76,1.49,2.27,1.49,3.59c0,5.25,0,2.68,0,6.18c0,4.75,1.75,6.5,11.25,6.5c7.25,0,11.25-0.25,12.5-1.75"/></g></g><g><g></g></g></g></g></svg>