<svg class="voyager-component-icon icon" xmlns="http://www.w3.org/2000/svg" width="109" height="109" viewBox="0 0 109 109"><g style="fill:none;stroke:#000000;stroke-width:8.5;stroke-linecap:square;stroke-linejoin:miter;"><g><g><g><path d="M30.75,14c0.04,0.55,0.08,1.43-0.07,2.23C29.78,20.92,24.65,30.69,17.62,37"/><path d="M30.48,26.29c2.95,0,12.23-2.33,17.78-3.18c1.42-0.22,2.86-0.35,3.99-0.1"/><path d="M36.77,28.83c2.13,1.79,5.51,7.35,6.04,10.13"/></g><g><path d="M65.25,14c0.03,0.44,0.14,1.15-0.06,1.77c-1.5,4.64-5.67,11.27-11.18,16.98"/><path d="M64.73,24.91c3.8,0,14.86-2.14,21.91-2.99c1.72-0.21,2.86-0.29,4.24-0.08"/><path d="M76.27,26.75c0.03,0.26,0.06,0.67-0.05,1.04c-0.54,1.79-3.17,5.31-6.95,8.14"/></g></g><g><g></g><g></g></g></g></g></svg>