<svg class="voyager-component-icon icon" xmlns="http://www.w3.org/2000/svg" width="109" height="109" viewBox="0 0 109 109"><g style="fill:none;stroke:#000000;stroke-width:8.5;stroke-linecap:square;stroke-linejoin:miter;"><g><g><g><path d="M35.31,12.5c0.19,1.16-0.05,2.67-0.65,3.67c-3.82,6.32-7.92,11.43-16.67,19.13"/><path d="M29.59,26.72c0.97,0.97,1.25,2.15,1.25,3.53c0,6.5-0.02,17.37-0.02,24.75c0,1.72,0,3.26,0,4.5"/></g><path d="M59.36,11.5c0.06,0.65-0.02,1.5-0.2,2.05c-1.16,3.54-2.88,6.02-5.54,10.33"/><path d="M31.43,28.13c6.94-0.49,29.27-3.19,41.32-4.58c3.62-0.42,6.25-0.71,7.14-0.79"/><path d="M52.97,27.74c0.96,0.96,1.28,2.26,1.28,4.03c0,6.73,0.03,13.23,0.03,23.02"/><path d="M32.04,38.28c6.35-0.4,24.6-2.73,34.98-3.87c3.53-0.39,6.14-0.67,7.07-0.75"/><path d="M32.01,47.53c6.61-0.33,24.38-2.29,35.04-3.53c3.79-0.44,6.65-0.76,7.75-0.83"/><path d="M32.11,57.02c7.24-0.52,32.81-2.63,44.64-3.52c2.92-0.22,5-0.38,5.76-0.45"/></g><g></g></g></g></svg>