<svg class="voyager-component-icon icon" xmlns="http://www.w3.org/2000/svg" width="109" height="109" viewBox="0 0 109 109"><g style="fill:none;stroke:#000000;stroke-width:8.5;stroke-linecap:square;stroke-linejoin:miter;"><g><g><g><g></g></g><g></g></g><g><path d="M52.94,63.44c1.18,1.18,1.62,2.81,1.62,4.45c0,4.73,0.04,15.23,0.04,22.49"/><path d="M25.9,76.38c0.86,0.86,1.1,2.12,1.03,3.08c-0.29,4.05-0.39,5.65-0.96,13.13c-0.22,2.91,0.17,3.05,1.77,2.76c13.88-2.48,38.63-5.98,54.3-6.28"/><path d="M84.59,70.75c1.08,1.08,0.91,2.62,0.76,3.59c-0.56,3.75-1.16,7.7-2.08,12.87c-0.4,2.25-0.84,4.73-1.3,7.52"/></g></g></g></svg>