<svg class="voyager-component-icon icon" xmlns="http://www.w3.org/2000/svg" width="109" height="109" viewBox="0 0 109 109"><g style="fill:none;stroke:#000000;stroke-width:8.5;stroke-linecap:square;stroke-linejoin:miter;"><g><g><g></g><g></g></g><g><path d="M33.31,59.38c0.84,0.84,1.15,2,1.15,3.45c0,3.28,0.07,13.92,0,21c-0.02,2.45-0.05,4.46-0.08,5.54"/><path d="M34.96,60.95c4.54-0.7,37.17-4.83,39.84-5.01c2.7-0.19,3.7,1.4,3.7,4.51c0,9.42,0.24,15.8-1.4,23.85c-1.12,5.51-4.71,0.75-6.22-1.13"/><path d="M54.17,47.17c0.83,0.83,1.14,2.08,1.14,3.7c0,0.55-0.11,29.56-0.11,43.63c0,2.38-0.05,6.02-0.07,6.88"/></g></g></g></svg>