<svg class="voyager-component-icon icon" xmlns="http://www.w3.org/2000/svg" width="109" height="109" viewBox="0 0 109 109"><g style="fill:none;stroke:#000000;stroke-width:8.5;stroke-linecap:square;stroke-linejoin:miter;"><g><g></g><g><path d="M22.75,54c1,1,1.47,2.1,1.73,4.09c1.14,8.78,2.52,19.9,3.61,31.35c0.22,2.29,0.42,4.52,0.61,6.63"/><path d="M24.93,55.74c18.69-2.49,41.69-4.74,55.03-5.28c4.12-0.17,6.19,1.63,5.7,5.55c-0.83,6.61-2.52,19.36-4.64,30.28c-0.58,2.98-1.17,5.82-1.75,8.37"/><path d="M53.12,55.04c0.98,0.98,1.22,2.09,1.22,3.57c0,9.35-0.04,25.86-0.09,32.51"/></g></g></g></svg>