<svg class="voyager-component-icon icon" xmlns="http://www.w3.org/2000/svg" width="109" height="109" viewBox="0 0 109 109"><g style="fill:none;stroke:#000000;stroke-width:8.5;stroke-linecap:square;stroke-linejoin:miter;"><g><g><g></g><g></g></g><g><g><path d="M52.72,49.5c0.28,0.88,0.16,1.88-0.59,3.09C49.7,56.54,48.88,58,45.5,62"/></g><g><path d="M34.51,63.47c1.01,1.01,1.22,2.26,1.28,3.9c0.17,4.5,0.74,17.84,1.14,25.36c0.1,1.82,0.17,3.32,0.22,4.27"/><path d="M36.11,64.73c5.52-0.48,33.1-2.81,36.26-2.98C75,61.61,76.5,63,76.5,65.54c0,1.5-2,15.47-3.65,25.69c-0.28,1.72-0.53,3.32-0.72,4.71"/></g></g></g></g></svg>