<svg class="voyager-component-icon icon" xmlns="http://www.w3.org/2000/svg" width="109" height="109" viewBox="0 0 109 109"><g style="fill:none;stroke:#000000;stroke-width:8.5;stroke-linecap:square;stroke-linejoin:miter;"><g><g><g></g><g></g></g><g><g><g><path d="M34.78,61.35c0.81,0.81,1.47,1.9,1.74,2.97c0.84,3.2,1.17,7.08,2.09,12.67c0.16,0.96,0.32,1.95,0.49,3"/><path d="M37.48,63.69c11.33-1.69,24.58-3.79,31.77-4.3c3.33-0.24,5.44,0.15,4.5,3.74c-0.96,3.66-1.9,7.65-2.92,11.08"/><path d="M39.94,77.95c6.62-0.68,18.95-1.68,28.81-2.39c1.21-0.09,2.38-0.17,3.52-0.25"/></g><g><path d="M53.82,47.25c0.78,0.78,1.06,2.12,1.06,3.84c0,1.91,0.22,33.16,0.22,39.57"/></g></g><path d="M30.11,94.4c0.89,1.22,1.51,1.35,3.21,1.11c5.4-0.77,40.52-7.15,43.06-8"/><path d="M71.38,82c4.39,2.53,11.34,10.39,12.44,14.32"/></g></g></g></svg>