<svg class="voyager-component-icon icon" xmlns="http://www.w3.org/2000/svg" width="109" height="109" viewBox="0 0 109 109"><g style="fill:none;stroke:#000000;stroke-width:8.5;stroke-linecap:square;stroke-linejoin:miter;"><g><g><g></g><g><g></g></g></g><g><g><path d="M35.99,49.9C36.6,50.58,37,52.08,37,52.98c0,3.09,0.06,16.51,0.08,23.52c0,1.54,0.01,2.77,0.01,3.51"/><path d="M38.03,51.31c3.12-0.1,25.79-2.84,32.51-3.45c3.65-0.33,4.41,1.51,4.41,4.64c0,3.33,0,13.26,0,21.25c0,1.91,0,3.7,0,5.27"/></g><g><path d="M45.1,80.75c0.18,1.21-0.06,2.15-0.81,3.1c-3.78,4.78-9.91,10.03-24.37,16.57"/><path d="M58.25,78.72c0.83,0.83,1.26,2.03,1.26,4.09c0,3.69,0.04,0.36,0.04,5.82c0,8.87,1.33,9.54,16.52,9.54c16.44,0,18.19-1.92,18.19-8.94"/></g></g></g></g></svg>