<svg class="voyager-component-icon icon" xmlns="http://www.w3.org/2000/svg" width="109" height="109" viewBox="0 0 109 109"><g style="fill:none;stroke:#000000;stroke-width:8.5;stroke-linecap:square;stroke-linejoin:miter;"><g><g><g></g><g></g></g><g><path d="M46.12,42.88c2.16,1.3,5.58,5.35,6.12,7.38"/><path d="M13.88,58.23c3.75,0.9,8.03,0.74,11.62,0.41c16.56-1.5,43.71-3.41,58.13-4.12c3.84-0.19,7.71-0.26,11.5,0.55"/><path d="M39.88,66.4c1.69,0.64,4.15,0.45,5.9,0.31c5.82-0.46,14.74-1.78,19.1-2.27c1.87-0.21,4.01-0.37,5.88,0.05"/><path d="M38.38,75.65c1.56,0.59,3.97,0.71,5.62,0.57c6.28-0.53,15.9-1.7,21.26-2.1C67,74,69.28,73.6,71.01,73.99"/><g><path d="M35.25,84.27c0.8,0.8,1.42,1.84,1.69,2.76c1.06,3.72,1.54,6.25,2.48,10.99c0.2,1.01,0.43,2.09,0.72,3.23"/><path d="M37.63,85.96c11.12-1.57,23.09-2.79,32.73-3.57c3.47-0.28,5.01,2.1,4.23,4.47c-1.04,3.17-1.72,4.56-3.7,9.27"/><path d="M41.12,98.77c6.83-0.26,18.13-1.08,28.14-1.48c1.76-0.07,3.48-0.14,5.13-0.21"/></g></g></g></g></svg>