<svg class="voyager-component-icon icon" xmlns="http://www.w3.org/2000/svg" width="109" height="109" viewBox="0 0 109 109"><g style="fill:none;stroke:#000000;stroke-width:8.5;stroke-linecap:square;stroke-linejoin:miter;"><g><g><g></g><g></g><g></g></g><g><path d="M34.1,53.01c1.88,0.73,3.94,1.02,5.9,0.81c8.33-0.89,18.05-2.16,26.63-3.22c1.72-0.21,3.86-0.35,5.62-0.07"/><path d="M53.04,55.47c-0.04,0.9-0.49,1.58-1.31,2.04c-2.93,2.51-10.9,6.64-21.65,9.3"/><path d="M51.76,60.34c5.99,4.66,9.49,21.53,4.96,35.14c-1.98,5.96-6.18,0.7-6.96,0.04"/><path d="M51.38,65c0,0.88-0.31,1.69-1.06,2.43c-3.07,3.07-11.9,8.2-23.47,11.49"/><path d="M53.96,74.44c0.18,1.05-0.24,1.9-1.01,2.62C48.88,80.88,38.75,87,24.89,92.05"/><path d="M73.79,57.28c-0.17,0.85-0.44,1.78-1.15,2.47c-1.96,2.49-5.49,4.82-12.33,8.37"/><path d="M58.43,70.72C61.94,72.91,73.39,80.83,81,85.69c2.94,1.87,5.5,3.31,9.28,4.42"/></g></g></g></svg>