<svg class="voyager-component-icon icon" xmlns="http://www.w3.org/2000/svg" width="109" height="109" viewBox="0 0 109 109"><g style="fill:none;stroke:#000000;stroke-width:8.5;stroke-linecap:square;stroke-linejoin:miter;"><g><g></g><g><g><path d="M30.74,52.3c2.91,0.86,5.38,0.86,8.39,0.59c9.18-0.81,23.91-2.53,31.49-3.29c2.74-0.27,5.66-0.71,8.39-0.23"/><path d="M32.4,53.17c0.65,0.65,0.68,2.03,0.4,3.68C30.75,69,28.5,83.12,15.25,95.3"/></g><path d="M41.92,61.07c1.78,0.6,3.78,0.28,5.59,0.06c5.11-0.6,12.68-1.78,17.74-2.35c1.78-0.2,3.42-0.28,5.19,0.08"/><path d="M33.56,70.42c2.16,0.73,5.23,0.38,7.45,0.15c8.51-0.89,25.71-2.7,33.74-3.32c2.56-0.2,5.68-0.64,8.23-0.13"/><path d="M43.42,73.66c0.9,0.9,1.33,2.34,1.33,3.96c0,9.36,0.07,15.19,0.07,16.78c0,1.58,1.26,2.5,3.08,1.05c2.73-2.19,8.48-6.44,12.6-9.19"/><path d="M79.36,73.09c0.06,0.27,0.12,0.69-0.11,1.07c-0.78,1.3-3.68,3.49-8.04,5.7"/><path d="M56.7,75.13c2.55,0,19.54,11.68,27.12,16.69c2.73,1.81,4.55,2.92,8.18,4.12"/></g></g></g></svg>