<svg class="voyager-component-icon icon" xmlns="http://www.w3.org/2000/svg" width="109" height="109" viewBox="0 0 109 109"><g style="fill:none;stroke:#000000;stroke-width:8.5;stroke-linecap:square;stroke-linejoin:miter;"><g><g><g></g><g></g></g><g><g><path d="M51.77,35.57c0.69,0.27,2.16,2.02,2.3,2.56c0.14,0.54,0.07,2.56-0.07,5.93"/><g><path d="M19.7,47.19c1.58,0.47,4.49,0.55,6.08,0.47c16.5-0.79,44.21-4.03,58.8-4.95c2.64-0.17,4.23,0.23,5.55,0.46"/><path d="M25.2,48.68c0.04,1.19,0.07,3.07-0.07,4.78c-0.84,10.07-2.74,34.51-11.82,45.36"/></g></g><path d="M28.19,58.77c1.83,0.44,3.38,0.73,5.28,0.56c13.09-1.22,42.77-4.95,46.45-5.14c2.75-0.14,3.73,1.18,3.23,2.76c-0.92,2.9-1.64,5.66-2.88,8.78"/><path d="M43.76,49.6c0.8,0.29,1.29,1.81,1.45,2.39c0.16,0.58,0.29,10.21,0.07,15.7"/><path d="M63.69,47.4c0.8,0.29,1.49,1.79,1.45,2.39c-0.2,2.6-1.57,12.65-2.26,16.68"/><path d="M26.42,70.32c1,0.37,2.84,0.47,3.84,0.37c6.38-0.63,41.73-5.04,48.89-4.91c1.67,0.03,2.67,0.17,3.51,0.36"/><g><path d="M35.42,82.17c5.32-0.26,11.45-1.78,16.08-2.21c1.36-0.13,2.23-0.12,2.92-0.05"/><path d="M33.43,72.83c0.82,0.37,1.52,1.46,1.52,1.96c0,1.37-0.26,20-0.26,21.73c0,1.92,1.66,1.64,3.29,1.03c4.27-1.58,7.26-2.86,12.38-5.36"/><g><path d="M86.78,72.17c0.22,1.27,0.07,2.2-0.76,2.78c-2.52,1.75-13.48,6.63-21.9,9.44"/><path d="M60.53,70.39c1.03,0.45,1.41,1.4,1.41,2.53c0,1.49-0.08,16.49-0.11,18.25c-0.12,6.38,3.54,8.11,15.75,8.11c11.42,0,15.21-2.67,15.21-8.16"/></g></g></g></g></g></svg>