<svg class="voyager-component-icon icon" xmlns="http://www.w3.org/2000/svg" width="109" height="109" viewBox="0 0 109 109"><g style="fill:none;stroke:#000000;stroke-width:8.5;stroke-linecap:square;stroke-linejoin:miter;"><g><g><g><path d="M53.06,8.13c1.15,1.15,1.26,2.37,1.26,4.15c0,0.79-0.07,2.46-0.07,4.46"/><g><path d="M23.13,19.98c2.65,0.95,6,0.66,8.75,0.35c14.79-1.69,28.75-3.2,46.5-4.45c3.15-0.22,6.4-0.47,9.5,0.2"/><path d="M25.25,21c0.88,0.88,0.97,2.3,0.92,4.56c-0.29,13.19-2.96,49.33-13.61,63.66"/></g></g><g><g><path d="M29.88,33.59c1.8,0.59,3.82,0.2,5.65-0.02c4.59-0.56,10.22-1.44,15.4-2.21c1.3-0.19,2.3-0.1,3.12,0.06"/><path d="M42.94,24.29c0.83,0.83,1.1,1.96,1.1,3.08c0,0.39,0.05,14.22,0.06,22.13c0,3.01,0,5.16-0.01,5.39"/><path d="M42.46,33.77c0,1.36-0.57,2.53-1.31,3.95c-2.93,5.56-7.78,12.28-11.4,14.91"/><path d="M46.88,37.75c2.9,1.42,5.99,4.26,7.65,6.75"/></g><g><path d="M59,30.47c1.56,0.5,3.59,0.63,5.24,0.5c5.74-0.46,12.17-1.87,20.67-2.96c1.32-0.17,2.48-0.16,3.31,0"/><path d="M72.91,22.11c1.05,1.05,1.1,2.02,1.1,3.58c0,3.77-0.07,12.8,0.01,20.31c0.02,2.09,0.04,3.86,0.04,5.07"/><path d="M72.7,30.44c0,1.31-0.84,2.77-1.82,4.51c-3.35,5.98-8.8,12.39-13.1,15.15"/><path d="M75.38,31.12c4,4,7.5,7.75,11.42,11.09c1.62,1.38,3.21,2.44,5.03,3.53"/></g></g></g><g></g></g></g></svg>