<svg class="voyager-component-icon icon" xmlns="http://www.w3.org/2000/svg" width="109" height="109" viewBox="0 0 109 109"><g style="fill:none;stroke:#000000;stroke-width:8.5;stroke-linecap:square;stroke-linejoin:miter;"><g><g><g></g><g><g></g><g></g></g></g><g><path d="M16.5,11.5c3.63,1.74,9.38,7.17,10.29,9.88"/><path d="M11.46,32c4.34,0.99,11.21,4.09,12.29,5.63"/><path d="M10,52.44c2.25,0.85,3.75,0.43,4.75,0.21c1-0.21,8-2.99,9.5-3.42c1.5-0.43,3.75,1.07,2.75,2.35s-4,6.19-4.75,7.26c-0.75,1.07-0.5,2.99,1,4.48s2.75,3.2,3.5,4.48c0.75,1.28,0.75,2.35-0.75,3.42c-1.5,1.07-9,7.04-10.5,7.47"/><path d="M11.75,79.61c3.16-0.55,9.39-1.28,14.23-0.82c7.52,0.71,31.71,8.45,36.37,9.87c12.65,3.84,22.4,4.93,31.89,3.02"/></g></g></g></svg>