<svg class="voyager-component-icon icon" xmlns="http://www.w3.org/2000/svg" width="109" height="109" viewBox="0 0 109 109"><g style="fill:none;stroke:#000000;stroke-width:8.5;stroke-linecap:square;stroke-linejoin:miter;"><g><g><g><path d="M31.63,16.25c0.08,0.75-0.01,1.48-0.25,2.19C29.5,22.75,28.5,24.88,25.75,29"/></g><g><path d="M14.83,30.12c0.84,0.84,1.22,1.87,1.38,3.08C17,39,18.03,46.68,18.64,54.87c0.09,1.24,0.18,2.48,0.25,3.7"/><path d="M16.43,31.95c9.04-1.51,19.56-3.09,26.2-3.8c4.13-0.44,5.67,0.66,5.12,5.01c-0.6,4.75-1.66,12.24-2.74,18.62c-0.21,1.25-0.42,2.46-0.63,3.61"/><path d="M30.5,31c0.69,0.69,1.25,1.64,1.26,2.75c0.03,5.51,0.12,16.88,0.12,20"/><path d="M19.82,56.64C30,55.25,33.75,55,43.46,54.02"/></g><g><g><path d="M25.62,64c0.5,0.88,0.7,1.95,0.5,3.05C24.38,76.75,20.19,88.88,10,96"/></g><g><path d="M34.74,58.37c0.95,0.95,1.38,2.59,1.38,4.43c0,8.33-0.11,12.39-0.11,17.95c0,11,1.82,12.53,27.66,12.53s27.59-3.53,27.59-9.37"/></g></g><g><path d="M47.94,60.22c0.21,0.35,0.06,1.93-0.07,2.38c-1.55,5.71-3.42,9.03-6.31,13.04c-0.92,1.27,0.17,2.57,1.42,2.02c4.02-1.79,4.62-2.2,9.02-3.79"/><path d="M51,70c1.04,1.11,3.33,5.5,3.59,7.22"/></g></g><g><g></g></g></g></g></svg>