<svg class="voyager-component-icon icon" xmlns="http://www.w3.org/2000/svg" width="109" height="109" viewBox="0 0 109 109"><g style="fill:none;stroke:#000000;stroke-width:8.5;stroke-linecap:square;stroke-linejoin:miter;"><g><g><g><path d="M27.1,21.25c0.95,0.95,1.07,2.16,1.07,3.7s0,6.88,0,11.06"/><path d="M12.04,38.78c1.57,0.44,3.27,0.24,4.85,0.04c5.08-0.65,13.93-2.37,20.23-3.46c1.79-0.31,3.66-0.73,5.48-0.42"/></g><g><path d="M17.64,45.15c3.86,8.05,5.61,16.29,5.96,21.59"/><path d="M37.14,39.5c0.49,0.87,0.61,1.87,0.44,2.6c-1.95,8.28-3.33,13.9-5.45,21.4"/><path d="M13.54,75.96c1.08,0.66,2.4,0.46,3.26-0.08c9.07-5.59,10.75-6.43,22.29-12.95"/></g></g><g><g></g><g><g></g><g><g></g></g></g></g></g></g></svg>