<svg class="voyager-component-icon icon" xmlns="http://www.w3.org/2000/svg" width="109" height="109" viewBox="0 0 109 109"><g style="fill:none;stroke:#000000;stroke-width:8.5;stroke-linecap:square;stroke-linejoin:miter;"><g><g><path d="M16.01,17.26c1.49,0.87,2.82,1.2,5.29,0.87c5.54-0.74,15.21-1.97,19.6-2.5c2.89-0.35,4.54,0.87,4.54,3.25c0,5.11-0.63,15.26-1.35,22.65c-0.15,1.5-0.29,2.9-0.42,4.13"/><path d="M16.51,18.01c0.93,0.93,1.21,1.87,1.21,3.54c0,1.19,0,50.53,0,53.44c0,4.02,1.58,4.31,4.53,2.27C25.2,75.21,39,66.75,44.75,64"/><path d="M39.06,55.52C42.18,58,47.37,66.06,48.8,72.5"/></g><g><g></g></g></g></g></svg>