<svg class="voyager-component-icon icon" xmlns="http://www.w3.org/2000/svg" width="109" height="109" viewBox="0 0 109 109"><g style="fill:none;stroke:#000000;stroke-width:8.5;stroke-linecap:square;stroke-linejoin:miter;"><g><g><path d="M14.5,24.75c2.99,2.61,7.5,9.99,8.25,14.05"/><path d="M48.26,19.22c0.08,0.97-0.03,1.92-0.33,2.84c-1.93,4.57-4.3,9.2-8.61,14.49"/><path d="M12.1,47.8c0.8,0.28,2.95,0.54,5.06,0.28c7.71-0.96,19.07-3.16,27.7-4.05c2.12-0.22,2.66-0.28,4,0"/><path d="M31.23,13.21c0.84,0.84,1.42,2.04,1.42,3.35c0,0.83,0.05,51.78,0.06,71.44c0,3.47,0,5.96,0,7.04"/><path d="M31.77,46.71c0,1.41-0.44,2.8-0.85,3.85C26.95,60.89,19.37,72.97,12,79.98"/><path d="M35.87,54.19c4.7,2.67,7.63,5.56,9.9,10.02"/></g><g><g></g><g></g></g></g></g></svg>