<svg class="voyager-component-icon icon" xmlns="http://www.w3.org/2000/svg" width="109" height="109" viewBox="0 0 109 109"><g style="fill:none;stroke:#000000;stroke-width:8.5;stroke-linecap:square;stroke-linejoin:miter;"><g><g><g><path d="M15.55,30.1c1.95,0.4,3.97,0.27,5.6,0.04c6.05-0.87,15.67-2.8,21.27-3.92c1.38-0.28,2.58-0.34,3.95-0.17"/></g><g><path d="M15.31,43.58c1.81,0.58,4.01,0.49,5.85,0.17c6.46-1.1,15.48-2.94,20.25-3.81c1.4-0.25,2.79-0.52,4.22-0.51"/><g><path d="M12.03,56.29c1.95,0.55,4.49,0.46,6.48,0.15c6.98-1.1,19.44-3.49,24.97-4.62c1.83-0.37,3.64-0.57,5.57-0.45"/><path d="M31.45,14.75c0.96,0.96,1.39,2.25,1.39,3.66c0,0.8-0.05,49.41-0.06,67.96c0,3.06,0,5.3,0,6.38"/><path d="M31.8,55.36c0,1.52-0.5,2.49-1.1,3.8c-4.42,9.51-12.47,20.86-19.9,27.33"/><path d="M36.38,60.12c2.59,1.73,8.46,7.83,10.71,11.26"/></g></g></g><g><g></g><g><g><g></g></g><g></g><g></g></g></g></g></g></svg>