<svg class="voyager-component-icon icon" xmlns="http://www.w3.org/2000/svg" width="109" height="109" viewBox="0 0 109 109"><g style="fill:none;stroke:#000000;stroke-width:8.5;stroke-linecap:square;stroke-linejoin:miter;"><g><g><path d="M33.95,10.76c0.9,0.9,1.09,1.74,1.09,3.25C35.04,15.14,35,23.23,35,26"/><g><path d="M19.89,27.11c1.61,0.89,3.35,1.12,5.61,0.82c5.37-0.72,14.9-1.6,18.64-1.97c2.48-0.25,5.02-0.23,4.82,3.02c-0.35,5.83-0.88,14.23-1.55,21.25c-0.19,2.02-0.39,3.17-0.61,4.87"/><path d="M22.91,40.98C27.5,40.5,40.25,39,47.2,38.66"/><path d="M20.89,27.61c0.94,0.94,1.1,1.77,1.1,3.11c0,1.02-0.12,43.69-0.12,53.53c0,2.61,1.25,2.5,2.44,1.65c4.16-2.98,15.52-11.15,20.14-13.87"/><path d="M40.75,63.5c3.01,2.91,7.75,10.67,9.47,16.81"/></g></g><g></g></g></g></svg>