<svg class="voyager-component-icon icon" xmlns="http://www.w3.org/2000/svg" width="109" height="109" viewBox="0 0 109 109"><g style="fill:none;stroke:#000000;stroke-width:8.5;stroke-linecap:square;stroke-linejoin:miter;"><g><g><g><path d="M17.71,16.59c2.46,2.07,6.36,8.49,6.98,11.71"/><path d="M45.05,14.39c0.02,0.35,0.05,0.91-0.05,1.42c-0.58,2.99-3.62,8.19-8.29,13.8"/></g><g><g><path d="M15,35.24c1.87,0.51,3.89,0.32,5.63,0.06c5.9-0.89,16.62-2.79,23.62-3.67c2.06-0.26,4-0.38,5.87,0.21"/><g><path d="M10.75,56.69c0.98,0.5,2.78,0.6,3.76,0.5c10.6-1.14,25.81-3.83,37.06-3.82c1.63,0,2.61,0.24,3.43,0.49"/></g></g><path d="M25.17,37.62c0.92,0.92,1.11,1.86,1.11,3.86c0,18.29,0.59,38.89-13.44,53.8"/><g><g><path d="M39.91,35.53c0.84,0.84,1.01,1.97,1.01,3.24c0,0.76,0.13,34.66,0.02,50.61c-0.02,3.7-0.05,6.41-0.08,7.5"/></g></g></g></g><g><g></g></g></g></g></svg>