<svg class="voyager-component-icon icon" xmlns="http://www.w3.org/2000/svg" width="109" height="109" viewBox="0 0 109 109"><g style="fill:none;stroke:#000000;stroke-width:8.5;stroke-linecap:square;stroke-linejoin:miter;"><g><g><path d="M12.63,23.33c0.83,0.84,1.18,1.83,1.18,2.98c0,0.61-0.04,39.05-0.05,59.95c0,2.49,0,4.73,0,6.62"/><path d="M14.67,24.66c6.96-1.28,14.33-2.41,24.21-3.61c0.97-0.12,3.51-0.16,4.54,0.21"/><path d="M28.44,24.59c0.74,0.74,0.93,1.78,0.93,2.73c0,0.85,0.01,9.38,0.01,14.68"/><path d="M15.18,45.49c7.89-1.31,14.93-2.52,22.6-3.79c2.64-0.44,3.84,0.62,3.47,3.38c-0.56,4.15-1.51,8.42-2.69,14.09"/><path d="M15.28,64.04c2.64-0.57,14.43-2.61,21.24-3.69c1.86-0.3,3.11-0.37,3.97-0.37"/><path d="M27.92,63.93c0.76,0.76,0.93,1.94,0.93,2.98c0,2.34-0.09,12.59-0.09,18.09"/><path d="M15.25,87.88c5.5-0.62,13.34-1.94,21-2.84c1.54-0.18,3.75-0.39,5.47-0.39"/></g><g><g></g><g><g></g><g><g><g></g><g></g></g></g></g></g></g></g></svg>