<svg class="voyager-component-icon icon" xmlns="http://www.w3.org/2000/svg" width="109" height="109" viewBox="0 0 109 109"><g style="fill:none;stroke:#000000;stroke-width:8.5;stroke-linecap:square;stroke-linejoin:miter;"><g><g><path d="M33.9,14.5c0.06,0.45,0.24,1.31-0.12,1.82c-4.5,6.4-11.15,12.28-22.88,17.44"/><path d="M13.31,37.45c2.54,1.79,6.57,7.35,7.2,10.14"/><path d="M23.49,30.08c2.46,1.53,6.36,6.3,6.97,8.68"/><path d="M40.18,30.97c0.07,1.03-0.17,2.23-0.65,2.88C33,42.5,25.25,49,11.61,56.1"/><path d="M28.16,45.55c9.59,6.95,14.53,27.43,7.36,44.55c-4.18,9.98-8.34,0.92-9.43,0.05"/><path d="M31.61,51.84c0.06,0.43,0.12,1.12-0.11,1.75c-1.37,3.68-9.21,11.77-19.95,16.71"/><path d="M34.9,62.89c0.06,0.53,0.28,1.43-0.13,2.11C31.77,70.06,23.61,78.54,12,85.22"/></g><g><g><g></g><g></g></g><g><g><g></g><g></g></g></g></g></g></g></svg>