<svg class="voyager-component-icon icon" xmlns="http://www.w3.org/2000/svg" width="109" height="109" viewBox="0 0 109 109"><g style="fill:none;stroke:#000000;stroke-width:8.5;stroke-linecap:square;stroke-linejoin:miter;"><g><g><g><path d="M18.28,23.4c0.79,0.79,1.19,2.12,1.32,3.07c1.03,5.03,1.35,7.41,2.12,12.25c0.27,1.69,0.51,3.33,0.72,4.78"/><path d="M20.63,24.77c7.42-1.56,13.64-2.59,18.01-3.26C42,21,43.5,22.5,42.97,25.39c-0.69,3.73-1.64,7.12-2.89,12.07"/><path d="M22.61,41.41c4.12-0.41,9.69-1.64,15.18-2.42c1.36-0.19,2.74-0.37,4.14-0.53"/></g><path d="M31.12,42.99c1.01,1.01,1.21,2.38,1.21,4c0,1.02,0.03,23.38,0.03,30.75"/><path d="M33.38,56.24c3.37-0.49,5.62-1.12,9.6-1.75c1.72-0.27,2.18-0.25,3.26,0"/><path d="M19.12,59.49c0.88,0.88,1.21,2.51,1.21,4c0,1.02,0.03,14.76,0.03,21.5"/><path d="M14.5,86.57c1.03,1.03,2.25,1.43,4.07,0.4C28.56,81.32,33.75,78,42.5,72.99"/></g><g><g></g><g></g><g><g></g></g></g></g></g></svg>