<svg class="voyager-component-icon icon" xmlns="http://www.w3.org/2000/svg" width="109" height="109" viewBox="0 0 109 109"><g style="fill:none;stroke:#000000;stroke-width:8.5;stroke-linecap:square;stroke-linejoin:miter;"><g><g><g><path d="M12.5,18.54c1.25,0.96,1.45,2.21,1.62,3.18c0.98,5.66,2.66,16.78,3.4,25.76c0.08,1,0.15,1.98,0.21,2.93"/><path d="M15.03,20.17c10.69-1.68,25.59-3.93,31.58-4.62c2.5-0.29,3.63,1.82,3.4,3.34c-0.89,5.98-2.33,16.31-3.89,25.13c-0.23,1.31-0.45,2.06-0.65,3.21"/></g><path d="M30.97,19.87c0.78,1.13,1.06,1.76,1.08,3.13c0.21,12.86,0.06,50.65,0.06,55.01"/><path d="M15.75,62.75c1.72,0.5,3.79,0.44,4.95,0.25c7.75-1.25,14.9-3.05,23.1-4.25c1.7-0.25,3.83-0.25,5.45,0"/><path d="M12.25,82.31c1.38,1.19,3.39,1.61,6.09,0.69c5.53-1.87,21.25-7.06,30.16-10"/></g><g><g><g></g></g></g></g></g></svg>