<svg class="voyager-component-icon icon" xmlns="http://www.w3.org/2000/svg" width="109" height="109" viewBox="0 0 109 109"><g style="fill:none;stroke:#000000;stroke-width:8.5;stroke-linecap:square;stroke-linejoin:miter;"><g><g><g><path d="M18.16,26.13c1.59,0.62,3.08,0.28,4.46,0.15c5.55-0.53,17.61-1.77,23-2.33c1.39-0.15,2.78-0.15,4.18-0.01"/><path d="M33,13.13c1,1,1.47,2.24,1.47,3.44c0,0.47-0.01,19.66,0.04,27"/><path d="M19.52,35.61c0.64,0.25,1.82,0.3,2.47,0.25c4.64-0.36,19.32-2.15,23.32-2.54c1.07-0.1,1.86-0.06,2.42-0.01"/><path d="M11.13,46.74c2.07,0.56,4.16,0.23,6.24-0.04c8.57-1.1,20-2.44,28.02-3.22c1.86-0.18,4.49-0.36,6.11,0.02"/></g><g><path d="M22.64,53.8c0.84,0.84,1.35,2.2,1.35,3.23c0,0.53,0.02,22.39,0.03,33.97c0,1.43,0,2.7,0,3.75"/><path d="M24.84,55.13c1.43-0.12,12.89-1.52,17.03-2.05c3.26-0.42,4.36,0.6,4.23,3.79c-0.21,5.07-0.33,24.14-0.33,34.38c0,9.25-4.99,1.27-5.56,0.55"/><path d="M25.09,65.72C29,65.12,39,64.38,44.7,63.87"/></g></g><g><g></g><g><g></g><g></g></g></g></g></g></svg>