<svg class="voyager-component-icon icon" xmlns="http://www.w3.org/2000/svg" width="109" height="109" viewBox="0 0 109 109"><g style="fill:none;stroke:#000000;stroke-width:8.5;stroke-linecap:square;stroke-linejoin:miter;"><g><g><g><path d="M30.24,12c0.13,0.75,0.17,1.47-0.08,2.26C28.62,19,23.38,27.5,15.24,35.62"/><path d="M28.89,19.88c1.93,0,12.07-1.19,14.1-1.48c1.74-0.25,2.89,1.23,1.41,3.15c-3.67,4.77-6.64,7.57-11.95,15.15"/></g><g><g><path d="M16.72,39.14c0.88,0.88,1.25,2.39,1.4,3.36C19,49,19.95,56.65,20.53,64.02c0.11,1.36,0.2,2.67,0.29,3.91"/><path d="M18.78,40.52c7.03-1.05,18.9-2.76,25.62-3.83c3.69-0.58,5.63-0.52,5.34,3.7c-0.32,4.54-0.74,12.24-1.7,19.4c-0.2,1.51-0.43,3-0.69,4.43"/><path d="M33.06,39.98c0.92,0.92,1.08,2.01,1.11,3.54c0.12,6.73,0.03,14.52,0.03,17.85"/></g><g><path d="M26.95,75.33c0.91,2.36,1.77,8.87,1.99,12.54"/><path d="M35.88,73.38c1.35,2.03,3.48,8.36,3.82,11.53"/><path d="M44.75,70.38c1.85,1.9,4.79,7.82,5.25,10.78"/></g></g></g><g><g></g></g></g></g></svg>