<svg class="icon construction-icon" width="14.303867mm" height="14.214467mm" viewBox="0 0 14.303867 14.214467" version="1.1" id="svg1" xmlns="http://www.w3.org/2000/svg" xmlns:svg="http://www.w3.org/2000/svg"><defs id="defs1"/><g id="layer1" transform="translate(-7.9004826,-89.207151)"><path d="m 22.20435,89.841075 h -2.218724 v -0.633921 h 2.218724 z m -3.031444,0 h -2.210598 v -0.633921 h 2.210598 z m -3.015191,0 h -2.210597 v -0.633921 h 2.210597 z m -3.007063,0 h -2.218725 v -0.633921 h 2.218725 z m -3.01519,0 H 7.9167367 v -0.633921 h 2.2187253 z m 12.052634,3.047699 h -0.633921 v -2.234979 h 0.633921 z m -13.6536923,0 h -0.633921 v -2.234979 h 0.633921 z M 22.188096,95.920219 H 21.554175 V 93.68524 h 0.633921 z m -13.6536923,0 H 7.9004827 V 93.68524 h 0.633921 z m 13.6536923,3.023317 h -0.633921 v -2.226852 h 0.633921 z m -13.6536923,0 h -0.633921 v -2.226852 h 0.633921 z m 13.6536923,3.031444 h -0.633921 v -2.210597 h 0.633921 z m -13.6536923,0 h -0.633921 v -2.210597 h 0.633921 z m 13.6699463,1.44664 h -2.218724 v -0.63392 h 2.218724 z m -3.031444,0 h -2.210598 v -0.63392 h 2.210598 z m -3.015191,0 h -2.210597 v -0.63392 h 2.210597 z m -3.007063,0 h -2.218725 v -0.63392 h 2.218725 z m -3.01519,0 H 7.9167367 V 102.7877 H 10.135462 Z M 15.36125,92.888774 h -0.633921 v -2.234979 h 0.633921 z m 0,3.031445 H 14.727329 V 93.68524 h 0.633921 z m 0,3.023317 h -0.633921 v -2.226852 h 0.633921 z m 0,3.031444 h -0.633921 v -2.210597 h 0.633921 z" id="path1"/></g></svg>