<svg width="14.303858mm" height="14.214467mm" viewBox="0 0 14.303858 14.214467" version="1.1" id="svg1" xmlns="http://www.w3.org/2000/svg" xmlns:svg="http://www.w3.org/2000/svg"><defs id="defs1"/><g id="layer1" transform="translate(-176.25381,-88.207952)"><path d="m 190.55769,88.841875 h -2.21872 v -0.633921 h 2.21872 z m -3.03144,0 h -2.2106 v -0.633921 h 2.2106 z m -3.01519,0 h -2.2106 v -0.633921 h 2.2106 z m -3.00706,0 h -2.21873 v -0.633921 h 2.21873 z m -3.01519,0 h -2.21873 v -0.633921 h 2.21873 z m 12.05263,3.047699 h -0.63392 v -2.234979 h 0.63392 z m -13.65369,0 h -0.63392 v -2.234979 h 0.63392 z m 13.65369,3.031445 h -0.63392 V 92.68604 h 0.63392 z m -13.65369,0 h -0.63392 V 92.68604 h 0.63392 z m 13.65369,3.023317 h -0.63392 v -2.226852 h 0.63392 z m -13.65369,0 h -0.63392 v -2.226852 h 0.63392 z m 13.65369,3.031444 h -0.63392 v -2.210597 h 0.63392 z m -13.65369,0 h -0.63392 v -2.210597 h 0.63392 z m 13.66994,1.44664 h -2.21872 v -0.63392 h 2.21872 z m -3.03144,0 h -2.2106 v -0.63392 h 2.2106 z m -3.01519,0 h -2.2106 v -0.63392 h 2.2106 z m -3.00706,0 h -2.21873 v -0.63392 h 2.21873 z m -3.01519,0 h -2.21873 v -0.63392 h 2.21873 z m 1.56854,-12.767825 h 0.63393 v 1.657948 h -0.63393 z m 0,4.876318 h 0.63393 v 1.657949 h -0.63393 z m 0,-2.438159 h 0.63393 v 1.657948 h -0.63393 z m 9.03745,5.900346 v 0.633921 h -1.98304 V 97.9931 Z m -2.79576,0 v 0.633921 h -1.99116 V 97.9931 Z m -2.80388,0 v 0.633921 h -1.98304 V 97.9931 Z m -3.43781,-1.024027 h 0.63393 v 1.657948 h -0.63393 z" id="path1-1"/></g></svg>