<svg class="icon construction-icon" width="14.303858mm" height="14.214467mm" viewBox="0 0 14.303858 14.214467" version="1.1" id="svg1" xmlns="http://www.w3.org/2000/svg" xmlns:svg="http://www.w3.org/2000/svg"><defs id="defs1"/><g id="layer1" transform="translate(-190.2525,-49.843371)"><path d="m 201.04542,50.477292 h -2.09682 v -0.633921 h 2.09682 z m -2.90141,0 h -2.09682 v -0.633921 h 2.09682 z m -2.90141,0 h -2.09682 v -0.633921 h 2.09682 z m -2.89329,0 h -2.09681 v -0.633921 h 2.09681 z m -1.46289,2.893282 h -0.63392 v -2.096817 h 0.63392 z m 0,2.893283 H 190.2525 V 54.16704 h 0.63392 z m 0,2.893282 h -0.63392 v -2.096817 h 0.63392 z m 10.159,1.430387 h -2.09682 v -0.633922 h 2.09682 z m -2.90141,0 h -2.09682 v -0.633922 h 2.09682 z m -2.90141,0 h -2.09682 v -0.633922 h 2.09682 z m -2.89329,0 h -2.09681 v -0.633922 h 2.09681 z m 8.69611,-7.80211 h -0.63393 v -1.511659 h 0.63393 z m 0,3.478441 h -0.63393 v -1.706712 h 0.63393 z m 0,2.893282 h -0.63393 v -2.096817 h 0.63393 z m 3.51094,-5.168898 h -2.09681 V 53.35432 h 2.09681 z m -2.90141,0 h -2.09681 V 53.35432 h 2.09681 z m -2.9014,0 h -2.09682 V 53.35432 h 2.09682 z m -2.89329,0 h -2.09681 V 53.35432 h 2.09681 z m -1.46289,2.852647 h -0.63392 v -2.096817 h 0.63392 z m 0,2.543813 h -0.63392 v -1.747348 h 0.63392 z m 0,3.242752 h -0.63392 V 61.15643 h 0.63392 z m 10.15899,1.430386 h -2.09681 v -0.633921 h 2.09681 z m -2.90141,0 h -2.09681 v -0.633921 h 2.09681 z m -2.9014,0 h -2.09682 v -0.633921 h 2.09682 z m -2.89329,0 h -2.09681 v -0.633921 h 2.09681 z m 8.6961,-7.216951 h -0.63392 v -2.096817 h 0.63392 z m 0,2.893282 h -0.63392 v -2.096817 h 0.63392 z m 0,2.893283 h -0.63392 v -2.096817 h 0.63392 z" id="path1-8"/></g></svg>