<svg width="14.303867mm" height="14.214467mm" viewBox="0 0 14.303867 14.214467" version="1.1" id="svg1" xmlns="http://www.w3.org/2000/svg" xmlns:svg="http://www.w3.org/2000/svg"><defs id="defs1"/><g id="layer1" transform="translate(-31.744985,-88.737119)"><path d="m 46.048854,89.371042 h -2.218725 v -0.633921 h 2.218725 z m -3.031445,0 h -2.210597 v -0.633921 h 2.210597 z m -3.01519,0 h -2.210598 v -0.633921 h 2.210598 z m -3.007063,0 h -2.218725 v -0.633921 h 2.218725 z m -3.01519,0 h -2.218725 v -0.633921 h 2.218725 z M 46.0326,92.418741 H 45.398678 V 90.183762 H 46.0326 Z m -13.653692,0 h -0.633922 v -2.234979 h 0.633922 z M 46.0326,95.450186 H 45.398678 V 93.215207 H 46.0326 Z m -13.653692,0 h -0.633922 v -2.234979 h 0.633922 z M 46.0326,98.473503 H 45.398678 V 96.246651 H 46.0326 Z m -13.653692,0 h -0.633922 v -2.226852 h 0.633922 z M 46.0326,101.50495 h -0.633922 v -2.2106 H 46.0326 Z m -13.653692,0 h -0.633922 v -2.2106 h 0.633922 z m 13.669946,1.44664 h -2.218725 v -0.63392 h 2.218725 z m -3.031445,0 h -2.210597 v -0.63392 h 2.210597 z m -3.01519,0 h -2.210598 v -0.63392 h 2.210598 z m -3.007063,0 h -2.218725 v -0.63392 h 2.218725 z m -3.01519,0 h -2.218725 v -0.63392 h 2.218725 z m 10.605993,-6.794338 h -2.218725 v -0.633921 h 2.218725 z m -3.055827,0 h -2.218725 v -0.633921 h 2.218725 z m -3.055826,0 h -2.218725 v -0.633921 h 2.218725 z m -3.063953,0 h -2.218725 v -0.633921 h 2.218725 z" id="path1-6"/></g></svg>