<svg class="icon construction-icon" width="14.303867mm" height="14.214467mm" viewBox="0 0 14.303867 14.214467" version="1.1" id="svg1" xmlns="http://www.w3.org/2000/svg" xmlns:svg="http://www.w3.org/2000/svg"><defs id="defs1"/><g id="layer1" transform="translate(-55.00407,-88.737119)"><path d="m 69.307938,89.371042 h -2.218725 v -0.633921 h 2.218725 z m -3.031445,0 h -2.210598 v -0.633921 h 2.210598 z m -3.01519,0 h -2.210598 v -0.633921 h 2.210598 z m -3.007063,0 h -2.218725 v -0.633921 h 2.218725 z m -3.015191,0 h -2.218724 v -0.633921 h 2.218724 z m 12.052635,3.047699 h -0.633922 v -2.234979 h 0.633922 z m -13.653692,0 H 55.00407 v -2.234979 h 0.633922 z m 13.653692,3.031445 h -0.633922 v -2.234979 h 0.633922 z m -13.653692,0 H 55.00407 v -2.234979 h 0.633922 z m 13.653692,3.023317 h -0.633922 v -2.226852 h 0.633922 z m -13.653692,0 H 55.00407 v -2.226852 h 0.633922 z m 13.653692,3.031447 h -0.633922 v -2.2106 h 0.633922 z m -13.653692,0 H 55.00407 v -2.2106 h 0.633922 z m 13.669946,1.44664 h -2.218725 v -0.63392 h 2.218725 z m -3.031445,0 h -2.210598 v -0.63392 h 2.210598 z m -3.01519,0 h -2.210598 v -0.63392 h 2.210598 z m -3.007063,0 h -2.218725 v -0.63392 h 2.218725 z m -3.015191,0 h -2.218724 v -0.63392 h 2.218724 z m 2.950173,-10.532849 h -0.633921 v -2.234979 h 0.633921 z m 0,3.031445 h -0.633921 v -2.234979 h 0.633921 z m 0,3.023317 h -0.633921 v -2.226852 h 0.633921 z m 0,3.031447 h -0.633921 v -2.2106 h 0.633921 z m 4.551231,-9.086209 h -0.633922 v -2.234979 h 0.633922 z m 0,3.031445 h -0.633922 v -2.234979 h 0.633922 z m 0,3.023317 h -0.633922 v -2.226852 h 0.633922 z m 0,3.031447 h -0.633922 v -2.2106 h 0.633922 z" id="path1-2"/></g></svg>