<svg class="icon construction-icon" width="14.303867mm" height="14.214475mm" viewBox="0 0 14.303867 14.214475" version="1.1" id="svg1" xmlns="http://www.w3.org/2000/svg" xmlns:svg="http://www.w3.org/2000/svg"><defs id="defs1"/><g id="layer1" transform="translate(-84.61315,-90.060042)"><path d="m 98.917022,90.693959 h -2.218725 v -0.633921 h 2.218725 z m -3.031445,0 h -2.210598 v -0.633921 h 2.210598 z m -3.01519,0 h -2.210598 v -0.633921 h 2.210598 z m -3.007063,0 h -2.218725 v -0.633921 h 2.218725 z m -3.015191,0 h -2.218725 v -0.633921 h 2.218725 z m 12.052634,3.047699 h -0.633921 v -2.234979 h 0.633921 z m -13.653692,0 h -0.633921 v -2.234979 h 0.633921 z m 13.653692,3.031445 h -0.633921 v -2.234979 h 0.633921 z m -13.653692,0 h -0.633921 v -2.234979 h 0.633921 z m 13.653692,3.023317 h -0.633921 v -2.226852 h 0.633921 z m -13.653692,0 h -0.633921 v -2.226852 h 0.633921 z m 13.653692,3.03145 h -0.633921 v -2.2106 h 0.633921 z m -13.653692,0 h -0.633921 v -2.2106 h 0.633921 z m 13.669947,1.44664 h -2.218725 v -0.63392 h 2.218725 z m -3.031445,0 h -2.210598 v -0.63392 h 2.210598 z m -3.01519,0 h -2.210598 v -0.63392 h 2.210598 z m -3.007063,0 h -2.218725 v -0.63392 h 2.218725 z m -3.015191,0 h -2.218725 v -0.63392 h 2.218725 z m 10.605993,-9.053702 h -2.218725 v -0.633921 h 2.218725 z m -3.055826,0 H 92.179575 V 94.586887 H 94.3983 Z m -3.055827,0 h -2.218724 v -0.633921 h 2.218724 z m -3.063953,0 h -2.218725 v -0.633921 h 2.218725 z m 9.175606,4.526849 h -2.218725 v -0.633921 h 2.218725 z m -3.055826,0 H 92.179575 V 99.113736 H 94.3983 Z m -3.055827,0 h -2.218724 v -0.633921 h 2.218724 z m -3.063953,0 h -2.218725 v -0.633921 h 2.218725 z" id="path1-3"/></g></svg>