<svg width="14.303875mm" height="14.214467mm" viewBox="0 0 14.303875 14.214467" version="1.1" id="svg1" xmlns="http://www.w3.org/2000/svg" xmlns:svg="http://www.w3.org/2000/svg"><defs id="defs1"/><g id="layer1" transform="translate(-101.78682,-79.212125)"><path d="m 116.09069,79.846042 h -2.21873 v -0.633921 h 2.21873 z m -3.03144,0 h -2.2106 v -0.633921 h 2.2106 z m -3.0152,0 h -2.21059 v -0.633921 h 2.21059 z m -3.00706,0 h -2.21872 v -0.633921 h 2.21872 z m -3.01519,0 h -2.21872 v -0.633921 h 2.21872 z m 12.05263,3.047699 h -0.63392 v -2.234979 h 0.63392 z m -13.65369,0 h -0.63392 v -2.234979 h 0.63392 z m 13.65369,3.031445 h -0.63392 v -2.234979 h 0.63392 z m -13.65369,0 h -0.63392 v -2.234979 h 0.63392 z m 13.65369,3.023317 h -0.63392 v -2.226852 h 0.63392 z m -13.65369,0 h -0.63392 v -2.226852 h 0.63392 z m 13.65369,3.031445 h -0.63392 V 89.76935 h 0.63392 z m -13.65369,0 h -0.63392 V 89.76935 h 0.63392 z m 13.66995,1.446641 h -2.21873 v -0.633921 h 2.21873 z m -3.03145,0 h -2.21059 v -0.633921 h 2.21059 z m -3.01519,0 h -2.21059 v -0.633921 h 2.21059 z m -3.00706,0 h -2.21872 v -0.633921 h 2.21872 z m -3.01519,0 h -2.21872 v -0.633921 h 2.21872 z m 0.8371,-10.508466 v -0.633922 h 2.19435 v 0.633922 z m 5.94911,0 v -0.633922 h 2.19434 v 0.633922 z m -2.97455,0 v -0.633922 h 2.19434 v 0.633922 z m -2.97456,7.436386 v -0.633922 h 2.19435 v 0.633922 z m 5.94911,0 v -0.633922 h 2.19434 v 0.633922 z m -2.97455,0 v -0.633922 h 2.19434 v 0.633922 z m -2.97456,-6.631794 h 0.63392 v 2.194344 h -0.63392 z m 0,2.998936 h 0.63392 v 2.194344 h -0.63392 z m 7.50953,-2.998936 h 0.63392 v 2.194344 h -0.63392 z m 0,2.998936 h 0.63392 v 2.194344 h -0.63392 z" id="path1-26"/></g></svg>