<svg class="icon construction-icon" width="36.451077mm" height="36.223267mm" viewBox="0 0 36.451077 36.223267" version="1.1" id="svg1" xmlns="http://www.w3.org/2000/svg" xmlns:svg="http://www.w3.org/2000/svg"><defs id="defs1" /><g id="layer1" transform="translate(-33.175069,-90.543507)"><path d="m 69.626143,92.158953 h -5.654059 v -1.615445 h 5.654059 z m -7.725143,0 H 56.267652 V 90.543508 H 61.901 Z m -7.683721,0 h -5.633348 v -1.615445 h 5.633348 z m -7.66301,0 H 40.90021 v -1.615445 h 5.654059 z m -7.683721,0 h -5.65406 v -1.615445 h 5.65406 z m 30.714174,7.766565 h -1.615446 v -5.695481 h 1.615446 z m -34.79421,0 h -1.615445 v -5.695481 h 1.615445 z m 34.79421,7.725142 h -1.615446 v -5.69548 h 1.615446 z m -34.79421,0 h -1.615445 v -5.69548 h 1.615445 z m 34.79421,7.70443 h -1.615446 v -5.67477 h 1.615446 z m -34.79421,0 h -1.615445 v -5.67477 h 1.615445 z m 34.79421,7.72515 h -1.615446 v -5.63335 h 1.615446 z m -34.79421,0 h -1.615445 v -5.63335 h 1.615445 z m 34.835631,3.68653 h -5.654059 v -1.61545 h 5.654059 z m -7.725143,0 h -5.633348 v -1.61545 H 61.901 Z m -7.683721,0 h -5.633348 v -1.61545 h 5.633348 z m -7.66301,0 H 40.90021 v -1.61545 h 5.654059 z m -7.683721,0 h -5.65406 v -1.61545 h 5.65406 z m 3.375866,-25.53647 v -1.615445 h 4.763493 v 1.615445 z m 13.503467,0 v -1.615445 h 4.763493 v 1.615445 z m -6.751733,0 v -1.615445 h 4.763493 v 1.615445 z m -6.751734,2.05037 h 1.615446 v 5.17771 h -1.615446 z m 0,7.22809 h 1.615446 v 5.17771 h -1.615446 z m 16.651515,-7.22809 h 1.615445 v 5.17771 h -1.615445 z m 0,7.22809 h 1.615445 v 5.17771 h -1.615445 z m -16.651515,7.39377 h 1.615446 v 5.17771 h -1.615446 z m 16.651515,0 h 1.615445 v 5.17771 h -1.615445 z" id="path1"/></g></svg>