<svg class="icon construction-icon" width="14.303867mm" height="14.214467mm" viewBox="0 0 14.303867 14.214467" version="1.1" id="svg1" xmlns="http://www.w3.org/2000/svg" xmlns:svg="http://www.w3.org/2000/svg"><defs id="defs1"/><g id="layer1" transform="translate(-107.82374,-85.562124)"><path d="m 122.12761,86.196042 h -2.21872 v -0.633921 h 2.21872 z m -3.03144,0 h -2.2106 v -0.633921 h 2.2106 z m -3.01519,0 h -2.2106 v -0.633921 h 2.2106 z m -3.00707,0 h -2.21872 v -0.633921 h 2.21872 z m -3.01519,0 H 107.84 v -0.633921 h 2.21872 z m 12.05264,3.047699 h -0.63392 v -2.234979 h 0.63392 z m -13.6537,0 h -0.63392 v -2.234979 h 0.63392 z m 13.6537,3.031445 h -0.63392 v -2.234979 h 0.63392 z m -13.6537,0 h -0.63392 v -2.234979 h 0.63392 z m 13.6537,3.023317 h -0.63392 v -2.226852 h 0.63392 z m -13.6537,0 h -0.63392 v -2.226852 h 0.63392 z m 13.6537,3.031445 h -0.63392 V 96.11935 h 0.63392 z m -13.6537,0 h -0.63392 V 96.11935 h 0.63392 z m 13.66995,1.446641 h -2.21872 v -0.633921 h 2.21872 z m -3.03144,0 h -2.2106 v -0.633921 h 2.2106 z m -3.01519,0 h -2.2106 v -0.633921 h 2.2106 z m -3.00707,0 h -2.21872 v -0.633921 h 2.21872 z m -3.01519,0 H 107.84 v -0.633921 h 2.21872 z m 1.32474,-3.559712 v -0.633922 h 1.86925 v 0.633922 z m 5.29893,0 v -0.633922 h 1.86925 v 0.633922 z m -2.64947,0 v -0.633922 h 1.86926 v 0.633922 z m -2.64946,-9.208115 h 0.63392 v 2.039926 h -0.63392 z m 0,2.852646 h 0.63392 v 2.048054 h -0.63392 z m 6.53426,-2.852646 h 0.63392 v 2.039926 h -0.63392 z m 0,2.852646 h 0.63392 v 2.048054 h -0.63392 z m -6.53426,2.860774 h 0.63392 v 2.039926 h -0.63392 z m 6.53426,0 h 0.63392 v 2.039926 h -0.63392 z" id="path1-9"/></g></svg>