<svg width="14.303858mm" height="14.214467mm" viewBox="0 0 14.303858 14.214467" version="1.1" id="svg1" xmlns="http://www.w3.org/2000/svg" xmlns:svg="http://www.w3.org/2000/svg"><defs id="defs1"/><g id="layer1" transform="translate(-136.08565,-83.710035)"><path d="m 150.38952,84.343959 h -2.21872 v -0.633921 h 2.21872 z m -3.03144,0 h -2.2106 v -0.633921 h 2.2106 z m -3.01519,0 h -2.2106 v -0.633921 h 2.2106 z m -3.00707,0 h -2.21872 v -0.633921 h 2.21872 z m -3.01519,0 h -2.21872 v -0.633921 h 2.21872 z m 12.05264,3.047699 h -0.63392 v -2.234979 h 0.63392 z m -13.65369,0 h -0.63393 v -2.234979 h 0.63393 z m 13.65369,3.031445 h -0.63392 v -2.234979 h 0.63392 z m -13.65369,0 h -0.63393 v -2.234979 h 0.63393 z m 13.65369,3.023317 h -0.63392 v -2.226852 h 0.63392 z m -13.65369,0 h -0.63393 v -2.226852 h 0.63393 z m 13.65369,3.031445 h -0.63392 v -2.210598 h 0.63392 z m -13.65369,0 h -0.63393 v -2.210598 h 0.63393 z m 13.66994,1.446641 h -2.21872 v -0.633921 h 2.21872 z m -3.03144,0 h -2.2106 v -0.633921 h 2.2106 z m -3.01519,0 h -2.2106 v -0.633921 h 2.2106 z m -3.00707,0 h -2.21872 v -0.633921 h 2.21872 z m -3.01519,0 h -2.21872 v -0.633921 h 2.21872 z m 1.56855,-10.419067 h 0.63392 v 1.657948 h -0.63392 z m 0,4.876319 h 0.63392 v 1.657948 h -0.63392 z m 0,-2.43816 h 0.63392 v 1.657949 h -0.63392 z m 9.03745,-2.438159 v 0.633921 h -1.98304 v -0.633921 z m -2.79576,0 v 0.633921 h -1.99116 v -0.633921 z m -2.80388,0 v 0.633921 h -1.98304 v -0.633921 z m -3.43781,7.314478 h 0.63392 v 1.657948 h -0.63392 z" id="path1-28"/></g></svg>