<svg class="icon construction-icon" width="14.303867mm" height="14.214467mm" viewBox="0 0 14.303867 14.214467" version="1.1" id="svg1" xmlns="http://www.w3.org/2000/svg" xmlns:svg="http://www.w3.org/2000/svg"><defs id="defs1"/><g id="layer1" transform="translate(-129.49532,-37.672538)"><path d="m 143.79919,38.306459 h -2.21872 v -0.633921 h 2.21872 z m -3.03144,0 h -2.2106 v -0.633921 h 2.2106 z m -3.01519,0 h -2.2106 v -0.633921 h 2.2106 z m -3.00707,0 h -2.21872 v -0.633921 h 2.21872 z m -3.01519,0 h -2.21872 v -0.633921 h 2.21872 z m 12.05264,3.047699 h -0.63392 v -2.234979 h 0.63392 z m -13.65369,0 h -0.63393 v -2.234979 h 0.63393 z m 13.65369,3.031445 h -0.63392 v -2.234979 h 0.63392 z m -13.65369,0 h -0.63393 v -2.234979 h 0.63393 z m 13.65369,3.023317 h -0.63392 v -2.226852 h 0.63392 z m -13.65369,0 h -0.63393 v -2.226852 h 0.63393 z m 13.65369,3.031445 h -0.63392 v -2.210598 h 0.63392 z m -13.65369,0 h -0.63393 v -2.210598 h 0.63393 z m 13.66994,1.446641 h -2.21872 v -0.633921 h 2.21872 z m -3.03144,0 h -2.2106 v -0.633921 h 2.2106 z m -3.01519,0 h -2.2106 v -0.633921 h 2.2106 z m -3.00707,0 h -2.21872 v -0.633921 h 2.21872 z m -3.01519,0 h -2.21872 v -0.633921 h 2.21872 z m 1.32474,-10.687265 h 0.63392 v 1.869256 h -0.63392 z m 0,5.298933 h 0.63392 v 1.869256 h -0.63392 z m 0,-2.649466 h 0.63392 v 1.869255 h -0.63392 z m 9.28126,-2.649467 v 0.633922 h -2.06431 v -0.633922 z m -2.87703,0 v 0.633922 h -2.07244 v -0.633922 z m 2.87703,6.534267 v 0.633922 h -2.06431 v -0.633922 z m -2.87703,0 v 0.633922 h -2.07244 v -0.633922 z m -2.88516,-6.534267 v 0.633922 h -2.06431 v -0.633922 z m 0,6.534267 v 0.633922 h -2.06431 v -0.633922 z" id="path1-37"/></g></svg>