<svg class="voyager-component-icon icon" xmlns="http://www.w3.org/2000/svg" width="109" height="109" viewBox="0 0 109 109"><g style="fill:none;stroke:#000000;stroke-width:8.5;stroke-linecap:square;stroke-linejoin:miter;"><g><g><g><path d="M52.32,30.71c0.68,1.29,0.7,2.97,0.42,4.76c-1.99,12.78-10.99,38.78-31.61,50.95"/></g><g><path d="M41.65,26.58c1.98,0.55,4.28,0.72,6.89,0.26c6.09-1.07,21.11-5.81,25.2-7.08s5.27,1.31,3.62,4.29C61.5,52.75,60.38,47.62,77,44.65c2.65-0.47,3.97,1.32,3.07,3.55c-7.82,19.3-18.32,32.55-38.07,42.57"/><path d="M49.4,53.36c6.52,5.93,22.43,22.03,32.39,29.72c3.24,2.51,6.83,4.75,10.46,6.65"/></g></g></g></g></svg>