<svg class="voyager-component-icon icon" xmlns="http://www.w3.org/2000/svg" width="109" height="109" viewBox="0 0 109 109"><g style="fill:none;stroke:#000000;stroke-width:8.5;stroke-linecap:square;stroke-linejoin:miter;"><g><g><g><path d="M62.66,16.3c0.34,1.33,0.28,2.31-0.09,3.52c-2.36,7.73-8.16,22.98-16.32,33.68"/><path d="M59.81,36.74c1.57,0.26,2.79,0.03,3.51-0.07c5.53-0.79,15.31-2.47,22.19-3.63c1.76-0.3,3.49-0.46,5.27-0.19"/></g><g><g><path d="M78.81,37.89c0.44,1.36,0.68,2.86-0.18,5.26C71.5,63,58.88,82.62,39.88,93.12"/></g><path d="M54.56,52.34c3.73,0.29,21.17,24.37,33.3,34.27c2.31,1.89,4.86,3.89,7.89,4.39"/></g></g></g></g></svg>