<svg class="voyager-component-icon icon" xmlns="http://www.w3.org/2000/svg" width="109" height="109" viewBox="0 0 109 109"><g style="fill:none;stroke:#000000;stroke-width:8.5;stroke-linecap:square;stroke-linejoin:miter;"><g><g><path d="M76.54,13.75c0.05,0.45,0,1.34-0.35,1.82C72,21.38,65.5,27.88,57.12,33"/><path d="M54.49,34.88c0.88,0.88,1.11,2.16,1.16,4.06c0.73,28.93-4.52,43.18-14.9,52.31"/><path d="M57.99,46.59c1.64,0.03,2.7-0.01,3.97-0.17C69.38,45.5,85.5,43,92.77,41.64c1.25-0.24,3.23-0.39,4.52,0"/><path d="M76.33,47.48c0.91,0.91,1.6,2.4,1.6,4c0,1.05,0.03,27.44,0.04,40.9c0,2.48,0,4.51,0,5.88"/></g></g></g></svg>