<svg class="voyager-component-icon icon" xmlns="http://www.w3.org/2000/svg" width="109" height="109" viewBox="0 0 109 109"><g style="fill:none;stroke:#000000;stroke-width:8.5;stroke-linecap:square;stroke-linejoin:miter;"><g><g><g><path d="M66.65,12.12c0.6,1.25,0.64,2.27,0.47,3.64c-1.75,13.86-4.75,25.99-16.34,36.84"/><g><path d="M50.14,25.19c1.99,0.68,4.62,0.33,6.01,0.08c5.09-0.92,16.73-3.59,20.58-4.48c2.78-0.64,4.83,0.13,4.27,3.52c-0.63,3.81-1.13,6.81-1.58,13.46c-0.56,8.2,1.08,9.86,7.9,9.86c7.68,0,9.2-0.86,9.2-6.59"/></g></g><g><path d="M46.75,68.47c2.62,0.53,5.27,0.4,7.25,0.12c11.25-1.59,27.32-3.18,36.38-3.8c2.57-0.18,4.68-0.07,7.12,0.81"/><path d="M69.6,50.55c1.12,1.12,1.42,2.58,1.42,4.31c0,0.55,0.07,25.47,0.08,37.14c0,3.34,0.01,5.59,0,5.88"/></g></g></g></g></svg>