<svg class="voyager-component-icon icon" xmlns="http://www.w3.org/2000/svg" width="109" height="109" viewBox="0 0 109 109"><g style="fill:none;stroke:#000000;stroke-width:8.5;stroke-linecap:square;stroke-linejoin:miter;"><g><g><g><path d="M59.66,21.75c0.39,1.13,0.27,2.3-0.18,3.3c-2.81,6.17-7.62,14.33-14.73,21.2"/><path d="M67.99,15c5.67,1.09,13.47,15.72,20.05,22.58c2.03,2.11,4.17,4.14,6.71,5.67"/></g><g><path d="M50.98,53.12c2.15,0.76,4.04,0.83,6.3,0.4c6.33-1.22,18.23-3.46,23.25-4.28c4.06-0.67,5.33,0.6,4.9,4.66c-0.96,9.04-4.13,24.92-9.88,35.65c-3.19,5.96-5.94,3.08-7.76,1.01"/><path d="M63.74,56c0.05,0.74,0.21,1.97-0.1,2.97C60,70.88,56.12,78.75,47.12,89.25"/></g></g></g></g></svg>