<svg class="voyager-component-icon icon" xmlns="http://www.w3.org/2000/svg" width="109" height="109" viewBox="0 0 109 109"><g style="fill:none;stroke:#000000;stroke-width:8.5;stroke-linecap:square;stroke-linejoin:miter;"><g><g><g><path d="M50.14,23.07c1.11,0.68,2.17,1.21,3.77,1.04c9.34-0.99,21.44-2.5,24.88-2.97c2.96-0.4,4.67,1.69,4.21,3.94C82,30,80.75,35.5,79,43.75"/><path d="M52.5,47.75c3.36-0.2,16.14-1.91,24-2.78c2.25-0.25,4.06-0.18,5.06-0.24"/><g><path d="M51.5,24.12c1,1,1.25,2,1.25,4c0,21.54-0.38,50-15.5,65.62"/></g></g><g><path d="M61,47.5c6.02,12.71,15.96,29.35,23.68,38.58c2.53,3.02,4.94,5.55,7.57,7.67"/></g></g></g></g></svg>