<svg class="voyager-component-icon icon" xmlns="http://www.w3.org/2000/svg" width="109" height="109" viewBox="0 0 109 109"><g style="fill:none;stroke:#000000;stroke-width:8.5;stroke-linecap:square;stroke-linejoin:miter;"><g><g><path d="M53,32.94c1.09,1.09,1.65,2.7,1.71,3.78c0.62,12.35,0.88,27.26,1.38,42.53c0.04,1.16,0.08,2.31,0.12,3.47"/><path d="M54.88,34.77c10.39-0.89,28.19-2.9,35.95-3.76c2.85-0.32,4.3,2.25,4.14,4.62c-0.51,7.82-1.75,29.09-2.96,40.9c-0.13,1.31-0.27,2.52-0.41,3.58"/><path d="M72.14,34.52c1.29,1.29,1.96,3.28,1.96,5.24c-0.02,10.77,0.19,34.89,0.19,38.52"/><path d="M56.74,56.48c5.39-0.73,31.39-2.73,35.65-2.75"/><path d="M57.26,80.42c10.99-0.92,18.99-1.92,33.43-2.71"/></g></g></g></svg>