<svg class="voyager-component-icon icon" xmlns="http://www.w3.org/2000/svg" width="109" height="109" viewBox="0 0 109 109"><g style="fill:none;stroke:#000000;stroke-width:8.5;stroke-linecap:square;stroke-linejoin:miter;"><g><g><g><path d="M51.78,23.17c2.12,0.47,4.1,0.57,6.23,0.25c9.94-1.49,26.42-5.55,31.39-5.95c3.46-0.28,5.21,1.28,4.64,5.28c-0.92,6.38-3.54,17.19-8.7,25.49C81.75,54,79,49,76.76,46.28"/><path d="M68.51,24.39c0.06,0.78,0.05,2.3-0.37,3.38C63.5,39.5,58.5,48.75,47.17,58.35"/></g><g><path d="M51.58,66.17c0.87,0.87,1.42,2.08,1.66,3.12c0.88,3.75,2.2,12.92,3.06,20.9c0.17,1.55,0.32,3.01,0.47,4.3"/><path d="M54.38,68.22c8.53-1.45,25.73-3.61,32.61-4.19c2.28-0.19,5.44,0.72,4.27,5.27c-1.29,5.05-3.51,12.8-4.9,19.94"/><path d="M57.69,91.62c5.71-0.32,17.11-1.05,26.56-1.53c1.47-0.07,2.88-0.14,4.2-0.2"/></g></g></g></g></svg>