<svg class="voyager-component-icon icon" xmlns="http://www.w3.org/2000/svg" width="109" height="109" viewBox="0 0 109 109"><g style="fill:none;stroke:#000000;stroke-width:8.5;stroke-linecap:square;stroke-linejoin:miter;"><g><g><g><path d="M72.66,14.92c0.59,1.83-0.09,3.9-1,5.76c-5.9,12.07-10.15,20.07-16.41,28.98c-2.66,3.78-0.74,5.04,2.51,4.19c9-2.35,15.5-4.35,29.92-8.45"/><path d="M80.67,36.83C85.02,39.94,91.91,49.62,93,54.46"/></g><g><path d="M55.37,65.21c1.01,0.54,1.63,1.79,1.84,3.03c0.97,5.83,1.89,13.59,2.71,20c0.15,1.17,0.3,2.29,0.44,3.36"/><path d="M57.84,66.93c12.13-2.51,21.57-3.92,28.52-4.76c3.35-0.4,5.46,0.32,4.67,3.97c-1.53,7.12-2.83,12.4-4.37,19.26"/><path d="M61.49,88.74c9.87-0.91,13.42-1.41,24.01-2.1c0.96-0.06,1.97-0.13,3.05-0.19"/></g></g></g></g></svg>