<svg class="voyager-component-icon icon" xmlns="http://www.w3.org/2000/svg" width="109" height="109" viewBox="0 0 109 109"><g style="fill:none;stroke:#000000;stroke-width:8.5;stroke-linecap:square;stroke-linejoin:miter;"><g><g></g><g><g><path d="M47.47,18.82c1.29,0.32,2.96,0.31,5.54-0.18s19.22-4.84,20.97-5.43c2.51-0.84,4.91,0.85,3.68,3.56c-9.29,20.48-21.41,33.6-37.84,43.48"/><path d="M49.88,29.12c7-0.12,21.66,14.62,35.79,22.52c3.17,1.77,6.58,3.73,10.21,4.36"/></g><g><path d="M48.13,70.42c2,0.46,4.04,0.35,5.98,0.15c9.15-0.94,18.02-1.94,27.02-2.58c1.94-0.14,3.84-0.15,5.75,0.3"/><path d="M64.42,56.37c1.11,1.11,1.76,2.52,1.77,4.39c0.06,11.5,0.14,26.07,0.14,29.11"/><path d="M38.63,91.89c1.96,0.7,5.57,0.85,7.53,0.7c17.69-1.32,19.8-1.86,42.84-2.13c3.27-0.04,5.24,0.33,6.88,0.68"/></g></g></g></g></svg>