<svg class="voyager-component-icon icon" xmlns="http://www.w3.org/2000/svg" width="109" height="109" viewBox="0 0 109 109"><g style="fill:none;stroke:#000000;stroke-width:8.5;stroke-linecap:square;stroke-linejoin:miter;"><g><g><g><g><path d="M60.36,13.25c0.05,0.74,0.25,1.96-0.09,2.96c-2.2,6.52-7.69,18.01-15.91,27.52"/></g><path d="M55.99,32.93c2.38,0.69,4.41,0.54,6.29,0.21c5.69-0.99,19.38-3.24,24.85-3.98c3.5-0.47,5.78,0.57,5.58,4.46c-0.33,6.52-1.47,17.71-4.88,28.9c-1.67,5.47-3.23,7.16-7.43,2.52"/></g><g><path d="M50.03,48.49c2.02,0.64,3.68,0.5,5.73,0.11c3.68-0.69,9.83-2.08,13.25-2.75c2.48-0.49,4.86,0.52,4.26,3.35c-0.15,0.73-2.53,9.43-3.62,13.78"/><path d="M49.49,65.35c1.04,0.21,2.52,0.24,4.26,0.16c3.9-0.18,9.6-1.16,13.97-1.72c2.2-0.28,4.19-0.27,5.7-0.37"/><path d="M50.77,66.02c0.91,0.91,1.27,2.14,1.26,3.84C52,75.29,52,79.63,52,84.38c0,10.3,1.38,11.81,23.24,11.81c17.28,0,19.4-3.07,19.4-12.89"/></g></g></g></g></svg>