<svg class="voyager-component-icon icon" xmlns="http://www.w3.org/2000/svg" width="109" height="109" viewBox="0 0 109 109"><g style="fill:none;stroke:#000000;stroke-width:8.5;stroke-linecap:square;stroke-linejoin:miter;"><g><g><g><path d="M42.27,33.43c1.09,1.09,1.48,1.93,1.66,3.59c1.07,10.36,1.63,18.16,2.49,28.22c0.2,2.29,0.37,4.46,0.52,6.43"/><path d="M44.62,35.13c14.51-2.38,33.19-4.53,42.14-5.14c3.48-0.24,4.99,1.6,4.61,4.81c-0.69,5.73-1.83,17.54-3.24,26.52c-0.36,2.28-0.7,4.41-1.01,6.26"/></g><g><path d="M65.52,13.25c1.12,1.12,1.35,2.38,1.35,4.58c0,9.02-0.08,52.9-0.11,71.8c-0.01,4.51-0.01,7.61-0.01,8.5"/></g></g></g></g></svg>