<svg class="voyager-component-icon icon" xmlns="http://www.w3.org/2000/svg" width="109" height="109" viewBox="0 0 109 109"><g style="fill:none;stroke:#000000;stroke-width:8.5;stroke-linecap:square;stroke-linejoin:miter;"><g><g><g><path d="M41.5,42.08c0.96,0.96,1.8,2.11,1.85,3.15c0.6,12.27,1.17,24.52,1.97,39.14c0.07,1.34,0.15,2.71,0.22,4.09"/><path d="M44.3,44.1c14.86-1.95,33-3.84,43.57-4.76c5.05-0.44,7.43,0.86,6.92,6.16c-0.78,8.1-2.56,24.34-4.42,35.89c-0.32,1.97-0.63,3.8-0.95,5.44"/></g><g><path d="M65.56,16.61c1.23,1.23,1.84,2.91,1.84,4.35c0.03,14.16-0.06,58.13-0.06,61.83"/></g></g></g></g></svg>