<svg class="voyager-component-icon icon" xmlns="http://www.w3.org/2000/svg" width="109" height="109" viewBox="0 0 109 109"><g style="fill:none;stroke:#000000;stroke-width:8.5;stroke-linecap:square;stroke-linejoin:miter;"><g><g><g><path d="M64.65,13.75c0.12,1.52-0.03,2.65-0.63,4.06c-2.87,6.78-10.86,18.2-16.79,24.07"/><path d="M63.32,23.57c5.68-0.32,14.77-1.7,17.24-1.99c2.12-0.25,2.38,1.62,1.5,2.84c-3.72,5.14-8.18,11.08-13.21,18.28"/></g><g><g><path d="M51.6,45.34c1.15,0.41,2.73,0.26,3.9,0.17c11-0.88,23.37-2.38,31.13-3.52c2.42-0.35,3.09,1.81,2.86,3c-0.57,3.06-1.13,8.47-1.97,13.32c-0.26,1.49-0.54,2.93-0.86,4.23"/><path d="M69.34,44.99c0.83,0.83,1.32,2.01,1.32,3.36c0,4.52-0.05,8.15-0.05,13.12"/><path d="M55.1,63.83c3.64-0.34,24.78-2.7,30.34-2.86"/><path d="M52.85,46.09c0.9,0.9,1.32,2.21,1.32,3.6c0,14.31,0.08,23.81,0.08,29.06c0,13.5,2,14.87,21.07,14.87c20.31,0,20.95-2.24,20.95-9.16"/></g></g></g></g></g></svg>