<svg class="voyager-component-icon icon" xmlns="http://www.w3.org/2000/svg" width="109" height="109" viewBox="0 0 109 109"><g style="fill:none;stroke:#000000;stroke-width:8.5;stroke-linecap:square;stroke-linejoin:miter;"><g><g><g><g><path d="M48.92,42.6c0.87,0.87,1.7,2.15,1.88,3.39c0.63,4.34,1.73,9.45,2.66,17.02c0.21,1.73,0.44,3.54,0.67,5.42"/><path d="M51.04,43.92c9.5-1.54,28.99-4.12,37.34-5.11c3.37-0.4,5.79,0.6,5.01,4.31c-1.02,4.88-1.33,7.61-3.17,16.28"/><path d="M55.01,64.48c10.49-1.36,19.46-2.25,32.5-3.67c1.32-0.14,2.66-0.29,4.01-0.44"/></g><g><path d="M69.62,15c0.94,0.94,1.47,2.5,1.47,4.16c0,0.92,0,59.82-0.22,65.41"/></g></g><path d="M51.25,89.88c0.82,0.69,2.32,0.86,3.12,0.62C62,88.25,81.12,82.25,88.3,80.15"/><path d="M82.99,73.34c4.4,2.86,11.36,11.76,12.46,16.21"/></g></g></g></svg>