<svg class="voyager-component-icon icon" xmlns="http://www.w3.org/2000/svg" width="109" height="109" viewBox="0 0 109 109"><g style="fill:none;stroke:#000000;stroke-width:8.5;stroke-linecap:square;stroke-linejoin:miter;"><g><g><g><path d="M58.66,15.25c0.04,0.68,0.19,1.77-0.08,2.72c-1.83,6.28-6.33,16.4-14.64,25.54"/><path d="M59.22,24.46c1.2,0.13,2.79,0.01,3.3-0.11c3.74-0.85,7.57-1.79,12.18-2.86c3.17-0.73,4.07,0.84,3.26,2.83C73.52,35.25,58.75,57,39.25,65.25"/><path d="M54.27,31.17c5.53,4.63,22.97,19.64,32.35,26.59c2.72,2.02,5.26,3.74,8.33,5.05"/></g><g><path d="M49.67,68.04c0.98,1.14,1.17,2.17,1.48,3.58c0.93,4.27,1.91,11.33,2.66,17.37c0.18,1.48,0.35,2.91,0.5,4.21"/><path d="M51.99,69.48c7.66-0.94,19.47-2.45,25.51-3.22c3.32-0.43,5.36-0.29,4.63,3.64c-0.88,4.81-1.9,10.67-3.16,16.91"/><path d="M55.23,90.16c4.37-0.54,13.7-1.46,21.51-2.14c1.33-0.12,2.62-0.23,3.83-0.33"/></g></g></g></g></svg>