<svg class="voyager-component-icon icon" xmlns="http://www.w3.org/2000/svg" width="109" height="109" viewBox="0 0 109 109"><g style="fill:none;stroke:#000000;stroke-width:8.5;stroke-linecap:square;stroke-linejoin:miter;"><g><g><g><path d="M49.3,16.71c0.87,0.87,1.49,2.35,1.49,3.77c0,3.1,0.11,27.19,0.15,37.77c0.01,2.3,0.01,3.96,0.01,4.63"/><path d="M51.38,18.4c4.49-0.65,24.66-2.94,27.27-3.15c2.17-0.18,3.7,1.26,3.7,3.3c0,1.51-0.08,22.61-0.09,38.08c0,1.76,0,2.96,0,4.55"/><path d="M52.08,32.6c8.42-1.1,20.17-2.48,28.83-2.62"/><path d="M52.07,46.38c8.93-0.75,22.56-2.13,29.01-2.37"/><path d="M52.05,59.91c6.95-0.41,21.7-1.78,28.76-2.12"/></g><g><path d="M57.63,65.52c0.06,0.71,0.13,1.84-0.12,2.86c-1.46,6.03-8.88,19.49-21.26,27.37"/><path d="M68.73,61.47c0.78,0.78,1.2,2.03,1.2,3.48c0,4.67-0.14,12.87-0.14,18.35c0,10.2,1.58,11.33,13.93,11.33c12.02,0,12.52-2.25,12.52-9.23"/></g></g></g></g></svg>