<svg class="voyager-component-icon icon" xmlns="http://www.w3.org/2000/svg" width="109" height="109" viewBox="0 0 109 109"><g style="fill:none;stroke:#000000;stroke-width:8.5;stroke-linecap:square;stroke-linejoin:miter;"><g><g></g><g><g><g><path d="M68.34,12.75c0.73,0.75,1.59,2,1.59,3.75s0,4,0,8.75"/><path d="M52.88,27.7c1.92,0.59,4.03,0.32,6,0.14c6.52-0.6,18.02-2.26,26.12-2.72c2.08-0.12,4.11-0.16,6.17,0.22"/></g><g><path d="M57.66,34.5c3.64,4.01,5.29,8.11,5.62,10.75"/><path d="M83.49,29.62c0.28,0.7,0.28,1.52,0.06,2.36c-0.74,2.84-4.76,12.06-5.92,14.27"/><path d="M48.25,51.3c2.62,0.57,4.37,0.29,6.51,0.07c10.63-1.1,24.29-2.6,35.11-3.27c2.25-0.14,4.41-0.26,6.62,0.23"/></g></g><g><path d="M52.89,67.85c1.21,0.32,3.45,0.45,4.66,0.32c9.71-1.05,22.21-2.55,31.44-3.17c2.02-0.13,3.24,0.15,4.25,0.32"/><path d="M70.02,51.63c1.05,1.05,1.59,2.49,1.59,4.21c0,4.85-0.1,24.66-0.14,35.28c-0.01,2.58-0.02,4.61-0.02,5.76"/></g></g></g></g></svg>