<svg class="voyager-component-icon icon" xmlns="http://www.w3.org/2000/svg" width="109" height="109" viewBox="0 0 109 109"><g style="fill:none;stroke:#000000;stroke-width:8.5;stroke-linecap:square;stroke-linejoin:miter;"><g><g><path d="M48.19,28.89c2.03,0.92,5.29,0.56,7.44,0.31c6.93-0.8,20.06-2.93,29.36-3.35c2.04-0.09,4.07-0.18,6.06,0.36"/><g><path d="M49.83,42.31c1,1,1.1,2.26,1.12,3.94c0.07,6.89,0.03,28.4,0.01,41c-0.01,4-0.01,7.05-0.01,8.37"/><path d="M51.7,43.64c7.42-0.76,33.34-3.55,35.26-3.78s3.54,1.06,3.54,3.29s0,29.77,0,45.61c0,11.29-6.07,2.54-7.04,1.86"/><path d="M52.2,57.58c10.3-1.21,29.42-2.58,37.06-3.14"/><path d="M52.12,71.91c5.67-0.52,30.58-2.63,37.13-2.97"/><path d="M67.83,12.78c0.88,0.88,1.22,2.1,1.22,3.88c0,0.95,0.09,49.04,0.07,69.84c0,4.14-0.01,6.22-0.01,7.66"/></g><g><path d="M86,12.12c3.14,1.53,8.11,6.31,8.9,8.69"/></g></g></g></g></svg>