<svg class="voyager-component-icon icon" xmlns="http://www.w3.org/2000/svg" width="109" height="109" viewBox="0 0 109 109"><g style="fill:none;stroke:#000000;stroke-width:8.5;stroke-linecap:square;stroke-linejoin:miter;"><g><g></g><g><g><path d="M48.22,27.61c2.15,0.39,4.1,0.53,5.65,0.28c7.87-1.27,20.67-3.25,27.73-4.03c1.74-0.19,3.42-0.38,5.13,0.09"/></g><g><path d="M46.49,40.7c0.78,0.78,1.31,1.45,1.42,2.38c0.8,2.8,1.86,7.28,2.69,11.55c0.28,1.42,0.51,2.81,0.67,4.07"/><path d="M48.63,41.94c11.75-2.69,26.85-4.76,33.26-5.6c3.53-0.46,5.78,0.56,4.9,4.66c-1.04,4.87-1.54,6.49-2.38,11.2"/><path d="M52.41,56.56c7.33-1.01,20.09-2.81,29.1-3.72c1.76-0.18,3.35-0.32,4.69-0.42"/></g><g><path d="M65.5,12.75c1.25,1.25,1.75,2.62,1.75,4c0,0.69,0.03,52.85,0.02,74c0,5.21-0.01,8.54-0.02,8.75"/><path d="M64.67,55.82c0,1.68-0.54,2.96-1.53,4.67c-5.54,9.58-14.02,19.39-23.03,25.27"/><path d="M67.99,55.6C71.75,60.75,81,71.25,88.14,78.74c2.15,2.26,4.24,4.26,7.26,5.92"/></g></g></g></g></svg>