<svg class="voyager-component-icon icon" xmlns="http://www.w3.org/2000/svg" width="109" height="109" viewBox="0 0 109 109"><g style="fill:none;stroke:#000000;stroke-width:8.5;stroke-linecap:square;stroke-linejoin:miter;"><g><g><path d="M52.44,15.93c1.13,1.13,1.59,2.23,1.59,3.69c0,3.88,0.11,28.38,0.11,33.85"/><path d="M54.03,17.66c7.84-1.03,16.59-2.78,20.18-3.42c1.43-0.25,2.79-0.11,4.04,0.01"/><path d="M55.08,29.66c8.92-1.04,16.05-2.29,19.15-2.92c1.43-0.29,2.77-0.24,3.98-0.01"/><path d="M55.48,41.94c6.64-0.69,16.54-2.18,19.63-2.68c1.44-0.23,3.01-0.39,4.34-0.19"/><path d="M41.63,55.39c2.87,0.61,6.05,0.32,8.39-0.05c9.23-1.46,24.1-3.96,35.6-5.04c2.56-0.24,5.62-0.42,7.79,0.06"/><path d="M50.06,58.37c1.23,1.23,1.76,2.63,1.76,4.66c0,11.61,0.17,23.5,0.17,25.46c0,1.96,1.2,3.08,2.72,1.61c1.52-1.47,8.42-7.85,11.39-10.38"/><path d="M81.47,56.71c0.03,0.54-0.09,1.41-0.62,2.12c-1.92,2.58-4.47,4.91-8.66,7.88"/><path d="M59.6,60.35c2.9-0.09,19.64,19.22,28.5,26.5c2.35,1.93,4.84,3.23,7.77,4.03"/></g></g></g></svg>