<svg class="voyager-component-icon icon" xmlns="http://www.w3.org/2000/svg" width="109" height="109" viewBox="0 0 109 109"><g style="fill:none;stroke:#000000;stroke-width:8.5;stroke-linecap:square;stroke-linejoin:miter;"><g><g><g><g><g><path d="M44.65,34.14c2.22,0.36,4.67,0.19,6.73-0.05c7.78-0.9,24.06-2.84,31.49-3.32c1.85-0.12,3.95-0.26,5.76,0.25"/></g><g><path d="M54.33,20.25c0.96,0.96,1.42,2.38,1.69,4c0.17,1,0.85,15,1.51,26"/></g><g><path d="M76.88,14.25c0.81,0.81,1.31,2.24,1.19,3.25c-0.33,2.75-1.95,17.88-3.24,30.75"/></g></g><path d="M37.25,52.7c3,0.55,5.72,0.32,8.48,0.02c13.17-1.46,25.84-3.07,41.65-4.03c2.83-0.17,5.49-0.31,8.24,0.11"/></g><g><path d="M51.43,61.83c0.75,0.75,1.21,1.89,1.21,2.95c0,0.82-0.01,18.86-0.01,27.1c0,2.36,0,3.92,0,4.04"/><path d="M53.29,63.16c1.86-0.11,17.41-2.36,23.46-3.15c3.42-0.44,4.82,0.25,4.7,3.74c-0.16,4.48,0,16.22-0.02,25.75c0,1.82-0.01,3.55,0,5.14"/><path d="M53.68,77.24c7.2-0.62,19.32-1.99,26.71-2.64"/><path d="M53.79,92.78c6.05-0.57,19.04-1.89,26.58-2.37"/></g></g></g></g></svg>