<svg class="voyager-component-icon icon" xmlns="http://www.w3.org/2000/svg" width="109" height="109" viewBox="0 0 109 109"><g style="fill:none;stroke:#000000;stroke-width:8.5;stroke-linecap:square;stroke-linejoin:miter;"><g><g><g><path d="M53.9,17.42c0.96,0.96,1.34,2.08,1.34,3.3c0,54.03,0.89,58.9-13.22,76.02"/><path d="M38.55,40.17c1.29,0,2.8,0.28,4.1,0c1.29-0.28,7.47-1.79,9.94-2.29"/><path d="M37.83,55.34c1.27,0,2.75,0.26,4.01,0c1.27-0.26,7.56-1.56,10.94-2.33"/><path d="M35.73,73.01c1.15,0.87,2.4,0.62,3.59,0c1.14-0.59,8.18-4.25,15.04-7.91"/></g><g><path d="M72.29,13c0.98,0.98,1.34,2.38,1.34,3.8c0,0.69,0.03,55.95,0.04,75.2c0,3.35,0,5.6,0,6.3"/><path d="M75.37,34.21c4.45-0.62,12.72-1.56,16.77-2.24c1.44-0.24,2.48-0.39,3.92-0.39"/><path d="M75.47,51.66c3.55-0.3,9.37-1.13,13.18-1.73c1.56-0.25,2.97-0.43,4.22-0.19"/><path d="M75.11,70.76c3.54-0.3,14.24-1.48,19.3-2.2c1.5-0.21,3.1-0.22,4.61-0.22"/></g></g></g></g></svg>