<svg class="voyager-component-icon icon" xmlns="http://www.w3.org/2000/svg" width="109" height="109" viewBox="0 0 109 109"><g style="fill:none;stroke:#000000;stroke-width:8.5;stroke-linecap:square;stroke-linejoin:miter;"><g><g><g><path d="M47.4,19.78c2.48,3.19,5.13,8.76,5.49,10.36"/><path d="M61.95,14.94c2.68,3.06,5.07,7.71,5.67,11.16"/><path d="M87.39,12.5c0.36,1,0.12,2.11-0.42,3.32c-1.6,3.56-4.22,8.06-6.6,11.53"/></g><g><g><path d="M47.52,37.77c0.92,0.92,1.55,2.22,1.68,2.75c0.85,3.6,2.71,12.37,3.72,17.85c0.38,2.09,0.65,3.6,0.68,3.96"/><path d="M49.29,38.5c9.82-1.88,26.57-4.25,33.73-5.08c3.26-0.38,5.67-0.05,5.21,3.75c-0.51,4.18-2.84,13.25-3.95,18.05c-0.4,1.75-0.71,3.03-0.82,3.48"/><path d="M52.33,48.81c6.67-1.18,30.79-4.09,33.32-4.21"/><path d="M54.07,59.89c10.3-1.39,18.55-2.64,28.95-3.27"/></g><g><path d="M44.04,74.84c2.71,0.53,5.42,0.54,8.09,0.1c10.87-1.81,24.91-3.44,38-4.58c2.62-0.23,4.98-0.04,7.57,0.47"/></g><g><g><path d="M67.13,38.01c0.8,0.8,1.08,1.96,1.09,3.05c0.02,3.44-0.04,35.32-0.07,49.94c-0.01,4.36-0.01,7.18-0.01,7.26"/></g></g></g></g></g></g></svg>