<svg class="voyager-component-icon icon" xmlns="http://www.w3.org/2000/svg" width="109" height="109" viewBox="0 0 109 109"><g style="fill:none;stroke:#000000;stroke-width:8.5;stroke-linecap:square;stroke-linejoin:miter;"><g><g><g><g><path d="M51,13.5c0.88,0.88,1.37,1.62,1.59,3.24c0.72,5.29,1.08,10.35,2.23,19.5c0.13,1,0.26,2.05,0.41,3.15"/><path d="M53.53,14.93c6.23-0.83,18.68-2.8,24.51-3.17c2.22-0.14,4.34,1.33,4.17,3.24c-0.7,7.75-1.17,13.66-2.02,18.83c-0.13,0.83-0.54,1.9-0.54,2.47"/><path d="M54.82,25.72c6.06-0.84,20.06-2.22,25.38-2.46"/><path d="M56.17,36.55c4.1-0.55,17.42-1.97,22.53-2.45"/></g><g><path d="M43.6,47.75c1.8,0.39,4.56,0.59,6.35,0.39C63,46.62,74,45,89.12,44.02c3-0.19,5.26,0.12,6.76,0.32"/></g></g><g><g><path d="M55,50.38c0.11,1.15-0.23,2.25-0.86,3.26c-3.05,4.94-8.3,10.43-15.39,14.86"/><path d="M54.87,58.05c2.13,0.33,3.68,0.08,5.42-0.04c6.96-0.5,23.33-3.25,27.59-3.74c3.27-0.37,4.98,1.05,4.45,4.29C91,66.75,86.15,83.96,78.92,92.78c-2.17,2.65-3.4-0.44-5.34-2.37"/></g><path d="M61.75,61.12c0.12,1-0.08,1.67-0.51,2.56c-2.74,5.66-9.28,13.58-18.49,18.06"/><path d="M75.88,59.39c0.1,0.92-0.04,2.36-0.45,3.67C73.04,70.8,63.03,85.12,50,93.5"/></g></g></g></g></svg>