<svg class="voyager-component-icon icon" xmlns="http://www.w3.org/2000/svg" width="109" height="109" viewBox="0 0 109 109"><g style="fill:none;stroke:#000000;stroke-width:8.5;stroke-linecap:square;stroke-linejoin:miter;"><g><g><path d="M26.77,17.75c0.8,0.81,1.29,1.49,1.45,2.92c0.53,4.71,1.74,14.95,2.76,22.81c0.35,2.71,0.59,4.56,0.59,4.68"/><path d="M28.97,19.86c12.16-1.36,34.68-3.2,46.16-4.02c4.74-0.34,6.06,1.43,5.39,5.67c-0.54,3.42-1.83,11.28-3.57,18.98c-0.42,1.85-0.85,3.64-1.28,5.27"/><path d="M30.56,32.32c13.06-1.07,37.69-2.82,47.47-3.17"/><path d="M32.35,45.22c10.65-0.97,31.53-2.28,43.16-2.69"/></g><g></g></g></g></svg>