<svg class="voyager-component-icon icon" xmlns="http://www.w3.org/2000/svg" width="109" height="109" viewBox="0 0 109 109"><g style="fill:none;stroke:#000000;stroke-width:8.5;stroke-linecap:square;stroke-linejoin:miter;"><g><g><path d="M22.21,28.92c3.04,0.58,6.45,0.46,9.17,0.07C42.62,27.38,59.5,26,74.13,25.13c2.3-0.14,5.18-0.3,7.47,0.16"/><path d="M52.63,11.25c0.87,0.87,1.4,2.88,1.4,3.75c0,7.02-0.04,20.99-0.04,30.75c0,2.2,0.04,4.2,0,5.25"/><path d="M52.13,27.47c0,0.88-1.81,3.3-2.52,4.13c-7.93,9.3-18.24,18.78-33.28,25.3"/><path d="M54.9,27.76c4.03,2.89,18.35,14.23,26.83,20.42c2.98,2.17,6.26,4.2,9.92,5.83"/></g><g></g></g></g></svg>