<svg class="voyager-component-icon icon" xmlns="http://www.w3.org/2000/svg" width="109" height="109" viewBox="0 0 109 109"><g style="fill:none;stroke:#000000;stroke-width:8.5;stroke-linecap:square;stroke-linejoin:miter;"><g><g><g><path d="M18.36,18.52c1.49,0.38,4.07,0.21,5.21,0.07c4.56-0.58,17.17-2.72,19.09-3.08c0.97-0.19,1.98,0,2.98,0"/><path d="M31.26,19.53c0.92,0.92,1.23,2.58,1.23,3.76c0,1.17,0,12.97,0,16.37"/><path d="M19.09,30.65c1.24,0.19,3.23,0.2,4.71-0.06c4.7-0.84,17.37-3.65,17.37-3.65s1.98-0.19,2.73-0.19"/><path d="M15.87,44.12c1.13,1.63,3.07,1.23,4.72,0.64c4.92-1.75,11.54-4,20.08-7.31"/></g></g><g><g></g></g></g></g></svg>