<svg class="voyager-component-icon icon" xmlns="http://www.w3.org/2000/svg" width="109" height="109" viewBox="0 0 109 109"><g style="fill:none;stroke:#000000;stroke-width:8.5;stroke-linecap:square;stroke-linejoin:miter;"><g><g><g><path d="M33.36,14.75c1.32,1.32,1.98,2.75,1.98,4.41c0,3.96-0.15,7.59-0.15,11.15"/><path d="M13.25,33.12c2.25,0.38,4.01,0.5,6.14,0.31c9.88-0.88,17.86-2.06,26.02-3.43c2.28-0.38,4.6-0.63,6.85-0.38"/></g><g><path d="M33,45.75c3.34,0.52,6.63,1.03,9.99,1.36c3.41,0.34,3.82,2.99,3.51,5.64c-1,8.5-8.74,29.43-13.38,34.83c-4.87,5.67-7.72,0.26-9.09-0.57"/><path d="M32.75,34.75c0.62,1.12,0.91,2.54,0.62,3.95C31.22,49.12,24.6,65.77,10.5,76.5"/></g></g><g><g></g></g></g></g></svg>