<svg class="voyager-component-icon icon" xmlns="http://www.w3.org/2000/svg" width="109" height="109" viewBox="0 0 109 109"><g style="fill:none;stroke:#000000;stroke-width:8.5;stroke-linecap:square;stroke-linejoin:miter;"><g><g><path d="m37.14,15.14c0.86,0.86,1.02,2.08,0.95,3.27-0.33,5.62-1.21,13.84-2.71,19.52-0.46,1.74-0.07,2.49,1.51,2.18,8.77,-1.74,17.74,-3.16,28.61,-3.69,2.28,-0.11,4.5,-0.17,7.75,0.33"/><path d="M39.4,17.1c9.85-1.1,26.98-3.48,33.08-4.09c1.76-0.18,2.85,1.09,2.46,2.94C73.75,21.5,72,30,70.75,35.5"/><path d="M54.25,17c0.81,0.81,0.83,2.13,0.72,3.3c-0.34,3.57-0.84,6.95-1.87,14.9"/><path d="M12.63,30.08c4.75,0.92,9.3,0.29,13.62-0.29c15.13-2.04,36.95-4.57,56.25-5.87c4.04-0.27,8.75-0.17,12.13,0.57"/></g><g></g></g></g></svg>