<svg class="voyager-component-icon icon" xmlns="http://www.w3.org/2000/svg" width="109" height="109" viewBox="0 0 109 109"><g style="fill:none;stroke:#000000;stroke-width:8.5;stroke-linecap:square;stroke-linejoin:miter;"><g><g><path d="M26.5,14.25c0.88,0.88,1.56,1.99,1.73,2.98c0.84,4.77,2.47,16.75,3.34,26.04c0.18,1.95,0.37,2.37,0.55,4.23"/><path d="M29,15.95c11.38-1.45,41.21-4.57,49.56-4.71c3.9-0.07,5.44,1.51,4.91,5.29c-0.45,3.21-3.15,15.19-4.94,22.23c-0.41,1.62-0.79,2.99-1.4,4.19"/><path d="M54,15.97c0.77,0.77,1,1.91,1,2.79c0.02,6.32,0.2,22,0.2,22.75"/><path d="M30.98,30.82C45,29.12,57.12,28,80.53,26.34"/><path d="M32.87,44.74c11.38-1.24,28.38-2.99,44.14-3.7"/></g></g></g></svg>