<svg class="voyager-component-icon icon" xmlns="http://www.w3.org/2000/svg" width="109" height="109" viewBox="0 0 109 109"><g style="fill:none;stroke:#000000;stroke-width:8.5;stroke-linecap:square;stroke-linejoin:miter;"><g><g><path d="M16.75,25.22c0.89,0.89,1.32,2.29,1.32,3.66c0,1.11,0.07,27.44,0,37.63c-0.02,2.32-0.02,3.78-0.02,3.91"/><path d="M19.29,27.75c5.66-0.81,19.54-2.59,21.22-2.75c1.76-0.17,2.89,1.89,2.75,2.91c-0.23,1.7-0.45,27.34-0.52,36.6c-0.01,1.9-0.02,3.11-0.02,3.29"/><path d="M19.16,46.97C23.5,46.5,37,45.12,41.77,44.76"/><path d="M19,66.59c8.5-0.97,14.37-1.59,22.49-2.11"/></g></g></g></svg>