<svg class="voyager-component-icon icon" xmlns="http://www.w3.org/2000/svg" width="109" height="109" viewBox="0 0 109 109"><g style="fill:none;stroke:#000000;stroke-width:8.5;stroke-linecap:square;stroke-linejoin:miter;"><g><g><path d="M20.5,14.64c0.49,0.49,1.44,1.59,1.66,2.43c1.09,4.17,1.51,6.88,2.4,11.91c0.2,1.15,0.39,2.26,0.55,3.26"/><path d="M23.25,16.2c15.2-1.38,58.15-3.72,64.01-4.22c2.74-0.23,4.12,1.39,3.32,3.95c-1.08,3.44-1.82,5.56-3.62,10.4c-0.38,1.02-0.87,1.99-1.32,2.94"/><path d="M43.25,16.5c0.75,0.75,0.68,1.25,0.85,2.27c0.6,3.64,1.21,7.47,1.4,9.23"/><path d="M66.25,14.5c0.5,0.75,0.42,2.03,0.29,3.01c-0.54,4.37-0.79,6.62-1.29,9.24"/></g><g></g></g></g></svg>