<svg class="voyager-component-icon icon" xmlns="http://www.w3.org/2000/svg" width="109" height="109" viewBox="0 0 109 109"><g style="fill:none;stroke:#000000;stroke-width:8.5;stroke-linecap:square;stroke-linejoin:miter;"><g><g><g><path d="M35.03,11.7c3,1.77,7.51,7.01,8.27,9.75"/><path d="M68.38,9.89c0,0.73-0.26,1.18-0.45,1.75C66.25,15,65.12,16.75,61.2,21"/><path d="M23.64,26.1c2.91,0.29,5.84,0.47,8.75,0.13c12.86-1.49,33.76-2.96,45.12-3.44c2.76-0.12,5.49-0.18,8.06,0.19"/></g><path d="M53.05,25.69c0.94,0.94,1.14,1.93,1.14,2.89c0,5.17-0.06,7.15-0.06,16.92"/><path d="M28.36,36.61c2.63,0.45,5.24,0.27,7.91,0.03c9.98-0.89,26.41-2.2,36.11-2.66c2.78-0.3,5.55-0.23,8.3,0.2"/><path d="M16.13,48.36c3.87,0.64,7.71,0.29,11.63,0c13.4-0.98,40.18-2.31,55.62-3.19c3.59-0.5,7.17-0.45,10.74,0.14"/></g><g><g></g></g></g></g></svg>