<svg class="voyager-component-icon icon" xmlns="http://www.w3.org/2000/svg" width="109" height="109" viewBox="0 0 109 109"><g style="fill:none;stroke:#000000;stroke-width:8.5;stroke-linecap:square;stroke-linejoin:miter;"><g><g><path d="M55.07,8.95c0.38,0.13-0.36,2.33-0.59,2.72c-1.57,2.57-3.18,6.07-6.89,9.45"/><g><path d="M34.94,22.15c1.02,1.02,1.44,2.35,1.54,3.89c0.41,6.37,0.81,19.69,1.48,29.71c0.11,1.72,0.23,3.34,0.35,4.81"/><path d="M37.26,24c5.24-0.5,31.75-3.22,34.98-3.39c2.69-0.14,4.13,1.27,4.08,3.86c-0.13,6.03-0.71,16.94-1.65,28.57c-0.12,1.47-0.25,2.96-0.38,4.45"/></g></g></g></g></svg>