<svg class="voyager-component-icon icon" xmlns="http://www.w3.org/2000/svg" width="109" height="109" viewBox="0 0 109 109"><g style="fill:none;stroke:#000000;stroke-width:8.5;stroke-linecap:square;stroke-linejoin:miter;"><g><g><path d="M21,17.24c1.78,0.73,5.05,0.84,6.84,0.73c13.66-0.84,39.57-3.31,50.42-4c2.97-0.19,4.87-0.34,6.24-0.04"/><path d="M22.75,31.19c0.78,0.78,1.46,1.75,1.57,2.88c0.83,3.01,1.49,7.88,2.12,12.18c0.22,1.5,0.43,2.94,0.65,4.2"/><path d="M25.29,33.28c20.46-2.78,40.83-4.65,54.33-5.54c3.65-0.24,5.58,0.93,4.45,5.03c-0.81,2.92-1.86,6.35-3.15,9.87c-0.5,1.37-1.04,2.75-1.61,4.12"/><path d="M42.37,20c1.13,1.13,1.62,2.48,1.71,3.5c0.42,4.75,1.17,13,1.67,22.5"/><path d="M63.12,18c0.88,0.88,1.51,2.98,1.13,5.25c-1,6-1.25,10.5-3.25,21.75"/><path d="M28,48.38c15.63-1.25,32.25-2.38,50.7-3.13"/></g></g></g></svg>