<svg class="voyager-component-icon icon" xmlns="http://www.w3.org/2000/svg" width="109" height="109" viewBox="0 0 109 109"><g style="fill:none;stroke:#000000;stroke-width:8.5;stroke-linecap:square;stroke-linejoin:miter;"><g><g><g><path d="M28.05,19.42c0.95,0.46,1.52,1.55,1.7,2.21c0.87,3.25,2.75,12.87,3.95,17.86c0.2,0.81,0.35,1.51,0.48,2.28"/><path d="M30.34,20.63c2.95-0.29,36.86-3.14,44.78-3.69c3.46-0.24,5.52,0.59,4.6,4.23c-1.09,4.33-1.87,7.53-3.75,14.48c-0.27,1-0.56,2.06-0.86,3.17"/></g><g><g><g><path d="M43.39,11.16c1.24,0.96,1.71,2.07,1.82,3.02c1.29,11.57,1.29,12.57,2.51,23.79"/></g></g><path d="M61.62,9.73c1,0.89,1.17,2.32,1.07,3.27C61.75,22,61,29.75,60,37"/><g><g><path d="M32.6,29.86C44.38,28.88,70.12,27,77.2,26.73"/></g></g></g></g><g></g></g></g></svg>