<svg class="voyager-component-icon icon" xmlns="http://www.w3.org/2000/svg" width="109" height="109" viewBox="0 0 109 109"><g style="fill:none;stroke:#000000;stroke-width:8.5;stroke-linecap:square;stroke-linejoin:miter;"><g><g><g><path d="M28.24,16.95c2.99,1.02,6.47,0.51,9.52,0.16c11.62-1.36,26.97-2.77,35.13-3.52c2.97-0.28,5.69-0.41,8.62,0.19"/><path d="M29.9,17.73c0.94,0.94,1.19,2.23,1.17,4.31C30.88,38.62,27.5,57.5,15.75,72.3"/></g><path d="M39.92,27.6c2.2,0.4,4.7,0.16,6.73-0.14c6.37-0.94,15.62-2.02,21.74-2.61c2.19-0.21,4.13-0.35,6.29,0.15"/><path d="M34.31,38.43c2.57,0.69,4.66,0.47,7.07,0.21c8.63-0.91,27.16-3.04,35.25-3.62c2.54-0.18,5.35-0.39,7.85,0.19"/><path d="M39.17,40.15c1.09,1.09,1.33,2.73,1.33,4.3c0,6.05,0.07,18.56,0.07,20.38c0,2.54,0.93,2.92,3.33,1.49c2.08-1.24,7.23-4.57,14.14-8.57"/><path d="M74.88,40.89c0,0.86-0.33,1.38-0.82,1.78c-1.18,1.56-4.07,3.95-7.45,5.92"/><path d="M51.45,43.27C55,43.35,71.52,56.48,80.95,63.09c2.89,2.03,5.63,3.42,8.81,4.91"/></g></g></g></svg>