<svg class="voyager-component-icon icon" xmlns="http://www.w3.org/2000/svg" width="109" height="109" viewBox="0 0 109 109"><g style="fill:none;stroke:#000000;stroke-width:8.5;stroke-linecap:square;stroke-linejoin:miter;"><g><g></g><g><path d="M36.5,53.3c1.25,0.58,3.11,0.93,4.5,0.87C44.88,54,62.12,51.49,65.46,51c2.54-0.38,2.81,1.66,1.22,2.98c-1.59,1.32-8.4,6.17-12.43,8.56"/><path d="M51.62,63.54c4.63,4.21,10.39,18.24,4.54,31.1c-2.15,4.73-5.78,2.48-9.57-1.65"/><path d="M20.65,74.56c3.23,0.94,6.82,0.67,9.73,0.39c10.26-0.99,34.55-3.35,46.12-3.92c3.25-0.16,7,0.09,9.86,0.88"/></g></g></g></svg>