<svg class="voyager-component-icon icon" xmlns="http://www.w3.org/2000/svg" width="109" height="109" viewBox="0 0 109 109"><g style="fill:none;stroke:#000000;stroke-width:8.5;stroke-linecap:square;stroke-linejoin:miter;"><g><g><g><path d="M16.25,24.98c2.5,0.64,5.16,0.42,7.51,0.1c7.22-0.98,19.17-2.95,26.48-3.61c2.38-0.22,4.68-0.37,7,0.29"/></g><g><path d="M37.11,25.65c0.23,0.62,0.29,1.73-0.05,2.94C34.75,36.62,26.5,52.38,14.48,60.8"/><path d="M35.81,39.06c1.19,0.56,2.19,0.31,3.36,0.11c2.72-0.47,4.2-0.8,8.38-2.06c2.67-0.81,4.31,0.95,3.78,3.58C48.25,56,30,85.38,12.27,95.75"/><path d="M26.25,54c4.01,1.77,10.35,7.29,11.35,10.05"/></g></g></g></g></svg>