<svg class="voyager-component-icon icon" xmlns="http://www.w3.org/2000/svg" width="109" height="109" viewBox="0 0 109 109"><g style="fill:none;stroke:#000000;stroke-width:8.5;stroke-linecap:square;stroke-linejoin:miter;"><g><g><g></g></g><g><path d="M62.17,42.88c-0.05,0.83-0.82,1.76-1.38,2.2c-3.23,2.53-11.6,6.84-24.11,10.15"/><path d="M31.12,63.33c1.96,0.58,4.83,0.54,6.8,0.24c9.07-1.36,20.95-3.23,29.56-4.35c2.53-0.33,5.27-0.59,8.05-0.25"/><path d="M22.68,76.46c2.15,0.69,5.67,0.3,7.82,0.06c13.05-1.45,32.67-3.54,46.62-4.28c3.61-0.19,7.31-0.46,10.88,0.22"/><path d="M50.85,50.98c6.9,9.77,7.9,23.77,5.47,41.08c-0.68,4.87-4.95,4.31-8.05,0.5"/></g></g></g></svg>