<svg class="voyager-component-icon icon" xmlns="http://www.w3.org/2000/svg" width="109" height="109" viewBox="0 0 109 109"><g style="fill:none;stroke:#000000;stroke-width:8.5;stroke-linecap:square;stroke-linejoin:miter;"><g><g><path d="M36.26,54.19c1.09,1.09,1.59,2.89,1.59,3.52c0,4.92,0,20.42,0,34.56c0,2.23-0.1,4.11-0.1,6.24"/><path d="M38.2,55.78c0.59-0.03,29.02-2.73,30.58-2.8c2.47-0.11,3.73,0.89,3.73,3.05c0,3.72,0.08,26.23,0.08,38.15c0,10.58-6.97,1.31-7.86,0.57"/><path d="M39.2,67.61c5.93-0.23,24.72-2.4,32.25-2.4"/><path d="M39.12,79.23c5.88-0.35,24.26-1.98,32.13-2.31"/></g></g></g></svg>