<svg class="voyager-component-icon icon" xmlns="http://www.w3.org/2000/svg" width="109" height="109" viewBox="0 0 109 109"><g style="fill:none;stroke:#000000;stroke-width:8.5;stroke-linecap:square;stroke-linejoin:miter;"><g><g><g></g></g><g><path d="M52.68,52.67c0.82,0.82,1.42,2.08,1.42,3.88c0,14.2,0.01,28.08,0.01,35.1c0,6.62-5.79,1.12-7.87-0.44"/><path d="M21.69,68.21c1.36,0.21,2.91,0.46,4.31,0.17c3.63-0.76,7.25-2.13,11.41-3.4c2.31-0.71,4.1,1.14,3.4,3.02c-3.18,8.5-13.31,20.38-24.56,26.75"/><path d="M79,55c0,0.88-0.25,1.62-0.97,2.32C73.14,62.01,68,64.88,60.5,69"/><path d="M55.85,66.92C65.38,75,73,81.62,82.92,88.29c2.77,1.86,4.83,3.33,7.45,4.33"/></g></g></g></svg>