<svg class="voyager-component-icon icon" xmlns="http://www.w3.org/2000/svg" width="109" height="109" viewBox="0 0 109 109"><g style="fill:none;stroke:#000000;stroke-width:8.5;stroke-linecap:square;stroke-linejoin:miter;"><g><g><path d="M29,53.97c2.88,0.41,5.88,0.14,8.12-0.14c7.65-0.98,25.12-2.7,35.27-3.42c2.23-0.16,4.98-0.28,7.11,0.35"/><path d="M53,54.75c0.88,0.88,1.25,1.75,1.25,3.25c0,7,0,22.38,0,29.5"/><path d="M29.25,70.25c2.5,0.62,6.43,0.36,8.39,0.15c9.26-0.96,22.62-2.68,32.87-3.63c2.82-0.26,6.25-0.4,8.75,0.23"/><path d="M15.75,90.49c3.07,1.06,7.09,0.77,10.25,0.52c20.4-1.58,37.09-3.35,57.63-4.17c3.43-0.14,7.35,0.09,10.62,1.4"/></g></g></g></svg>