<svg class="voyager-component-icon icon" xmlns="http://www.w3.org/2000/svg" width="109" height="109" viewBox="0 0 109 109"><g style="fill:none;stroke:#000000;stroke-width:8.5;stroke-linecap:square;stroke-linejoin:miter;"><g><g><g></g></g><g><path d="M21.74,66.24c2.53,0.9,5.53,0.67,8.13,0.32c14.64-1.95,33.36-4.89,51.13-5.37c2.74-0.07,5.44-0.14,8.14,0.44"/><path d="M51.28,58.55c0.08,0.82,0.04,1.94-0.42,3.06C47.5,69.75,37.5,86,21,93.5"/><g><path d="M47.68,73.46c1.49,0.11,2.9,0,4.35-0.33c4.63-1.05,10.71-2.46,14.96-3.4c2.68-0.59,3.13,1.15,2.04,2.96c-3.92,6.5-18.91,21.07-36.99,25.82"/><path d="M43.28,78.16c3.85,1.34,23.42,12.34,33.05,16.8c3.05,1.42,6.52,2.99,9.88,3.41"/></g></g></g></g></svg>