<svg class="voyager-component-icon icon" xmlns="http://www.w3.org/2000/svg" width="109" height="109" viewBox="0 0 109 109"><g style="fill:none;stroke:#000000;stroke-width:8.5;stroke-linecap:square;stroke-linejoin:miter;"><g><g></g><g><path d="M24.06,69.04c1.14,1.13,1.63,2.32,1.78,3.27c1.19,7.5,2.37,12.76,3.48,20.35"/><path d="M26.15,70.89c12.6-2.02,39.95-4.63,49.98-5.25c4.11-0.25,6.55,0.91,5.68,5.36c-1.05,5.41-2.43,11.99-3.87,18.47"/><path d="M42.19,71.5c0.9,0.9,1.34,1.81,1.47,2.7c1.21,7.92,1.58,10.92,2.53,17.33"/><path d="M62.74,69.95c0.63,1.18,0.61,2.57,0.47,3.67C62.4,80,61.62,84.5,60.79,90.67"/><path d="M13.38,93.54c2.8,1,5.88,1,8.76,0.81c15.21-0.96,40.65-2.97,64.61-3.8c3.22-0.11,6.26,0.49,9.38,1.16"/></g></g></g></svg>