<svg class="voyager-component-icon icon" xmlns="http://www.w3.org/2000/svg" width="109" height="109" viewBox="0 0 109 109"><g style="fill:none;stroke:#000000;stroke-width:8.5;stroke-linecap:square;stroke-linejoin:miter;"><g><g><g></g></g><g><path d="M32.68,51.72c1.05,1.05,1.22,2.11,1.22,3.54c0,1.13,0,24.45,0,36.49c0,3.11,0,5.47,0,6.5"/><path d="M34.41,53.41c5.68-0.49,31.54-2.63,39.59-3.09c2.87-0.16,5.13,0.3,5.13,3.73c0,4.01,0.19,22.18,0.07,34.69c-0.02,2.69-0.04,5.13-0.04,7.1"/><path d="M34.84,66.7c11.48-0.82,33.54-2.59,42.86-2.76"/><path d="M35.18,80.65c13.07-1.27,29.57-2.65,42.49-3.14"/><path d="M35.05,95.28c11.3-0.64,28.65-2.16,42.94-2.69"/></g></g></g></svg>