<svg class="voyager-component-icon icon" xmlns="http://www.w3.org/2000/svg" width="109" height="109" viewBox="0 0 109 109"><g style="fill:none;stroke:#000000;stroke-width:8.5;stroke-linecap:square;stroke-linejoin:miter;"><g><g><g></g><g><g></g></g></g><g><path d="M29.88,68.18c2.25,0.32,4.33,0.28,5.84,0.12c10.03-1.05,27.66-3.18,35.95-3.51c2.54-0.1,4.06-0.07,5.33,0.11"/><g><g><path d="M52.46,68.87c0.84,0.84,1.26,2.13,1.26,3.54c0,5.97-0.01,16.12-0.01,21.09"/><path d="M54.28,79.73c2.97-0.36,10.35-1.23,17.6-2.03c1.3-0.14,2.72-0.18,4,0.1"/></g><path d="M33.79,80.37c0.09,0.25,1.26,1.31,1.33,2.92c0.25,5.09,0.63,7.22,0.98,10.97"/><path d="M16.75,95.75c2.75,0.67,7.03,0.73,8.45,0.61c13.3-1.11,46.05-3.11,61.16-3.36c3.3-0.05,6.01,0.25,7.89,0.75"/></g></g></g></g></svg>