<svg class="voyager-component-icon icon" xmlns="http://www.w3.org/2000/svg" width="109" height="109" viewBox="0 0 109 109"><g style="fill:none;stroke:#000000;stroke-width:8.5;stroke-linecap:square;stroke-linejoin:miter;"><g><g></g><g><path d="M47.44,45.32c0.18,0.8,0.07,1.73-0.48,2.34c-2.21,2.46-4.08,4.71-8.64,8.96c-1.01,0.94-1.06,2.37,0.5,2.77c3.17,0.8,6.09,2.17,8.78,3.84"/><path d="M64.82,45.44C65,46.5,64.5,48,63.57,49.06c-7.09,8.13-15.2,14.19-24.64,22.07c-1.21,1.01-0.96,1.89,0.46,1.56c5.95-1.37,22.46-4.39,30.11-5.7"/><path d="M65.5,62.6c4.03,1.75,10.41,7.18,11.41,9.9"/><path d="M53.23,72.52c0.94,0.94,1.31,2.36,1.31,4.03c0,4.33-0.11,10.08-0.11,17.21c0,2.42-0.1,4.22-0.1,4.75"/><path d="M35.7,81.66c0.18,1.22-0.07,2.47-0.73,3.26c-2.63,3.17-9.71,9.16-13.64,11.77"/><path d="M72.12,80.41c4.33,2.95,10.63,9.59,13.06,13.5"/></g></g></g></svg>