<svg class="voyager-component-icon icon" xmlns="http://www.w3.org/2000/svg" width="109" height="109" viewBox="0 0 109 109"><g style="fill:none;stroke:#000000;stroke-width:8.5;stroke-linecap:square;stroke-linejoin:miter;"><g><g><path d="M12,22.75c1.75,0.62,4.63,0.53,6.01,0.29c4.49-0.79,11.74-1.76,17.12-2.36c1.78-0.26,3.57-0.32,5.37-0.17"/><path d="M26.82,24.52c1.08,1.08,1.23,2.11,1.23,3.48c0,5.95,0.1,37.62,0.1,42.32"/><path d="M12.75,46.25c1.25,0.38,3.39,0.59,5.01,0.37c6.36-0.87,12.99-2.37,17.48-2.94c0.69-0.09,3.22-0.66,4.25-0.31"/><path d="M12,78.25c1.5,1,2.78,0.8,4.25,0c7.12-3.88,15.5-9.12,23.5-13.88"/></g><g><g></g></g></g></g></svg>