<svg class="voyager-component-icon icon" xmlns="http://www.w3.org/2000/svg" width="109" height="109" viewBox="0 0 109 109"><g style="fill:none;stroke:#000000;stroke-width:8.5;stroke-linecap:square;stroke-linejoin:miter;"><g><g></g><g><g><path d="M31.41,49.35c0.75,0.75,1.39,1.6,1.51,2.08c1.25,5.01,2.54,11.82,3.71,18.45c0.19,1.08,0.38,2.15,0.56,3.21"/><path d="M34.18,50.85c13.44-1.35,29.69-3.23,39.52-3.87c3.14-0.21,5.11,1.92,4.57,4.29c-0.82,3.63-2.63,10.84-4.2,15.55c-0.36,1.09-0.71,2.04-1.03,2.79"/></g><path d="M53,50.82c1,0.81,1.61,2.02,1.65,4.06c0.2,11.24,0.06,37.64,0.06,40.42"/><path d="M33.5,82.06c1.39,0.37,3.95,0.48,5.34,0.37c11.65-0.93,22.53-2.06,33.69-2.26c2.32-0.04,3.72,0.18,4.88,0.36"/><path d="M17.32,96c2.29,0.64,6.5,0.74,8.79,0.64c23.85-1.07,29.37-1.36,57.94-2.1c3.82-0.1,6.11,0.3,8.02,0.63"/></g></g></g></svg>