<svg class="voyager-component-icon icon" xmlns="http://www.w3.org/2000/svg" width="109" height="109" viewBox="0 0 109 109"><g style="fill:none;stroke:#000000;stroke-width:8.5;stroke-linecap:square;stroke-linejoin:miter;"><g><g><g></g></g><g><g><g><path d="M52.79,45.5c0.85,0.86,1.22,2,1.22,3.09c0,0.91-0.01,3.01-0.01,4.04"/><path d="M31.59,55.21c2.28,0.41,4.24,0.16,6.54-0.1c6.42-0.72,20.55-2.25,32.74-3.09c2.19-0.15,4.12,0.1,6.3,0.45"/></g><g><path d="M39.38,57c2.42,2.56,2.91,5.02,3.26,6.82"/><path d="M66.35,55.4c0.1,0.55-0.1,1.31-0.19,1.5c-0.92,1.91-2.1,4.01-2.78,5.1"/><path d="M16.25,68.2c3.25,0.67,6.42,0.67,9.37,0.29c20.25-2.61,39.04-4.37,57-4.95c5-0.16,8.25-0.04,11.12,0.68"/></g></g><g><path d="M35.03,74.06c0.83,0.83,1.22,1.81,1.53,3.08c0.36,1.48,1.77,11.04,2.58,16.59c0.34,2.28,0.57,3.88,0.57,3.97"/><path d="M37.2,75.12c6.05-0.87,29.84-3.59,32.53-3.46c2.02,0.09,3.77,0.84,3.41,3.6c-0.08,0.64-1.47,9.6-2.44,15.78c-0.25,1.6-0.49,3.04-0.69,4.15"/><path d="M38.73,84.32c8.52-0.7,24.02-2.2,32.34-2.6"/><path d="M40.2,94.88c7.42-0.5,18.67-1.63,29.02-2.2"/></g></g></g></g></svg>