<svg class="voyager-component-icon icon" xmlns="http://www.w3.org/2000/svg" width="109" height="109" viewBox="0 0 109 109"><g style="fill:none;stroke:#000000;stroke-width:8.5;stroke-linecap:square;stroke-linejoin:miter;"><g><g></g><g><path d="M40.37,46.25c0.08,0.57-0.11,1.57-0.66,2.31C34.62,55.38,25.5,63.38,11.5,70.62"/><path d="M64.58,42.85c4.02,2.97,16.31,14.4,22.31,19.52c1.91,1.63,3.8,2.81,5.99,4.01"/><path d="M51.64,48.26c0.92,0.92,1.65,2.12,1.65,3.07c0,1.8-0.01,2.65-0.01,4.95"/><path d="M38.83,58.34c0.79,0.66,2.83,0.8,4.29,0.62c6.3-0.78,20.28-2.73,21.78-2.8c1.59-0.08,2.6,0.59,2.5,2.29c-0.18,3.08-0.92,8.45-1.22,13.43c-0.05,0.79-0.23,3.56-0.23,4.01"/><path d="M39.26,58.71c0.83,0.83,1.4,1.79,1.4,3.1c0,0.76-0.01,30.21-0.01,32.03c0,2.28,1.23,2.9,2.72,2.19c2.83-1.36,9.73-4.79,12.12-6.42"/><path d="M75,76.5c0.19,0.81-0.25,1.74-0.82,2.24c-1.62,1.42-3.63,3.1-5.95,5.04"/><path d="M54.11,80.5c3.52,0.25,20.52,13.25,25.52,16c2.75,1.51,4.82,2.41,7.08,2.79"/></g></g></g></svg>