<svg class="voyager-component-icon icon" xmlns="http://www.w3.org/2000/svg" width="109" height="109" viewBox="0 0 109 109"><g style="fill:none;stroke:#000000;stroke-width:8.5;stroke-linecap:square;stroke-linejoin:miter;"><g><g><g><g><g></g></g></g><g><g></g></g></g><g><path d="M35.84,52.43c0.74,0.74,1,1.69,1,2.58c0,2.42-0.05,13.52-0.08,20.61c-0.01,2.55-0.02,4.58-0.02,5.5"/><path d="M37.87,54.3c7.41-0.83,21.21-2.76,27.4-3.68c2.05-0.31,4.44-0.94,6.51-0.64"/><path d="M54.14,53.7c0.83,0.83,1.14,1.93,1.14,2.9c0,6.78,0.07,14.88,0.07,21.1"/><path d="M37.57,62.78c7.67-0.86,20.85-2.67,26.3-3.42c1.82-0.25,3.97-0.8,5.82-0.53"/><path d="M37.85,71.06c7.67-0.86,21.23-2.47,26.78-3.18c1.84-0.23,3.99-0.79,5.84-0.52"/><path d="M36.95,80.18c10.93-1.65,37.42-4.36,43.51-4.79c4.08-0.29,4.97,1.49,4.43,5.11c-0.79,5.31-1.63,8.12-3.68,14.57c-2.2,6.93-5.08,5.18-8.1,1.69"/><g><path d="M26.78,86.47c-0.53,4.53-2.3,9.4-4.06,12.08"/><path d="M36.5,86.62c1.92,1.91,3.78,7.29,4.28,10.34"/><path d="M50.5,85.5c1.74,1.54,4.53,6.41,4.98,8.87"/><path d="M63.25,83.5c1.98,1.27,5.13,5.29,5.64,7.32"/></g></g></g></g></svg>