<svg class="voyager-component-icon icon" xmlns="http://www.w3.org/2000/svg" width="109" height="109" viewBox="0 0 109 109"><g style="fill:none;stroke:#000000;stroke-width:8.5;stroke-linecap:square;stroke-linejoin:miter;"><g><g><path d="M53.77,9.33c0.98,0.92,1.51,2.42,1.51,4.52c0,5.9-0.02,13.44-0.02,18.4"/><path d="M58.35,21.65c4.65-0.65,7.9-1.25,12.61-1.77c1.55-0.17,2.5,0.15,3.29,0.32"/><path d="M28.96,35.68c0.81,0.81,1.14,2.32,1.14,3.67C30.1,59,27.25,79.25,15.25,92"/><path d="M30.24,38.21c1.25-0.26,2.68-0.51,4.23-0.85c14.28-3.11,32.4-5.74,46.14-6.15c11.72-0.35,2.48,6.22-0.44,8.28"/><g><g><path d="M35.75,50.53c2.5,0.35,5.22,0.08,7.76-0.48c8.49-1.9,14.86-3.3,25.02-4.85c2.43-0.37,4.57-0.5,6.97,0.15"/></g><path d="M53.75,37.18c0.52,0.42,1.2,2.1,1.2,2.68c0,4.71-0.1,8.14-0.1,11.41c0,5.6,0.89,6.73,9.81,6.73c2.76,0,8.21-0.25,10.58-1.09"/></g></g></g></g></svg>