<svg class="voyager-component-icon icon" xmlns="http://www.w3.org/2000/svg" width="109" height="109" viewBox="0 0 109 109"><g style="fill:none;stroke:#000000;stroke-width:8.5;stroke-linecap:square;stroke-linejoin:miter;"><g><g><path d="M11.25,30.5c1.12,1.12,1.5,2.12,1.65,3.26C13.69,39.98,13.97,58,14.54,71c0.08,1.89,0.16,2.49,0.23,4.25"/><path d="M13.75,32.29c7.37-0.79,21.04-2.87,25.07-3.05c2-0.09,3.01,1.91,2.9,3.93c-0.35,6.55-1.51,24.68-2.05,36.33c-0.07,1.5-0.18,2.62-0.43,3.75"/><path d="M25.31,31.8c0.94,0.95,1.48,2.28,1.47,3.7c-0.02,6.52,0.13,33.79,0.13,34.55"/><path d="M14.43,51.84c2.37-0.37,23.45-2.56,25.41-2.56"/><path d="M15.15,71.79c6.98-0.42,15.85-1.42,24.06-1.88"/></g><g></g></g></g></svg>