<svg class="voyager-component-icon icon" xmlns="http://www.w3.org/2000/svg" width="109" height="109" viewBox="0 0 109 109"><g style="fill:none;stroke:#000000;stroke-width:8.5;stroke-linecap:square;stroke-linejoin:miter;"><g><g><g><g><path d="M32.13,12.15c0.04,0.5,0.17,1.32-0.09,2.01c-1.91,5.09-8.41,14.09-16.91,20.51"/><path d="M30.25,20.52c1.12,0.48,2.12,0.31,3.27,0.13c4.78-0.74,12.56-2.58,14.14-2.77c1.77-0.21,2.69,1.77,1.95,2.81c-3.11,4.41-6.51,8.14-11.43,15.2"/></g><path d="M20.37,38.22c0.71,0.87,1.11,1.86,1.2,2.98c0.73,3.46,1.23,8.04,1.76,13.27c0.13,1.28,0.26,2.61,0.4,3.96"/><path d="M22.68,39.46c8.09-1.82,24.84-3.85,29.05-4.07c2.77-0.14,3.44,2.26,3.22,3.58c-0.7,4.25-1.57,7.44-2.77,11.5c-0.34,1.15-0.7,2.36-1.1,3.7"/><path d="M36.75,38.56c0.79,0.79,1.14,1.93,1.14,3.09c0,1.16-0.08,9.25-0.08,11.11"/><path d="M24.38,55.04c3.27-0.46,22.66-2.52,26.26-2.75"/></g><g><g><path d="M30.68,58.17c0.04,0.77,0.09,1.99-0.09,3.1C29.51,67.81,22.75,82.75,12.25,90"/></g><g><path d="M39.91,56.12c0.92,0.92,1.68,2.75,1.68,4.54c0,8.4-0.24,16.83-0.24,22.54c0,10.8,2.77,12.58,24.54,12.58c25.61,0,26.5-3.28,26.5-9.36"/></g></g></g></g></g></svg>