<svg class="voyager-component-icon icon" xmlns="http://www.w3.org/2000/svg" width="109" height="109" viewBox="0 0 109 109"><g style="fill:none;stroke:#000000;stroke-width:8.5;stroke-linecap:square;stroke-linejoin:miter;"><g><g><g><path d="M19.02,15.84c0.89,0.89,1.4,2.05,1.4,2.98c0,0.71,1.73,13.95,2.59,20.55c0.26,2.02,0.45,3.42,0.47,3.64"/><path d="M20.96,17.2c1.54-0.1,14.79-2.19,20.06-2.94c2.74-0.4,4.23,1.61,4.09,3.64c-0.25,3.54-1.04,11.35-1.89,19.13c-0.12,1.08-0.24,2.15-0.35,3.22"/></g><g><path d="M10.75,51.58c1.47,0.43,4.17,0.59,5.63,0.43c7.87-0.88,20.74-3.2,28.35-3.88c2.43-0.22,3.92,0.2,5.14,0.42"/><g><g><path d="M32.57,51.88c0.84,0.84,1.12,2.1,1.12,3.07c0,2.56,0.01,16.56,0.01,24.06"/><path d="M34.35,64.52C38.62,64,43,63.75,45.71,63.39c1.55-0.21,3-0.32,3.79-0.13"/></g><g><path d="M21.38,60.75c0.03,0.66,0.06,1.71-0.06,2.67C20.5,70,16.38,82.5,10.56,88.97"/><path d="M20.75,75.75c7,0.38,35.25,15.12,58.33,19.65c3.36,0.66,6.12,1.34,9.42,1.6"/></g></g></g></g><g><g></g></g></g></g></svg>