<svg class="voyager-component-icon icon" xmlns="http://www.w3.org/2000/svg" width="109" height="109" viewBox="0 0 109 109"><g style="fill:none;stroke:#000000;stroke-width:8.5;stroke-linecap:square;stroke-linejoin:miter;"><g><g><g><g><path d="M17.14,19.11c1.48,0.26,3.44,0.18,4.52,0.07c2.96-0.31,18.45-3.67,20.67-4.16c2.22-0.48,3.18,1.75,1.9,3.37C41.5,21.88,36.5,29,33.38,32.85"/><path d="M23.8,27.98c2.83,1.18,10.17,5.7,11.51,8.78"/></g><g><path d="M12.23,42.58c1.65,0.42,2.9,0.54,4.82,0.32C23.27,42.15,36.09,39.31,42,38c11.25-2.5,2.88,6-0.5,10.25"/><g><path d="M32.09,42.84C34,53.5,35.12,71.25,33.58,88.73c-1.26,14.21-7.83,2.02-8.7,0.14"/></g></g></g><g><path d="M31.23,42.18c0,0.95-0.17,2.19-0.62,3.39C27,55.25,22.25,67,10.5,79.91"/></g></g><g><g><g></g></g></g></g></g></svg>