<svg class="voyager-component-icon icon" xmlns="http://www.w3.org/2000/svg" width="109" height="109" viewBox="0 0 109 109"><g style="fill:none;stroke:#000000;stroke-width:8.5;stroke-linecap:square;stroke-linejoin:miter;"><g><g><path d="M30.39,16.21c0.61,1.29,0.5,2.73,0.07,4.09C28.5,26.5,25,35.25,18.01,44.16"/><g><path d="M28.91,33.73c1.79,0,2.19,0.14,3.08,0c4.13-0.63,8.18-1.52,14.78-2.89c1.91-0.39,3.86-0.47,5.48-0.1"/><g><path d="M12.22,57.18c2.49,0.51,4.9,0.46,7.41,0.15c7.62-0.95,19.62-2.58,29.51-3.78c1.72-0.21,3.85-0.05,5.35,0.26"/><path d="M37.98,36c0.4,1.32,0.59,2.61,0.58,4.24c-0.18,25.01-8.68,42.88-24.75,51.93"/><path d="M39.25,65.75c6,4.25,11.62,10.88,14.25,16.75"/></g></g></g></g></g></svg>