<svg class="voyager-component-icon icon" xmlns="http://www.w3.org/2000/svg" width="109" height="109" viewBox="0 0 109 109"><g style="fill:none;stroke:#000000;stroke-width:8.5;stroke-linecap:square;stroke-linejoin:miter;"><g><g><path d="M21.26,22.54c1.53,0.56,3.9,0.43,5.51,0.26c5.46-0.6,13.76-1.81,20.49-2.34c1.97-0.16,3.93-0.36,5.88,0.07"/><path d="M26.7,26.53c0.55,1.1,0.8,2.35,0.5,4.1c-1.14,6.59-1.95,11.1-2.45,14.37"/><path d="M13.97,47.58c2.28,0.42,4.45,0.49,6.27,0.21c9.26-1.41,22.16-3.02,30.01-3.89c2.5-0.28,4.25-0.4,6.75-0.03"/><g><path d="M45.71,23.69c1.05,1.05,1.43,2.69,1.43,4.69c0,12.62,0.01,50.12,0.01,58.04c0,12.47-5.78,3.82-7.19,2.3"/></g><g><path d="M45.54,45.6c0,1.03-0.36,2.14-1.14,3.4c-4.84,7.85-15.3,20.18-29.35,30.54"/></g></g></g></g></svg>