<svg class="voyager-component-icon icon" xmlns="http://www.w3.org/2000/svg" width="109" height="109" viewBox="0 0 109 109"><g style="fill:none;stroke:#000000;stroke-width:8.5;stroke-linecap:square;stroke-linejoin:miter;"><g><g><path d="M14.98,21.46c1.36,0.66,3.81,0.47,5.28,0.31c8.36-0.91,19.61-2.55,29.36-3.09c1.86-0.1,3.78-0.35,5.6,0.18"/><g><path d="M33.28,23.65c0.47,1.1,0.14,2.49-0.26,2.97c-4.77,5.88-8.27,9.76-13.55,15.9c-1.64,1.91-0.94,3.27,1.59,2.7c5.9-1.35,18.48-4.69,27.78-6.92"/><path d="M44.22,29.64c3.61,2.84,9.33,11.68,10.24,16.1"/></g><g><path d="M18.48,62.25c1.9,0.63,3.85,0.67,5.55,0.47c9.07-1.07,18.96-2.6,24.81-3.68c1.1-0.2,2.04-0.08,2.6,0.11"/><path d="M35.17,46.2c0.75,0.75,1.08,2.19,1.08,3.95c0,5.85,0,25.56,0,28.44"/><path d="M14.19,85.08c1.18,1.17,2.66,1.48,4.4,0.83c14.78-5.53,20.03-7.41,35.14-12.88"/></g></g></g></g></svg>