<svg class="voyager-component-icon icon" xmlns="http://www.w3.org/2000/svg" width="109" height="109" viewBox="0 0 109 109"><g style="fill:none;stroke:#000000;stroke-width:8.5;stroke-linecap:square;stroke-linejoin:miter;"><g><g><g><path d="M32.94,13.25c0.43,0.88,0.15,1.93-0.15,2.5C29.12,22.62,24.38,29,19.31,35.48c-1.41,1.8-1.28,2.92,0.97,2.44c6.6-1.42,17.98-3.79,26.78-5.6"/><path d="M41.97,24.63c3.12,2.53,8.06,10.4,8.84,14.33"/></g><g><path d="M21.83,46.65c0.83,0.83,1.17,2.1,1.19,3.43c0.04,2.91-0.18,29.86-0.14,40.92c0.01,3.16,0.03,5.02,0.04,4.66"/><path d="M24.21,48.79C26.1,48.63,42.9,46,44.28,45.73c1.84-0.36,3.14,1.14,3.14,3.31c0,0.98,0.03,27.46,0.03,40.98c0,8.37-5.02,3.15-6.59,1.7"/></g></g><g></g></g></g></svg>