<svg class="voyager-component-icon icon" xmlns="http://www.w3.org/2000/svg" width="109" height="109" viewBox="0 0 109 109"><g style="fill:none;stroke:#000000;stroke-width:8.5;stroke-linecap:square;stroke-linejoin:miter;"><g><g><g><path d="M28.73,11c0.04,0.49,0.19,1.3-0.08,1.96c-1.9,4.54-6.77,12.16-15.15,18.79"/><path d="M28.39,18c2,0,10.36-1.25,14.07-2.25c2.16-0.58,3.24,1.1,2,2.75c-4.33,5.75-6.96,9-10.9,15.25"/></g><g><path d="M18.17,36.25c0.98,0.98,1.24,2.38,1.23,3.94C19.25,61.25,19.38,80.5,9.5,93.5"/><path d="M20.57,37.45c4.18-0.7,21.17-3.25,23.03-3.46c2.15-0.24,4.16,1.13,4.16,3.96c0,2.55,0.12,34.8,0.12,51.68c0,12.12-5.39,4.75-7.43,2.37"/><path d="M31.42,37.12c0.8,0.8,1.23,2.13,1.23,3.27c0,8.87,0.1,19.62,0.1,25.37"/></g></g><g></g></g></g></svg>