<svg class="voyager-component-icon icon" xmlns="http://www.w3.org/2000/svg" width="109" height="109" viewBox="0 0 109 109"><g style="fill:none;stroke:#000000;stroke-width:8.5;stroke-linecap:square;stroke-linejoin:miter;"><g><g><path d="M36.39,10.14c0.36,0.61,0.21,1.66,0.05,2.13c-1.19,3.48-3.69,9.1-7.06,14.19"/><path d="M21.47,26.5c0.76,0.76,1.31,2.24,1.31,3.25c0,3.38-0.04,29.5-0.04,37.25"/><path d="M23.78,28.59c3.5-0.84,15.96-3.34,18.83-3.36c2.41-0.02,2.99,1.02,2.99,4.02c0,12.39-0.19,49.81-0.19,60.93c0,10.33-4.41,5.33-6.77,2.07"/><path d="M23.32,41.75c5.03-1,19.01-2.75,21.36-3"/><path d="M23.82,53.5c6.18-1,13.68-2.25,20.85-2.75"/><path d="M12.5,70.37c1.12,0.88,2.56,0.78,4.23,0.13c6.14-2.41,20.77-7.75,27.78-11"/><path d="M54.74,45.75c0.26,1.25,0.07,2.37-1,4.12C46.5,61.62,26.38,82.38,11.28,91"/></g></g></g></svg>