<svg class="voyager-component-icon icon" xmlns="http://www.w3.org/2000/svg" width="109" height="109" viewBox="0 0 109 109"><g style="fill:none;stroke:#000000;stroke-width:8.5;stroke-linecap:square;stroke-linejoin:miter;"><g><g><path d="M12.68,28.61c1.7,0.51,3.64,0.27,5.45,0c6.55-0.97,16.81-2.44,25.26-3.35c1.48-0.16,3.73-0.36,5.16,0.09"/><path d="M13.81,39.77c0.77,0.77,1.19,1.73,1.39,2.85c0.44,2.38,2.19,11.42,3.23,17c0.42,2.26,0.72,3.95,0.77,4.39"/><path d="M15.87,40.84c7.26-1.15,19.7-3.25,26.38-3.85c4.39-0.39,5.63,0.27,5.06,4.65c-0.34,2.58-1.73,9.34-2.84,14.25c-0.41,1.83-0.79,3.4-1.05,4.4"/><path d="M18.14,50.92c8.5-1.05,17.86-2.42,26.97-3.06"/><path d="M20.18,61.5c6.6-0.88,12.82-1.62,22.61-2.53"/><path d="M10.78,74.71c2.09,0.65,4.49,0.23,6.58-0.09c8.46-1.31,19.56-3.46,26.65-3.95c1.94-0.13,3.85-0.23,5.72,0.35"/><path d="M29.55,13.63c0.84,0.84,1.14,2.51,1.23,3.65c0.06,0.81,0.01,53.94-0.02,72.6c-0.01,3.82-0.01,6.2-0.01,6.38"/></g><g></g></g></g></svg>