<svg class="voyager-component-icon icon" xmlns="http://www.w3.org/2000/svg" width="109" height="109" viewBox="0 0 109 109"><g style="fill:none;stroke:#000000;stroke-width:8.5;stroke-linecap:square;stroke-linejoin:miter;"><g><g><g><path d="M12.22,23.18c1.96,0.5,3.86,0.52,6.2,0.35c7.12-0.53,18.75-1.82,25.66-2.55c2.2-0.23,4.21-0.23,5.31,0.09"/><path d="M14.27,39.86c0.75,0.75,1.11,2.01,1.11,3.26c0,0.85-0.03,34.89-0.04,44.75c0,1.79,0.04,3.58,0.04,5.38"/><path d="M15.6,41.15c2.48-0.12,27.36-3.69,29.63-3.84c1.89-0.12,3.23,1.19,3.23,3.98c0,1.46-0.67,32.48-0.75,45.45c-0.01,1.44-0.16,2.88-0.16,4.31"/><path d="M25.12,25.9c0.74,0.74,1.02,1.79,0.96,3.42C25.5,45.75,24,53,19.14,61.93"/><path d="M33.87,24.47c0.65,0.65,0.82,1.78,0.82,3.27c0,5.83-0.27,15.62-0.27,22.01c0,6.38,1.2,7.03,5.85,7.03c1.96,0,4.03-0.22,5.48-0.78"/></g></g></g></g></svg>