<svg class="voyager-component-icon icon" xmlns="http://www.w3.org/2000/svg" width="109" height="109" viewBox="0 0 109 109"><g style="fill:none;stroke:#000000;stroke-width:8.5;stroke-linecap:square;stroke-linejoin:miter;"><g><g><g><g><g><path d="M19.97,19.8c1.41,0.32,3.01,0.62,4.72,0.5c10.44-0.75,18.43-2.05,25.95-2.55c2.42-0.16,3.99,1.5,3.23,4.68C52,30.25,51.25,34,49.72,42.3"/><path d="M13.83,34.04c2.43,0.27,4.46,0.12,6.93-0.12c9.49-0.92,22.37-2.8,32.38-3.67c2.51-0.22,5.06-0.32,7.54,0.17"/></g><path d="M17.74,46.47c1.77,0.36,3.45,0.34,5.24,0.17c8.23-0.79,16.1-2.2,25.57-3.04c1.49-0.13,2.42-0.25,3.54-0.06"/></g><g><g><path d="M33.77,22.48c0.55,0.57,0.86,2.23,0.8,2.79C32.62,41.75,27.5,61.12,11.6,75"/></g></g></g><g><path d="M26.15,61.23c0.37,0.41,1.03,2.44,1.09,2.99c0.63,5.41,1.35,10.77,2.07,16.92c0.14,1.18,0.27,2.38,0.39,3.58"/><path d="M27.44,61.89c8.9-1.57,15.92-2.79,20.58-3.45c2.11-0.3,4.75,0.25,4.18,3.16c-1.01,5.16-1.89,8.84-3.4,17.64"/><path d="M30.07,82.38c4.54-0.54,11.21-1.45,17.31-2.12c1.24-0.14,2.46-0.26,3.62-0.37"/></g></g></g></g></svg>