<svg class="voyager-component-icon icon" xmlns="http://www.w3.org/2000/svg" width="109" height="109" viewBox="0 0 109 109"><g style="fill:none;stroke:#000000;stroke-width:8.5;stroke-linecap:square;stroke-linejoin:miter;"><g><g><path d="M30.76,13.64c0.06,0.64,0.27,1.71-0.11,2.57c-2.44,5.65-9.46,16.71-19.41,25.04"/><path d="M33,19.5c4.52,1.8,11.68,7.41,12.81,10.22"/><path d="M27.25,33.66c0.36,0.15,1.02,0.19,1.39,0.15c2.3-0.25,8.37-2.17,10.6-2c0.6,0.05,0.96,0.07,1.27,0.14"/><path d="M20.02,41.44c0.39,0.78,0.78,1.66,0.78,2.7c0,1.04-0.13,54.33,0,55.37"/><path d="M20.94,43.05c2.2-0.13,17.89-2.15,19.89-2.31c1.67-0.13,2.75,1.44,2.62,2.2c-0.26,1.56-1.92,17.89-2.47,21.33"/><path d="M21.14,76.75c3.73-0.25,15.98-2.64,19.6-2.47c0.97,0.04,1.56,0.07,2.05,0.14"/><path d="M21.64,89.88c3.73-0.25,16.48-2.15,20.1-1.98c0.97,0.04,1.56,0.07,2.05,0.14"/></g><g><g><g></g><g></g></g></g></g></g></svg>