<svg class="voyager-component-icon icon" xmlns="http://www.w3.org/2000/svg" width="109" height="109" viewBox="0 0 109 109"><g style="fill:none;stroke:#000000;stroke-width:8.5;stroke-linecap:square;stroke-linejoin:miter;"><g><g><g><path d="M18.8,15.95c0.75,0.75,0.95,1.8,1.02,3.17c0.14,2.88,2.13,18.09,2.13,18.41"/><path d="M20.01,17.38c7.96-1.32,12.76-1.72,20.64-3.1c2.35-0.41,4.3,0.39,3.81,3.09c-0.68,3.74-1.44,9.77-2.07,17.31"/><path d="M30.56,23.87c0.78,0.78,1,1.88,1,2.92c0,2.82,0.32,8.73,0.32,9.04"/><path d="M32.25,24.91c3.13-0.16,7.88-0.66,10.78-0.89"/><path d="M14.59,37.12c-0.02,3.61-1.46,11.63-2.46,14.26"/><path d="M15.62,39.12c13.12-1.88,25.38-3,32.43-3.66c6.08-0.57,0.82,5.53-1.29,7.24"/></g><g><path d="M22.06,47.37c0.72,0.72,0.98,1.76,0.98,2.85c0,0.57,0.12,27.07,0.12,39.53c0,3.06,0,5.28,0,6.05"/><path d="M23.76,48.82c1.17-0.14,9.75-1.77,13.73-2.5c3.29-0.61,4.22,0.71,4.22,3.93c0,5.25-0.05,34.38-0.05,40.09c0,9.09-4.88,3.15-6.09,1.57"/><path d="M23.76,61.81c5.37-0.68,12.15-1.39,16.5-1.92"/><path d="M24.21,74.67c3.85-0.52,11.55-1.37,16.06-1.72"/></g></g><g></g></g></g></svg>