<svg class="voyager-component-icon icon" xmlns="http://www.w3.org/2000/svg" width="109" height="109" viewBox="0 0 109 109"><g style="fill:none;stroke:#000000;stroke-width:8.5;stroke-linecap:square;stroke-linejoin:miter;"><g><g><path d="M25.76,21.75c0.93,0.93,1.06,2,1.06,3.24c0,0.75,0.04,33.14,0.04,42.53"/><path d="M14.32,47.34c0.55,0.78,0.68,2.03,0.49,3.17c-0.54,3.26-1.06,9.99-2.3,18.44c-0.38,2.57,0.01,3.43,2.46,2.6c5.1-1.71,17.4-4.3,24.51-4.77"/><path d="M39.96,42.37c0.9,0.9,1.04,2.13,0.99,3.99c-0.1,3.65-0.67,11.42-1.24,18.91c-0.14,1.86-0.31,3.67-0.52,5.35"/></g><g></g></g></g></svg>