<svg class="voyager-component-icon icon" xmlns="http://www.w3.org/2000/svg" width="109" height="109" viewBox="0 0 109 109"><g style="fill:none;stroke:#000000;stroke-width:8.5;stroke-linecap:square;stroke-linejoin:miter;"><g><g><path d="M52.94,23.81c1.94,0.81,3.51,0.95,5.91,0.6c9.66-1.41,25.33-2.77,26.81-2.93c1.95-0.21,3.74,1.14,3.04,4.43c-0.21,0.98-2.27,11.23-3.64,20.63"/><path d="M54.54,49.87c1.21,0.38,2.44,0.78,3.99,0.67c6.17-0.42,15.1-1.67,24-2.59c1.82-0.19,3.61-0.24,5.07-0.24"/><path d="M55.79,50.87c0.92,0.92,1.36,2.13,1.36,3.51c0,6.98-0.02,15.05-0.02,21.37C57.12,89,58,90,76.5,90c17.62,0,18.99-1.75,18.99-11.24"/></g></g></g></svg>