<svg class="voyager-component-icon icon" xmlns="http://www.w3.org/2000/svg" width="109" height="109" viewBox="0 0 109 109"><g style="fill:none;stroke:#000000;stroke-width:8.5;stroke-linecap:square;stroke-linejoin:miter;"><g><g></g><g><path d="M50.5,18.45c1.44,0.35,3.81,0.52,5.23,0.35c7.14-0.8,16.01-2.43,24.49-3.06c2.38-0.18,3.83-0.06,5.02,0.11"/><path d="M43.13,41.42c1.5,0.38,4.27,0.58,5.76,0.38c12.86-1.67,28.86-4.05,41.85-5.38c2.49-0.26,4.01,0.18,5.26,0.37"/><path d="M71.52,41.33c1.26,1.26,1.76,2.79,1.76,5.27c0,14.56-0.26,38.66-0.26,43.62c0,8.03-7.21-0.5-8.71-1.75"/></g></g></g></svg>