<svg fill="#000000" width="800" height="800" viewBox="0 0 22 22" version="1.1" sodipodi:docname="search-svgrepo-com.svg" xmlns:inkscape="http://www.inkscape.org/namespaces/inkscape" xmlns:sodipodi="http://sodipodi.sourceforge.net/DTD/sodipodi-0.dtd" xmlns="http://www.w3.org/2000/svg" xmlns:svg="http://www.w3.org/2000/svg"> <defs id="defs1"/> <sodipodi:namedview id="namedview1" pagecolor="#ffffff" bordercolor="#000000" borderopacity="0.25" inkscape:showpageshadow="2" inkscape:pageopacity="0.0" inkscape:pagecheckerboard="0" inkscape:deskcolor="#d1d1d1"> <inkscape:page x="0" y="0" width="22" height="22" id="page2" margin="0" bleed="0"/> </sodipodi:namedview> <path d="M 22,19.57 16.353,13.922 A 8.895,8.895 0 0 0 17.875,8.938 C 17.875,4.01 13.867,0 8.938,0 4.01,0 0,4.01 0,8.938 c 0,4.929 4.01,8.938 8.938,8.938 a 8.887,8.887 0 0 0 4.984,-1.522 L 19.568,22 Z M 8.938,15.125 A 6.194,6.194 0 0 1 2.75,8.937 6.195,6.195 0 0 1 8.938,2.749 6.195,6.195 0 0 1 15.126,8.937 6.195,6.195 0 0 1 8.938,15.125 Z" id="path1"/></svg>